<?xml version="1.0"?>
<svg xmlns="http://www.w3.org/2000/svg" width="512" height="512" viewBox="0 0 128 128"><g><path d="M64,4.557A59.443,59.443,0,1,0,123.443,64,59.51,59.51,0,0,0,64,4.557Zm0,115.386A55.943,55.943,0,1,1,119.943,64,56.005,56.005,0,0,1,64,119.943Z"/><path d="M64,15.276A48.724,48.724,0,1,0,112.724,64,48.78,48.78,0,0,0,64,15.276Zm1.75,93.9v-5.96a1.75,1.75,0,0,0-3.5,0v5.96A45.267,45.267,0,0,1,18.821,65.75h5.96a1.75,1.75,0,1,0,0-3.5h-5.96A45.267,45.267,0,0,1,62.25,18.821v5.96a1.75,1.75,0,1,0,3.5,0v-5.96A45.267,45.267,0,0,1,109.179,62.25h-5.96a1.75,1.75,0,0,0,0,3.5h5.96A45.267,45.267,0,0,1,65.75,109.179Z"/><path d="M74.189,40.557a25.516,25.516,0,0,1,6.2,3.837,1.75,1.75,0,0,0,2.246-2.684,29.043,29.043,0,0,0-7.053-4.362,1.75,1.75,0,0,0-1.4,3.209Z"/><path d="M88.511,56.745a1.75,1.75,0,1,0,3.357-.992,28.913,28.913,0,0,0-3.758-7.972,1.75,1.75,0,0,0-2.9,1.957A25.432,25.432,0,0,1,88.511,56.745Z"/><path d="M91.305,62.25A1.749,1.749,0,0,0,89.555,64,25.555,25.555,0,1,1,63.512,38.458l-3.257,3.256a1.749,1.749,0,1,0,2.474,2.474l6.034-6.032c.015-.015.026-.035.042-.051.03-.032.056-.067.084-.1a1.794,1.794,0,0,0,.125-.175c.018-.029.033-.06.049-.091a1.842,1.842,0,0,0,.1-.226c.008-.023.014-.046.021-.07a1.715,1.715,0,0,0,.064-.277l0-.02c0-.013,0-.026,0-.039a1.649,1.649,0,0,0,.018-.186c0-.035-.008-.069-.01-.1s0-.047-.007-.07a1.681,1.681,0,0,0-.046-.266c-.007-.025-.015-.049-.022-.073a1.892,1.892,0,0,0-.094-.244c-.012-.024-.025-.047-.038-.07a1.629,1.629,0,0,0-.136-.216c-.017-.023-.037-.045-.055-.067a1.6,1.6,0,0,0-.1-.127l-6.034-6.033a1.75,1.75,0,0,0-2.474,2.475L63.1,34.968A29.051,29.051,0,1,0,93.055,64,1.75,1.75,0,0,0,91.305,62.25Z"/><path d="M54.353,64.5l-6.244,4.671v3.417H61.26v-3.76H54.549l2.656-1.894c2.949-2.016,3.883-3.761,3.883-6,0-3.221-2.655-5.531-6.44-5.531a8.4,8.4,0,0,0-6.76,3.318l2.63,2.606a5.409,5.409,0,0,1,4.031-2.114,2.02,2.02,0,0,1,2.238,1.893C56.787,62.144,56.246,63.078,54.353,64.5Z"/><path d="M65.583,69.371h8.186v3.22h4.2v-3.22h2.139V65.88H77.973V55.728H72.86L65.214,66.175Zm8.186-9.291v5.8h-4.2Z"/></g></svg>
