<svg xmlns="http://www.w3.org/2000/svg" viewBox="0 0 1783.61 644.76"><defs><style>.cls-1{fill:#fff;}</style></defs><title>logo-white</title><g id="Layer_2" data-name="Layer 2"><g id="Layer_1-2" data-name="Layer 1"><path class="cls-1" d="M1706.9,185.79c-2.16,5.3-3.72,10.06-7.14,14.21a19.25,19.25,0,0,1-4.06-.65,289,289,0,0,0-57.91-15.58c-16.56-2.72-32.39-8-48.51-12.25-17.73-4.68-35.58-8.7-53.66-11.76-12.86-2.17-25.64-4.94-38.57-6.47-11.85-1.41-23.63-3.68-35.65-3.82-4.68-.05-9.18-1.83-14-1.93-8.63-.17-17.24-1.22-25.86-1.79-8.06-.54-16.14-.94-24.21-1.37a49,49,0,0,1-5-.11c-18-2.89-36.2-1.77-54.32-2a5.89,5.89,0,0,0-.84,0c-5.58.69-10.08-1.22-14.58-4.65-16.89-12.89-35.18-23.57-54.06-33.28-29.53-15.19-60.32-27.27-91.87-37.61-20.64-6.77-41.45-13-62.59-17.89-13.5-3.14-27-6.32-40.9-7.82-6.33-.69-12.56-2.29-18.9-3-7.73-.91-15.52-1.37-23.29-2a39.49,39.49,0,0,1-5-.23c-9.11-2-18.34-1.26-27.53-1.47-8.64-.19-17.27-.71-25.91-.84-5-.08-10,.38-15,.48-8.65.17-17.31.13-26,.42-6.12.2-12.22.79-18.33,1.22-1.11.08-2.22.25-3.34.31-10,.62-20,1-30,1.89-7.74.68-15.42,2-23.13,3-5.79.72-11.61,1.24-17.4,2-6.88.92-13.74,2-20.61,3-4.39.65-8.77,1.37-13.17,2-13.75,2-27.42,4.33-41,7.31-14.39,3.17-28.92,5.74-43.31,9-38.51,8.6-76.7,18.44-114.43,30-13,4-26,8.34-39,12.51-17.75,5.69-36,9.54-54.24,13-5.71,1.06-11.71.76-17.33,2.1-8.55,2-17.22,1.13-25.78,2.07a113.45,113.45,0,0,1-24.23.06c-2.22-.23-4.45-.43-6.68-.44-13.72,0-27.12-2.6-40.35-5.73-9.43-2.24-18.57-5.73-27.77-8.87-3.38-1.15-6.87-2.35-9.65-5.59,1.72-4.77,3.29-9.74,6.45-14.56,6.08,1.15,12.09,2.18,18.05,3.46,10.06,2.18,20.24,3.4,30.47,4.63,15.66,1.89,31.23.84,46.76-.43a290.22,290.22,0,0,0,37.88-6c25.32-5.48,50-13,74.66-21,33.12-10.66,66.5-20.47,100.27-28.84,18.86-4.68,37.76-9.25,56.74-13.4,13.27-2.89,26.71-5,40.08-7.43,7.38-1.35,14.73-2.86,22.14-4,14.28-2.22,28.59-4.22,42.89-6.32,6.87-1,13.73-2.16,20.63-3,7.74-.93,15.51-1.58,23.27-2.32q5.42-.51,10.84-.9c13.62-1,27.24-2.46,40.87-2.71q35.58-.67,71.16,0c12.79.26,25.56,1.84,38.33,3,5.82.51,11.61,1.41,17.42,2.06,16.6,1.85,32.88,5.31,49.22,8.71a676.38,676.38,0,0,1,70.74,19.19c36.11,11.69,71.13,26,104.66,43.89a390.38,390.38,0,0,1,43.27,27c4.21,3,8.45,4.84,13.86,4.57,8.35-.4,16.74-.18,25.11,0,5.57.13,11.13.68,16.69,1,1.11.08,2.21.3,3.32.35,13.93.62,27.85,1.2,41.77,1.85,2.5.12,5,.46,7.47.77,1.66.21,3.29.68,5,.81,8.87.69,17.75,1.21,26.61,2,5.82.52,11.61,1.33,17.38,2.15s11.51,2.17,17.31,2.68c15.54,1.38,30.83,4.47,46,7.57a686.81,686.81,0,0,1,78.26,20.5,382,382,0,0,1,76.6,34.89A26.46,26.46,0,0,1,1706.9,185.79Z"/><path class="cls-1" d="M1106.45,501.16c3.62-6.38,3.08-12.78,4.83-18.6.73-2.41-1.07-4.31-3.65-4.48-2.78-.19-5.57-.13-8.36-.16-4.47-.05-8.93,0-13.39-.15a13.15,13.15,0,0,1-3-.71,7.26,7.26,0,0,1-.49-1.05,4.13,4.13,0,0,1-.28-1.62q17.79-98,35.66-195.89c.09-.49.61-.91.93-1.36,6.07-1.31,31.24-1.55,40.88-.35,3.1,5.63,3.28,12.16,4.49,18.35,3.57,18.3,6.72,36.68,10,55,2.63,14.76,5.17,29.54,7.78,44.3,1.83,10.38,3.65,20.76,5.56,31.13,1.41,7.64,3.06,15.23,4.42,22.87,1.65,9.27,3.1,18.57,4.71,28.28-8.08,2.69-16.37-.43-24.3,2.28-.18,1.73-.73,3.41-.45,4.93,2,10.92,4.25,21.8,6.27,32.71,1.37,7.38,2.43,14.81,3.75,22.19,2.06,11.47,4.24,22.91,6.33,34.37,1.25,6.82,2.44,13.66,3.65,20.49q4.05,23,8.09,46c.19,1.08.18,2.19.29,3.59-5.41,2.44-11,1-16.44,1.27s-10.61.14-15.91,0c-5.54-.11-11.13.52-16.88-.75-2.14-6.11-2.39-12.54-3.63-18.9-3.71-2.17-7.42-1.58-11.62-.69-1,6.38-2.08,12.61-3.19,19.34-5.47,1.8-11,.81-16.5,1s-11.17.17-16.75,0-11.11.79-17-1.08l23.49-131.62a22.34,22.34,0,0,0-4.66-1.47c-2.77-.24-5.57-.12-8.36-.12q-459.24,0-918.46,0c-4.12,0-8.32.51-12.85-.75-.16-2.3-.3-4.42-.46-6.87,1.84-.53,3.36-1.27,4.92-1.35,3.9-.21,7.81-.14,11.72-.14h928.84ZM1126,593.68a19,19,0,0,1-.38-4c.68-5.8,1.48-11.58,2.29-17.36.88-6.32,1.89-12.63,2.71-19s1.45-12.7,2.2-19c.56-4.69,1.12-9.38,1.79-14.06.94-6.58,2-13.14,3-19.72,1.05-7.43,2-14.88,3-22.31.42-3,1.09-6-.4-8.7-6.44-1.37-6.44-1.37-11.55.4a22.7,22.7,0,0,0-.67,2.28q-3.45,18.46-6.85,36.94c-2.47,13.4-5,26.78-7.38,40.19-2.57,14.49-5,29-7.52,43.5-1.94,10.92-4.09,21.8-6,32.73-.21,1.19.45,2.54.73,3.93,6.47.76,12.49,1.31,18.5-.38.86-3.19,1.78-6.11,2.39-9.09a49.08,49.08,0,0,0,.43-5.83c.37-4.28,1.28-5.41,5.67-5.47,9.48-.13,19,0,28.45.12a11.42,11.42,0,0,1,3.18,1.06c1.76,6.53,1.48,13.37,4.43,19.66,6.19.73,12.16,1.09,18.88-.58-.93-11.06-3.65-21.51-5.28-32.11s-3.88-21.28-5.83-31.91-3.94-21.29-5.82-32-3.52-21.37-5.55-32-3.49-21.32-6.34-31.41c-3.11-1.62-5.92-1.24-8.67-1-2.59.19-4.3,2.13-3.48,4.57,1.55,4.59,1.36,9.31,1.9,14,1.54,13.25,3,26.51,5.15,39.67.85,5.24,1.23,10.48,1.89,15.71q1.44,11.58,3.06,23.14c1,6.87,2,13.72,3.07,20.58.41,2.73.94,5.47-.68,7.85C1147.61,595.5,1132.09,595.3,1126,593.68Zm22.89-173.43c-2.69-22.73-5.15-44.69-8.76-66.5,0-.11-.38-.17-1.23-.52-.51,4.48-2.16,8.5-2.33,13s-1.16,9.29-1.76,13.95c-.57,4.4-1.09,8.81-1.64,13.21-.57,4.68-1.46,9.35-1.64,14-.17,4.29-3.58,8.43-.55,13.18A35,35,0,0,0,1148.89,420.25Z"/><path class="cls-1" d="M79.17,188.41v-8.64a35,35,0,0,1,5.07-1c4.74-.21,9.48-.15,14.22-.36,5.57-.24,11.12-.74,16.69-1,8.08-.31,16.17-.38,24.25-.72,5.56-.23,11.12-.75,16.67-1.13,4.17-.28,8.34-.65,12.51-.82,10-.41,20.08-.71,30.11-1.09q29.69-1.11,59.37-2.28c3.34-.13,6.76.12,10-.47,9.69-1.74,19.45-1.5,29.21-1.63,5.57-.08,11.15-.39,16.71-.8a77.87,77.87,0,0,0,7.83-1.31c1.71-3.51,1.26-6.45.54-9.75-4.37-1.66-8.86-1.13-13.22-1.37-39.59-2.21-79.23-.88-118.84-1.44-27.06-.38-54.11-1.1-81.18-1.45-20.64-.26-41.3-.17-61.95-.24H38.43c-2.85-2.73-2.23-5.48-1.71-8.82,3.67-.45,7.45-1,11.24-1.38,3.6-.38,7.21-.8,10.83-.9,5.3-.16,10.6.06,15.9-.1,5-.15,10-.57,15-.9,2-.13,3.89-.45,5.84-.52,19.23-.71,38.46-1.33,57.69-2.12,7-.28,13.9-1.06,20.86-1.36,6.41-.28,12.84-.19,19.25-.29a45.87,45.87,0,0,0,7.52-.25c10-1.79,20-1.27,30.06-1.47,5-.1,10-.59,15-.87q9.6-.56,19.21-1.05c6.12-.3,12.25-.6,18.39-.82,9.48-.33,19-.52,28.44-.93a51,51,0,0,0,9-1.29c.66-.15,1.48-1.81,1.35-2.63s-1.32-1.51-2.17-2.09a3.29,3.29,0,0,0-1.63-.22c-1.12,0-2.23,0-3.35-.06-35.43-.51-70.86-1.18-106.3-1.48-31.53-.27-63.07,0-94.6-.25-19.8-.17-39.6-1-59.39-1.38-14.79-.27-29.58-.25-44.37-.36-3,0-6.07,0-9.12,0-1.9-3-1.6-5.68-.95-8.74,1.6-.25,3.2-.63,4.81-.72,8.36-.44,16.71-.9,25.07-1.17,8.65-.28,17.3-.27,25.94-.56,5.57-.19,11.12-.79,16.69-1q10.44-.43,20.9-.58c9.49-.11,19,.31,28.38-1.5a20.61,20.61,0,0,1,3.34-.26q32.63-.88,65.24-1.76c4.46-.13,8.91-.53,13.37-.71,8.36-.35,16.72-.75,25.09-.92s16.71.08,25-1.31c4.36-.73,8.9-.47,13.36-.52,11.71-.12,23.42.13,35.1-1.29,6.06-.74,12.24-.45,18.71-.63l3.07-4.85c6.48,6,12.61,12,19.13,17.56,6.79,5.78,13.89,11.18,21,16.6,6.78,5.2,14,9.78,21.41,15.54-2,1.12-3.14,1.83-4.34,2.41-20.22,9.66-34.27,25.45-44.56,44.93A162.77,162.77,0,0,0,323,228.46a15,15,0,0,1-1.31,2.63c-1.44.12-3.05.35-4.65.35-13.39,0-26.75-.15-40.13-1.17-13.06-1-26.22-.43-39.33-.87-28.44-1-56.87-2.15-85.3-3.13-8.65-.29-17.3-.14-25.95-.27-3-.05-6.16.48-9.46-1.34A9.26,9.26,0,0,1,116,222c-.16-4.6.61-5.65,4.84-6.07,4.72-.47,9.46-.75,14.2-.92,9.47-.35,19-.56,28.44-.84q14.64-.42,29.28-.88c3.06-.09,6.12-.31,9.19-.46,11.42-.53,22.84-1,34.26-1.61,6.4-.32,12.8-.78,19.19-1.18,2.51-.16,5-.44,7.51-.46,14.22-.11,28.46.35,42.63-1.53,3.3-.44,6.7-.05,10-.22a53.06,53.06,0,0,0,5.67-.87,42.21,42.21,0,0,0,.59-13.08,35.2,35.2,0,0,0-5.07-.68c-23.17.47-46.3-.9-69.45-1.54-6.41-.18-12.84-.15-19.25-.18-20.37-.08-40.71-.3-61.07-1.3-24-1.17-48-.62-72-.91C90.06,189.19,85.08,188.73,79.17,188.41ZM315.8,141.83c-2.95-.6-4.27-1.11-5.58-1.09-6.67.08-13.34.21-20,.48-6.11.25-12.21.81-18.32,1s-12.23.13-18.35.27c-1.22,0-2.83,0-2.56,2.4,1.33.13,2.68.36,4,.38q25.46.5,50.9.91a24.23,24.23,0,0,0,6.6-.55C313.52,145.39,314.17,143.82,315.8,141.83Zm3.37-31.67a17.63,17.63,0,0,0-3.55-.66q-28.38,1-56.74,2.18a24.67,24.67,0,0,0-3.92.94c2.88,2.63,5.67,2.35,8.31,2.38q24.24.24,48.47.4a32,32,0,0,0,5-.21C319.15,114.82,319.88,113.21,319.17,110.16ZM267.55,182a15.19,15.19,0,0,0,2.88,1q19.56.3,39.12.54a3,3,0,0,0,1.62-.23c.82-.6,2-1.37,2.07-2.14s-1-1.81-1.78-2.36a4.57,4.57,0,0,0-2.43-.31c-7.77.09-15.55,0-23.31.39-5,.23-9.93,1-14.89,1.69C270.1,180.71,269.42,181.21,267.55,182ZM291,220.44a63.05,63.05,0,0,0,19,1.34c1.37-.08,3-.57,2.66-2.31a3.21,3.21,0,0,0-2.36-1.79A40.47,40.47,0,0,0,291,220.44Z"/><path class="cls-1" d="M251.24,375.47c2.44,1.69,3.74,2.62,5.07,3.51,5.26,3.48,8,8.23,8,14.68-.07,19.8.1,39.61-.13,59.41a34.51,34.51,0,0,1-2.33,11.35c-2.78,7.53-9,11.18-16.52,12.49a76.79,76.79,0,0,1-12.5.95q-31.8.13-63.6,0c-2.44,0-4.89-.35-7.33-.54-1.58-3.34-1-6.44-1-9.43q-.08-36.82,0-73.65,0-53.55,0-107.12c0-3.29.15-6.59.24-10.28a55.86,55.86,0,0,1,6.11-.73c24.55-.05,49.1.22,73.65-.14,12.83-.19,21.63,10.09,21.7,21.56.12,20.08.19,40.17-.06,60.25-.08,6.56-2.09,12.64-8.4,16.24C253.39,374.44,252.65,374.77,251.24,375.47ZM201,311.14c-.44,1.14-1.16,2.15-1.17,3.18q-.15,23-.08,46c0,1.31.67,2.62,1.18,4.45a150,150,0,0,0,18.36.07c2.86-.14,4.55-2.12,5.18-4.73a24.36,24.36,0,0,0,.46-5.8q.06-16.73,0-33.45a39.75,39.75,0,0,0-.18-5c-.4-3.22-2.15-5.21-5.43-5.32C213.25,310.3,207.12,309.59,201,311.14Zm-.37,131.73c6.93,1.26,13.57.65,20.18.5,2.68-.06,3.82-1.46,4.13-4.28a38.47,38.47,0,0,0,.15-4.16q0-15.4,0-30.81c0-1.39,0-2.78-.14-4.16-.23-2.52-1.66-4.37-4.13-4.49-6.07-.3-12.16-.35-18.23-.17-.92,0-2,1.65-2.62,2.77a7.48,7.48,0,0,0-.36,3.27c0,11.94,0,23.87.05,35.81A35.77,35.77,0,0,0,200.61,442.87Z"/><path class="cls-1" d="M1210,477.25c-1-9.17-.92-193.34.12-200.49a61.74,61.74,0,0,1,6.25-.64c24.55,0,49.1.2,73.64-.12,11.92-.15,21,7.08,22.56,20.87a44.15,44.15,0,0,1,.08,5q0,72.8.08,145.61a53.87,53.87,0,0,1-1.92,14c-2.37,9-8.64,14.08-17.76,15.46a81.45,81.45,0,0,1-11.67.9q-32.22.12-64.44,0C1214.74,477.87,1212.57,477.5,1210,477.25ZM1250.9,311.1c-2.57,3.17-1.77,6.66-1.77,9.91q-.09,56.08,0,112.16a40,40,0,0,0,.09,5,45.4,45.4,0,0,0,1.29,5.1,163.9,163.9,0,0,0,17.7.18c3.44-.11,5-1.72,5.28-5.24.2-2.22.14-4.46.14-6.7q0-54.4,0-108.81c0-2,.07-3.91-.07-5.85-.28-3.73-2-6.11-5.43-6.29C1262.31,310.27,1256.45,309.53,1250.9,311.1Z"/><path class="cls-1" d="M930.83,413.09c.22,2.48.06,4.17.54,5.65,5.32,16.39,10.79,32.73,16.08,49.13.89,2.79,2.68,5.56,1.74,8.53-.75.53-1.19,1.09-1.64,1.1q-15,.25-30.08.38c-2.19,0-4.39-.29-6.7-.46-3-5-4-10.54-5.67-15.76-4.29-13.53-8.27-27.15-12.39-40.73a41.65,41.65,0,0,0-1.9-5.51,3.85,3.85,0,0,0-4.1-2.26c-2.09.19-2.81,1.63-2.92,3.42-.13,2.23-.12,4.46-.12,6.69,0,15.06,0,30.11,0,45.17,0,2.72.64,5.57-1.24,8.56-3.68,1.61-7.9.74-12,.88s-8.37.13-12.55,0-8.31.69-12.67-1.1c-.21-2-.56-3.86-.6-5.74-1.21-52.31-.56-185.79,1-194.42a40.11,40.11,0,0,1,4.59-.49c24.54,0,49.07-.07,73.61.05a43.3,43.3,0,0,1,9,1.43c5.9,1.3,9.86,5.13,12.22,10.46a31.07,31.07,0,0,1,3.08,12.86q-.17,46.85,0,93.68A22.17,22.17,0,0,1,945,405.7C942.18,410.77,937.48,412.92,930.83,413.09ZM884.39,381c7.16,1.46,13.52.93,19.87.62a4,4,0,0,0,.81-.2c2.63-.71,3.79-1.95,4.06-4.6a49.23,49.23,0,0,0,.16-5q0-25.46,0-50.93c0-1.39,0-2.78-.07-4.17-.31-4.34-1.74-6-6.16-6.25-4.71-.26-9.46-.18-14.18,0-1.55.06-3.06.88-4.4,1.3-1.13,7.36-1.52,38.19-.81,62.95C883.74,376.6,884.1,378.49,884.39,381Z"/><path class="cls-1" d="M966.67,375.58c0-24.82.05-49.64,0-74.46a29.18,29.18,0,0,1,3.24-13.62c4-7.85,10.86-10.79,19.08-11.35,3.89-.26,7.81-.06,11.71-.06,15.62,0,31.23,0,46.85,0,7.08,0,13,2.4,17.74,7.77a18,18,0,0,1,4.83,10.43c.39,4.43,1,8.88,1,13.32q.1,68.61,0,137.21a109.19,109.19,0,0,1-1,12.49c-1.22,10.48-8.2,17.95-18.59,19.72a66.42,66.42,0,0,1-10.82.84q-21.75.13-43.51,0c-3,0-6.11-.37-9.16-.6-9.92-.76-19.71-7.95-21.28-23a57.25,57.25,0,0,1-.06-5.86V375.58Zm41.85,67.13a5.42,5.42,0,0,0,1.58.6c3.34.13,6.68.24,10,.24,11,0,11.14-.1,11.14-11.21q0-54.75,0-109.49c0-10.81.33-12.83-12.74-12.61-9,.15-12.11-.8-12,11.74.21,21.17.06,42.34.06,63.52q0,23.82,0,47.64C1006.63,436.45,1006.26,439.86,1008.52,442.71Z"/><path class="cls-1" d="M825.76,376.31q0,37.23,0,74.44c0,6-.95,11.57-4.43,16.65a21.92,21.92,0,0,1-15,9.65,62.89,62.89,0,0,1-10,.82q-22.59.12-45.17,0a66.93,66.93,0,0,1-9.15-.75c-9.09-1.3-18.52-7.68-19.75-20.57-.45-4.71-.83-9.44-.84-14.17q-.11-65.24,0-130.47c0-5.29.38-10.58.76-15.85.77-10.57,9.51-19.77,21.94-19.9,19.79-.2,39.6-.45,59.38.07,14.45.37,20.65,9.21,22.16,21.47a55.24,55.24,0,0,1,.08,6.69q0,36,0,71.92Zm-41.91,66.62c2.16-3,1.47-6.15,1.47-9.15q.07-56.5,0-113a51.82,51.82,0,0,0-.2-5.85,4.49,4.49,0,0,0-4.3-4.35,91,91,0,0,0-9.2-.24c-9.57.07-10.11.54-10.11,9.83q0,56.93,0,113.85c0,1.67,0,3.36.13,5,.28,2.89,1.39,4.27,4.08,4.34C771.82,443.53,777.94,444.15,783.85,442.93Z"/><path class="cls-1" d="M538.06,476.8a12.14,12.14,0,0,1-3.12.92q-15.9.11-31.8,0a11.08,11.08,0,0,1-3-.86c-1-6.42-1.31-188.87-.3-199.75a20.85,20.85,0,0,1,4.48-1c10-.08,20.08,0,30.13,0a22.75,22.75,0,0,1,3.15.46c2.19,2.89,1.48,6.06,1.49,9,.07,22.32,0,44.63,0,66.95,0,2.51.14,5,.35,7.51a2.91,2.91,0,0,0,2.64,2.78c1.71.25,3.46.08,4.29-1.73a24.89,24.89,0,0,0,1.55-4.7q8.63-36.06,17.22-72.12c.64-2.65,1.69-5.2,2.67-8.16,13.19-.17,26-.11,39.3-.05a42.07,42.07,0,0,1-.57,4.43q-6.66,26.24-13.38,52.47c-2.76,10.76-5.49,21.52-8.36,32.25a14.44,14.44,0,0,0-.15,7.33q6.36,27.6,12.32,55.28c3.34,15.45,6.5,30.94,9.7,46.43a10.61,10.61,0,0,1,0,2.25c-.61.42-1,1-1.5,1q-16.74.23-33.46.31c-2.2,0-4.4-.29-7.07-.47-.52-2.29-1.06-4.39-1.49-6.52q-5.78-29-11.5-58c-.9-4.62-1.44-9.31-2.3-13.94-.58-3.15-2.21-4.62-4.89-4.86-3-.27-4.9,1.1-5.19,4.06-.22,2.21-.16,4.45-.17,6.68,0,20.93,0,41.85-.08,62.77C539.09,470.6,539.53,473.7,538.06,476.8Z"/><path class="cls-1" d="M346.62,454a13.81,13.81,0,0,0-3.32-.92c-7-.1-13.94-.17-20.91,0-4.1.07-5.21,1.3-5.77,5.6-.71,5.51-1.36,11-2.07,16.52a5.9,5.9,0,0,1-.65,1.52c-6,1.58-30.29,1.79-38.42.25a58.46,58.46,0,0,1,1.29-12.17c3.3-18,6.47-36.09,9.79-54.12,2.65-14.45,5.48-28.87,8.15-43.31,1.91-10.36,3.67-20.75,5.5-31.13q3-17.19,6-34.4c.91-5.19,1.66-10.42,2.68-15.59.64-3.22,1.66-6.36,2.44-9.29,7.83-1.12,34.56-1.09,41.69,0a44.2,44.2,0,0,1,1.64,5.32q4.2,22.9,8.25,45.83c2.54,14.23,5,28.47,7.63,42.68,2.21,12,4.62,24,6.86,36,1.32,7.11,2.43,14.25,3.72,21.36,2.16,12,4.39,24,6.6,36,.6,3.26,1.28,6.51,1.88,9.78.41,2.22-.75,3.62-3.17,3.88a15.68,15.68,0,0,1-1.67.08l-29.28,0a15.65,15.65,0,0,1-1.67-.07c-3.09-.34-4.35-1.6-4.73-4.78s-.72-6.62-1.15-9.92C347.57,460.11,347.08,457.13,346.62,454ZM332.53,353c-2.68,7.66-9.43,56.36-9.43,67.3,5.26,2.18,10.78,1.24,16.22.77,2-.17,3-2,2.61-4.48-.85-5.74-1.85-11.47-2.65-17.22-.84-6-1.53-12.1-2.23-18.16-.76-6.59-1.33-13.2-2.24-19.77C334.45,358.76,333.42,356.18,332.53,353Z"/><path class="cls-1" d="M476.61,276.11c3.53,11.94,4.45,23.58,7.34,35.41-2.29.47-4.07,1.13-5.86,1.15-8.65.13-17.29.06-25.94.13-3,0-6.15-.37-9.51,1.69a47.65,47.65,0,0,0-.8,6.06c-.11,7.8,0,15.61,0,23.42q0,43.5,0,87c0,10.45.36,10.76,10.85,10.8,7.53,0,15.06,0,22.59,0,2.48,0,5,.18,7.4.28.5,6.14-3.47,27.28-6.68,35.46-2.49.11-5.23.35-8,.35-11.44,0-22.87.09-34.3,0a98.68,98.68,0,0,1-12.51-.83c-12.13-1.67-17.88-9.06-19.42-19.73a106.13,106.13,0,0,1-.74-15q-.08-68.17,0-136.37a101.17,101.17,0,0,1,.57-11.68c1.11-9.4,9.65-17.85,19.07-18C439,275.88,457.39,276.11,476.61,276.11Z"/><path class="cls-1" d="M641.86,313.74c-9-1.94-17.21,0-25-1.48-.39-6.43,3.76-22.56,9-35.46,7.6-1,66.89-1,74,.19,2.73,10.23,5.55,20.71,8.29,31.21a14.63,14.63,0,0,1,0,3.39c-8.14,3-16.85-.82-24.61,2.54-1.44,3.49-.87,6.88-.87,10.18q-.06,71.18-.05,142.34c0,3.29.55,6.67-1,10.35-6.16,1.7-12.58.82-18.88.85s-12.8.65-19.54-.64a30.44,30.44,0,0,1-1.09-4.68c-.18-2.5-.07-5-.07-7.53q0-70.33,0-140.67C642.06,321,641.94,317.71,641.86,313.74Z"/><path class="cls-1" d="M969.34,55.4c-.22,4.55.54,9-1.18,13.3a12.37,12.37,0,0,0-.62,3.27c-1.18,11.34-2.21,22.68-3.54,34-.81,6.88-2.18,13.69-3.12,20.56-.79,5.79-1.3,11.61-2,17.41q-1.14,10-2.34,19.9a18.47,18.47,0,0,1-.8,3.24c-1.24,3.93-3.5,5.57-7.35,5.39-3.68-.16-6.16-2.06-6.79-6.14a103.12,103.12,0,0,1-1.29-15c-.15-19,0-38-.08-56.92,0-3,.47-6.1-1.08-9.41a34.51,34.51,0,0,0-4.75-.63c-8.37,0-16.73,0-25.1.11-4.74,0-9.49,0-14.22.24s-9.43.74-14.14,1.09c-3.34.25-6.68.39-10,.69-4.15.37-8.28.85-12.42,1.28a31.15,31.15,0,0,1-3.32.35c-11.75,0-23.25,2.3-34.79,4-14.56,2.13-29,5-43.46,8-28.88,6-57.3,13.71-84.78,24.58-1.53.6-3.13,1-5.17,1.66-1.15-2-2.3-3.81-3.26-5.72s-1.81-4-2.58-5.82c.64-3,3-3.53,4.92-4.53A440.53,440.53,0,0,1,746,84.55,451.13,451.13,0,0,1,802.14,69c14.91-3.11,29.93-5.78,45.08-7.86,11.84-1.63,23.76-2.52,35.57-4.35,2.74-.42,5.57-.25,8.34-.47,3.61-.28,7.2-.67,10.8-1,1.93-.19,3.87-.58,5.81-.63,17.28-.42,34.57-.83,51.85-1.13C962.6,53.5,965.76,52.92,969.34,55.4Z"/><path class="cls-1" d="M1210.75,149.49A51.79,51.79,0,0,0,1200,138.41c-27.33-22.15-57.94-38.36-90.86-50.53-14.9-5.5-30.2-9.43-45.6-13-5.38-1.25-11-1.47-16.47-2.23-4.12-.58-8.22-1.27-12.41-1.92-1.58-2.87-1.17-5.46,0-8.53,7.38-1.13,14.82-.64,22.26,0,3.6.3,7.2.63,10.79,1,5.53.59,11.13.87,16.58,1.91,11.43,2.2,22.86,4.47,34.14,7.33,21.66,5.49,42.24,13.86,62.2,23.9a337.66,337.66,0,0,1,72.49,49c7.29,6.46,14.33,13.22,21.45,19.88,1.17,1.09,2.16,2.36,3.07,3.37-.29.75-.32,1.07-.5,1.24a1.21,1.21,0,0,1-.78.27q-140.57.12-281.14.21h-8c-2.77-3.18-1.94-6.05-1.17-9.49,6.57-.85,12.86-1.79,19.26-1.82,9.76-.05,19.5,0,29.23-1.19,5.79-.69,11.7-.44,17.56-.49a160.6,160.6,0,0,0,21.67-1.24c5.76-.82,11.69-.39,17.54-.44,8.09-.07,16.16.09,24.19-1.37,3.26-.59,6.67-.33,10-.46l29.24-1.19c3.07-.13,6.13-.34,9.19-.46,14.2-.58,28.4-1.13,42.6-1.73A29.92,29.92,0,0,0,1210.75,149.49Z"/><path class="cls-1" d="M1445.4,415.42a29.62,29.62,0,0,1-.45,4.6c-.64,2.39-1.52,4.71-2.27,7-2.61,1.51-5,.88-7.39.07-32.94-10.85-55.06-32.76-66.54-65.37a88.76,88.76,0,0,1-5.43-33.62c1.87-40.17,20.06-70.67,55.5-90.13,11.24-6.17,23.61-9.34,36.56-10.67,23.6-2.42,45.36,2.37,65.38,14.91a104.92,104.92,0,0,1,33.71,34.23c1.29,2.08,3,4.11,2.57,7.46-2.6,2.88-6.66,3.87-10.4,6a31.44,31.44,0,0,1-3.17-3.15c-14-19.15-32.94-30.88-56.24-34.31-15.25-2.25-30.66-.8-45,5.62-25.71,11.51-42.41,30.71-49.48,58.27-1.85,7.19-1.56,14.31-1.83,21.51-.69,18,5.33,34,15.76,48.26a82.18,82.18,0,0,0,33.42,27.06Z"/><path class="cls-1" d="M1428.31,444.61c-26.76-5.25-48.3-19.3-65.7-39.64a119.51,119.51,0,0,1-29.26-76.48c-1.58-65,43.09-113.79,97.91-125.77,31.16-6.8,60.84-2.31,88.7,13.36,22.23,12.51,42.37,34.33,48.8,52.55-8.2-8.78-14.06-17.84-22.54-24.56a136.83,136.83,0,0,0-26.7-17.09,110.24,110.24,0,0,0-31-9.65c-10.48-1.54-20.88-2.82-31.51-1s-21.34,3.78-31.47,8A128,128,0,0,0,1398,239.94a103.62,103.62,0,0,0-22.82,23.12,203.79,203.79,0,0,0-12.51,20.69,82.56,82.56,0,0,0-7.88,22.8,247.38,247.38,0,0,0-3.46,24.74c-.84,8.12,1.08,16.1,2.28,24a93.27,93.27,0,0,0,6.83,23.13A123.47,123.47,0,0,0,1372,399.78c4.78,6.93,10.49,13,16.4,19a98.33,98.33,0,0,0,19,15C1414.09,437.77,1421.31,441,1428.31,444.61Z"/><path class="cls-1" d="M1646,599.76c3.49,12.4,8.24,24.24,11.64,36.93-8.2,1.32-15.62.76-23.54.45-1-2.58-2-5.08-2.78-7.66-2.35-7.71-4.58-15.44-6.9-23.16a45.45,45.45,0,0,0-2.2-6.29c-.37-.77-1.82-1.73-2.41-1.53a3.56,3.56,0,0,0-1.76,2.46,37.84,37.84,0,0,0-.24,5.84c0,7,0,13.94,0,20.91,0,2.75-.16,5.5-.26,8.74-7.5,1.71-14.58,1-21.66.6-2-3.1-1.24-6.25-1.25-9.21q-.11-39.32,0-78.62,0-12.54,0-25.09v-7.82c1.92-.48,3.45-1.18,5-1.19q21.33-.14,42.65-.06c8.44,0,14.07,5.9,14,14.28q-.09,28.44,0,56.87c0,5.68-2.24,9.63-7.77,11.47a6.3,6.3,0,0,0-1.43.8A10.18,10.18,0,0,0,1646,599.76Zm-27.08-21c4.58.74,8.89,1.54,12.94-.62a10.24,10.24,0,0,0,.9-2.69c.09-11.69.17-23.37.1-35.06,0-2.88-1.25-4.25-3.9-4.54a47.87,47.87,0,0,0-7.48-.1,3.53,3.53,0,0,0-3.39,3.11,12.29,12.29,0,0,0-.24,2.49c0,11.13,0,22.26.08,33.39A18,18,0,0,0,1619,578.76Z"/><path class="cls-1" d="M1398.26,576c0,14.78,0,29.56,0,44.33,0,2.76.09,5.46-1.28,8.13-1.9,3.68-4.45,6.43-8.47,7.48a36.43,36.43,0,0,1-8.17,1.41c-8.92.17-17.85.13-26.77,0a24.87,24.87,0,0,1-6.55-1.09c-7.25-2.12-10.09-5.65-10.65-13.07-.18-2.5-.2-5-.2-7.52q0-40.16,0-80.31c0-2.51,0-5,.18-7.52.62-8.11,5.21-12.49,13.52-12.8,4.46-.17,8.92-.05,13.39,0,7.25,0,14.51-.24,21.74.1,7.57.36,10.73,4,12.64,9.11.74,2,.59,4.39.59,6.6C1398.28,545.9,1398.26,561,1398.26,576Zm-24.1,39a19.54,19.54,0,0,0,.71-3.8q.09-34.69,0-69.39c0-4.62-1.44-6-6-6.19-3-.14-6.19-.66-8.52,2-.8,5.88-1.32,60.86-.65,73.53a29.66,29.66,0,0,0,.67,3.8C1367.33,616.49,1367.33,616.49,1374.16,615Z"/><path class="cls-1" d="M1201,515.68a93.75,93.75,0,0,1,21.46-.19c2.2,3,1.35,6.2,1.36,9.17.07,26.8,0,53.59.06,80.38,0,3.28-.5,6.67,1,10.07,4.11,1.59,8.18,1,12.35.61,2.09-2.88,1.45-6,1.47-9,.07-16.47,0-32.93,0-49.4,0-10.89,0-21.77,0-32.66,0-2.74.24-5.49.38-8.56,7.52-1.93,14.66-.84,21.31-.91,2.63,2.51,1.89,5.17,1.9,7.58.06,18.7,0,37.4,0,56.1q0,19.25,0,38.51c0,2.23,0,4.47-.12,6.7-.3,6-3.47,9.95-9.11,11.63a38.74,38.74,0,0,1-9.84,1.64c-7.81.24-15.63.21-23.44,0a41.54,41.54,0,0,1-9.06-1.31c-6.17-1.55-9.42-5.44-10.14-11.76a44.12,44.12,0,0,1-.12-5q0-47.71,0-95.45C1200.59,521.38,1200.84,518.91,1201,515.68Z"/><path class="cls-1" d="M1475.65,605.65c-1.1,10.74.24,20.77-.86,30.46a49.74,49.74,0,0,1-22.33.16c-.21-1.7-.59-3.57-.65-5.44-1-34.57-.45-107.12,1-115a19.36,19.36,0,0,1,3.74-.73q22.18-.09,44.37-.06a17.51,17.51,0,0,1,2.51.12,11.58,11.58,0,0,1,10.19,10.49,95.74,95.74,0,0,1,.46,10q.06,23.45,0,46.89c0,3.34-.3,6.68-.43,10-.21,5.07-3,8.22-7.5,10.07a24.51,24.51,0,0,1-10.52,2.28c-4.46-.2-8.93-.1-13.4,0C1480.29,605,1478.39,605.35,1475.65,605.65ZM1476,537a16.16,16.16,0,0,0-.7,3.26q0,20.51.12,41a8.94,8.94,0,0,0,.91,2.56,27,27,0,0,0,14.15,0,34.77,34.77,0,0,0,1-5.68c.1-11.72.07-23.44.06-35.16,0-1.11-.11-2.23-.22-3.34a3.67,3.67,0,0,0-3-3.58C1484.2,535.39,1480,534.7,1476,537Z"/><path class="cls-1" d="M1563.45,515.33c.8,1,1.36,1.43,1.45,1.92q10.75,59.36,21.44,118.69c-5.5,1.89-13.62,2.09-22.41.65-3.41-3.77-1.61-9.07-3.6-13.57-5.21-1.46-10.44-.86-15.59-.59-4.17,4-2.31,9.74-4.65,14.34-7.16,1.33-14.29.56-22,.42-.11-2.78-.6-5-.23-7,2.6-14.18,5.47-28.31,8.07-42.48s5-28.48,7.55-42.71c1.36-7.67,2.7-15.34,4.17-23a64.57,64.57,0,0,1,2-6.43C1547.94,514.59,1555.93,515,1563.45,515.33Zm-16.54,87.91c4.1.64,7.06,1,10.31-.39a19.69,19.69,0,0,0,.39-4.07c-1-8.78-2.17-17.55-3.28-26.32-.38-3-.72-3.63-3.63-6.87C1549.53,578.18,1545.81,590.18,1546.91,603.24Z"/><path class="cls-1" d="M1753.66,280c-2,3.42-4.53,5.9-6.93,8.52a124.44,124.44,0,0,0-19.94,29.71,69.6,69.6,0,0,0-7.13,25.52,42.22,42.22,0,0,0,8.68,28.92c7.57,10.05,17.51,17.06,28.84,22.15,5.81,2.61,11.88,4.64,17.81,7a10.75,10.75,0,0,1,2,1.46c-8.79,1.5-86.42,1.57-95.74.14a40.52,40.52,0,0,1-.55-17.91,50.5,50.5,0,0,0,1.06-6.57c1.61-21.6,6.86-42.21,17.23-61.3,6.32-11.64,14.78-21.52,26.09-28.79,7.89-5.06,16.68-7.45,25.68-9.32C1751.5,279.38,1752.33,279.77,1753.66,280Z"/><path class="cls-1" d="M1781.4,536c-9.21,1.79-18.47-.23-27.83,1.28-.45,1.3-1.25,2.55-1.27,3.82-.15,7.75-1,15.54.68,23.68a28.11,28.11,0,0,0,4.78,1.09c3.62.18,7.26,0,10.88.13a45.31,45.31,0,0,1,5.83.39c5,.77,7.9,3.91,8.75,8.83a35.32,35.32,0,0,1,.34,5.83c0,12,.13,24,0,36-.06,3.57-.92,7.14-1.49,10.69-.7,4.39-3.68,6.83-7.62,8a34.88,34.88,0,0,1-9,1.59c-8.65.21-17.3.09-26,0a31.26,31.26,0,0,1-4.31-.67c-1.29-6.88-3.74-13.36-3.42-20.72,9.27-2,18.64.7,27.13-1.79,2.09-2.65,1.5-5.25,1.54-7.7.09-4.74.11-9.49,0-14.23-.15-5.69-1.14-6.62-7-6.8a101.65,101.65,0,0,0-11.71,0c-8.24.68-12.95-5.27-12.75-12.94.2-7.25,0-14.51,0-21.77,0-6.42-.06-12.83,0-19.25a29.19,29.19,0,0,1,.77-6.6c1.48-5.8,5.64-8.73,11.31-9.75,3.23-.58,32.54,0,37,.66a10.5,10.5,0,0,1,1.46,2.73c.92,4.34,1.75,8.71,2.41,13.09A18.19,18.19,0,0,1,1781.4,536Z"/><path class="cls-1" d="M1721,536.2l-14.24,1c-2.38,3-1.62,6.18-1.62,9.16-.07,24.23,0,48.47,0,72.7,0,4.18,0,8.36-.07,12.54a50.15,50.15,0,0,1-.66,5.19,81.62,81.62,0,0,1-21.68.14c-2-3-1.46-6.13-1.47-9.1,0-18.39,0-36.77,0-55.16,0-8.91,0-17.83,0-26.74,0-2.74.47-5.61-1.7-8.7l-13.76-.85c.7-7.26,3-13.73,5-20.06,6.29-1.53,31.5-1.91,44-.7C1718.7,521.51,1719.27,528.64,1721,536.2Z"/><path class="cls-1" d="M1286.87,537.17l-15.52-.79c.73-7.42,3.54-13.74,5.13-20.09,6.53-1.53,32.1-1.87,43.76-.71,3.34,4.86,5.82,13.75,5.6,20.66l-13.76,1c-1.51,3.32-1,6.42-1,9.41q-.06,40.11,0,80.23c0,3-.11,6.06-.17,8.9-5.78,2-11.87,2.22-22.27.92a26.49,26.49,0,0,1-1.18-5.2c-.17-5-.05-10-.05-15q0-34.26,0-68.53C1287.34,544.67,1287.07,541.38,1286.87,537.17Z"/><path class="cls-1" d="M1634.65,199.47c4.38-.2,8.75-.44,13.13-.59,24.73-.82,47.27,5.62,67.29,20.36a112.47,112.47,0,0,1,26.31,27.7c1.73,2.54,3.28,5.09,6.09,6.69s3.91,4.59,5.11,8.1c-2.65-.36-3.66-2.47-5.16-3.67a102.3,102.3,0,0,0-40.26-19.31c-12.13-2.94-24.36-5.39-37-5.54-3.84,0-7.67-1.15-11.88-1.83-6.36-11.45-15.47-20.8-24.6-30.14Z"/><path class="cls-1" d="M495.31,532c3.32-1.63,6.22-1.17,9.59-.25,1.3,9,.53,17.92.61,26.74.08,8.6.41,17.22-.3,25.82-2.76,2.08-5.43,1.63-8.45.86-2.29-6.06-.06-12.6-1.42-18.8-2-.83-2.28.85-2.75,2-1.26,3-2.43,6.12-3.95,10-3.83-4.6-3.23-10.43-6.89-15-1.61,2.51-1.13,4.73-1.19,6.78-.09,2.51,0,5,0,7.53-.05,2.2-.22,4.4-.34,6.78-2.68,1.83-5.3,1.56-7.95.6-1.52-5.73-2-37.07-.78-52.58,2.84-2.55,6.14-1.45,9.31-1.22,4.6,5.91,2.43,14.24,8,20.47C492.17,545.23,492.35,538.39,495.31,532Z"/><path class="cls-1" d="M396.68,531.38c2.49-.18,4.12-.39,5.75-.39,2.59,0,4,1.43,4.65,3.9,1.08,3.91,1.67,8,4.41,12.53.76-1.7,1.37-2.51,1.46-3.37.46-4.06-.65-8.29,1.24-12.31,2.86-1.06,5.47-1.3,8.6.53.82,5.54.28,11.35.37,17.11s0,11.68,0,17.52-.09,11.61-.13,17.53c-3.52,1.91-6.64,1.63-10.25.6L408,568.72c-2.05-.24-2.29.8-2.33,1.93-.18,4.67-.32,9.34-.47,13.9a8.25,8.25,0,0,1-7.54.57c-.39-.51-.92-.91-1-1.38a43,43,0,0,1-.55-5.77q-.08-19.59,0-39.2C396.1,536.59,396.43,534.42,396.68,531.38Z"/><path class="cls-1" d="M859.1,584.84a12.86,12.86,0,0,1-.76-3.05q0-23.82.16-47.64a8.55,8.55,0,0,1,1.08-2.57c6.79-1.33,13.72-.89,20.58-.33a7.06,7.06,0,0,1,6.56,6.65,235,235,0,0,1,0,25c-.13,2.41-2.5,4.71-4.45,8.13-.11,4,4,8.46,3.39,14.3h-8.86c-1.8-4.89-3.65-10-5.92-16.13-1.12,1.85-2,2.64-2,3.5-.25,2.48-.1,5-.3,7.5a39.29,39.29,0,0,1-.85,4.63A9.86,9.86,0,0,1,859.1,584.84ZM875.61,541c-5.33-.65-6.61-.14-6.74,2.93-.17,4.44-.1,8.91.15,13.35.1,1.85,1.56,2.83,3.49,2.88s3.32-1,3.44-2.85A74.79,74.79,0,0,0,875.61,541Z"/><path class="cls-1" d="M714.73,531.56c7.1-1.13,13.5-.84,19.85-.43,4.66.3,7.23,2.92,7.38,7.55.27,8.07.1,16.15,0,24.23,0,3.11-2.22,4.94-4.7,6.81l4.35,14.94a12.06,12.06,0,0,1-9.54.39c-2.47-4.48-2.56-10.07-6.35-14.87-2,5.08-.12,9.93-1.74,14.62-2.82,1.46-5.75,1.14-9,.37a10.86,10.86,0,0,1-1-3q-.1-23.4,0-46.8A23.16,23.16,0,0,1,714.73,531.56ZM725.5,541c-1.45,5.33-.72,10.85-.57,16.33a2.75,2.75,0,0,0,2.55,2.78c1.8.26,3.56-.76,3.64-2.54.2-4.69.3-9.4.13-14.09C731.15,540.83,730,540.42,725.5,541Z"/><path class="cls-1" d="M261.49,570.68c-.28,4.48-.56,9.13-.84,13.8-2.87,1.83-5.5,1.53-8.48.48-1.53-5.66-.62-11.51-.75-17.29-.14-6.13-.1-12.27,0-18.4.09-5.77-.47-11.59.47-17.61,7.33-1.32,14.26-1,21.12-.35,3.73.36,6,3,6.15,6.88.29,8.07.44,16.17,0,24.22-.17,2.74-2.42,5.35-4.13,8.86,1.07,3.82,2.41,8.58,3.73,13.28-3,1.91-5.68,1.36-8.64.78-3.17-3.66-3.54-8.53-5.1-12.9C264.44,570.94,263.64,570,261.49,570.68Zm6.71-29.55c-6.14-.92-6.84-.51-7.06,4-.13,2.5-.09,5-.05,7.52a34.57,34.57,0,0,0,.32,5c.32,2,1.83,2.6,3.67,2.62,2,0,3.38-.86,3.47-2.75C268.83,552,269.26,546.44,268.2,541.13Z"/><path class="cls-1" d="M818.93,558.82c0,6.67.12,13.33,0,20-.12,5.05-1.54,6.67-6.34,6.9-5,.24-10,0-15,0-3.25,0-5.17-1.84-5.82-4.9a28.63,28.63,0,0,1-.64-5.76c-.06-10.82.11-21.66-.07-32.48-.17-9.61,3.61-12.17,11.92-11.65,3,.19,6.14-.16,9.15.2,4.84.58,6.7,2.76,6.8,7.74.12,6.67,0,13.33,0,20Zm-16-18c-1.62,6.48-1.61,29.54,0,36,4.55.28,5.61-.18,5.68-3.56q.26-14.52,0-29C808.59,541,807.44,540.48,803,540.87Z"/><path class="cls-1" d="M680.39,558.23c0-6.4-.09-12.8,0-19.2.09-4.79,2.2-7.47,6.77-7.88a82.67,82.67,0,0,1,14.16,0c4.52.37,6.85,3.06,6.91,7.86.16,13.08.2,26.15,0,39.22-.09,5.71-1.9,7.33-7.69,7.57a126.35,126.35,0,0,1-14.17-.16c-4.25-.32-5.85-2.14-5.94-6.52-.16-7-.05-13.91-.05-20.86ZM691.89,541a4.68,4.68,0,0,0-.54,1c-1.75,10.73-.89,21.51-.51,32.27.1,2.88,1.66,3.28,6.31,2.24,1.43-6.92,1.41-28.77-.07-35.51a7.21,7.21,0,0,0-2.26-.64A14.83,14.83,0,0,0,691.89,541Z"/><path class="cls-1" d="M577.81,558c0-6.41-.09-12.81,0-19.22.08-4.71,1.79-7.17,6-7.52a90.4,90.4,0,0,1,15,0c3.86.32,5.48,2.64,5.85,6.87.15,1.66.14,3.33.14,5q0,15.88,0,31.75a47.13,47.13,0,0,1-.29,5.83c-.42,3.32-1.49,4.71-4.66,4.84-5.82.24-11.68.23-17.5,0-3.19-.15-4.22-1.61-4.48-4.94-.14-1.67-.09-3.34-.1-5,0-5.85,0-11.7,0-17.55ZM594,540.78c-5.58-.35-6.34,0-6.46,4-.18,5.83-.12,11.66-.11,17.49,0,3.89,0,7.78.18,11.66.13,2.57,1.3,3.34,4.64,3.35.7,0,1.4-.66,2-1C595.3,568.24,595.2,548,594,540.78Z"/><path class="cls-1" d="M357.2,566.16c-.21,6.34-.42,12.39-.63,18.51a9.22,9.22,0,0,1-8.27.31c-.33-.61-.81-1.09-.82-1.58q-.19-22.57-.28-45.15c0-1.92.24-3.84.36-5.6,2.63-2.43,5.29-1.86,8.48-.94a43.06,43.06,0,0,1,.8,5.45c.14,4.45,0,8.92.12,13.38.1,3.14,1.24,4.34,3.77,4.46s3.95-1.14,4.06-4.13c.16-4.45.06-8.92.14-13.37,0-1.66.25-3.32.37-4.85,2.51-2.65,5.19-1.52,8.21-1.16a50.92,50.92,0,0,1,.87,5.87c.76,23.61.36,41.21-1.12,47.94H366c-2.23-6.3-.08-12.89-1.59-18.83C362.22,564.34,360.17,564.65,357.2,566.16Z"/><path class="cls-1" d="M612.2,531.65c6.29-1.47,13-.94,19.56-.4,4,.32,5.8,2.76,5.86,6.78.12,8.37,0,16.75.07,25.12a6.23,6.23,0,0,1-3.37,6c-.51,5.75,3.6,10.25,3,16a36,36,0,0,1-5,.63c-3.4,0-4.38-.76-5.42-4-.91-2.92-1.48-5.94-2.47-8.83-.38-1.12-1.48-2-2.68-3.54-2.86,5.3-.24,10.69-2.41,15.24-2.34,1.68-4.71,1.35-7.25.41a7.58,7.58,0,0,1-1-2.18c-.22-2.21-.32-4.45-.33-6.67,0-12,0-24,0-36C610.76,537.42,610.21,534.55,612.2,531.65Zm15.47,27.79c.55-6.44,1.37-12.62-.68-19.12l-6.17.49a65.07,65.07,0,0,0-.2,16.88c.22,2,1.77,2.71,3.62,2.58A23.9,23.9,0,0,0,627.67,559.44Z"/><path class="cls-1" d="M973,554c6.1,1.18,7,.69,7.18-3.82s0-8.9.11-13.35c.14-5.38.79-5.89,6.65-5.71a8.12,8.12,0,0,1,1.94.62,9,9,0,0,1,.9,2.81q.1,23.79,0,47.57a13.37,13.37,0,0,1-.65,2.72,8.21,8.21,0,0,1-7.72.2c-1.75-2.58-1-5.44-1.18-8.17-.1-2.22,0-4.45-.06-6.67,0-4.59-1.56-6.15-6.61-4.63-2.31,5.94-.07,12.48-1.51,19-2.72,1.86-5.53,1.49-8.81.45a36.69,36.69,0,0,1-.68-5c-.07-15.82-.19-31.66.08-47.23,3.31-2.37,6.13-2.05,9.39-.78C973.34,539.15,972,546.41,973,554Z"/><path class="cls-1" d="M852.18,532.21V569.4c0,3.62.08,7.26-.09,10.88s-1.36,5.12-5.1,5.29c-5.56.25-11.15.22-16.71,0-3.29-.15-4.39-1.55-4.74-4.73a31.08,31.08,0,0,1-.13-3.34q0-20.1,0-40.19a47.44,47.44,0,0,1,.48-4.91c2.69-2.05,5.3-1.69,8.55-.42a56,56,0,0,1,.68,6.26c.08,10,0,20.09.06,30.14a47.77,47.77,0,0,0,.49,6.65c.24,1.63,2.05,2.62,3.87,2.32a2.93,2.93,0,0,0,2.8-2.62c.21-2.21.32-4.44.32-6.67,0-9.21,0-18.42,0-27.63,0-2.74.2-5.48.31-8.21C846,530.49,848.59,530.63,852.18,532.21Z"/><path class="cls-1" d="M455.28,585.35a99.93,99.93,0,0,1-20.35.24c-4.48-.32-5.66-1.72-5.72-6.49-.11-10,0-20,0-30.06,0-3.61-.09-7.23,0-10.85.14-4.33,2.21-6.83,6.49-7.1,4.67-.3,9.38,0,14.19,0,.54,1.79,1,3.07,1.29,4.4a40.89,40.89,0,0,1,.37,4.4c-2.82.22-5.29.35-7.73.61-3.39.37-4.78,1.46-4.83,4.6-.14,9.45-.09,18.91,0,28.37a3.69,3.69,0,0,0,3.83,3.62,3.57,3.57,0,0,0,3.86-3.52c.21-2.77.14-5.56.22-8.34.09-3-.32-6.09.91-9.44H455C456.86,561.56,457.06,577.15,455.28,585.35Z"/><path class="cls-1" d="M540.12,585.38l-8,.43a30.06,30.06,0,0,0-2.56-4.2c-3-3.48-6.74-2.81-9.06,1.47-.39.71-.85,1.38-1.26,2a13.13,13.13,0,0,1-9.33-.22c1.9-10.61,3.75-20.88,5.57-31.15.91-5.16,1.77-10.34,2.65-15.51a25,25,0,0,1,.59-3.26c.71-2.29,2.07-4,4.71-4,2.18,0,4.35.21,6.94.35,1.81,9.22,3.73,18.11,5.24,27.07C537,567.08,539,575.66,540.12,585.38Zm-14.57-29c-1.16,2.37-2.16,3.65-2.39,5.07a30.08,30.08,0,0,0-.31,7.22c0,.65,1.51,1.7,2.29,1.67s2.12-1.2,2.12-1.87C527.28,564.83,527.54,561.05,525.55,556.41Z"/><path class="cls-1" d="M570.82,531.4c.2,3,.48,5.25.48,7.45q.06,18,0,35.95a21.47,21.47,0,0,1-.43,5.8c-.81,2.8-2.56,5-5.86,5.08-5.28.05-10.58.13-15.86-.17-3.09-.18-4.53-1.8-4.59-4.92-.17-8-.37-16.08.17-24.26a9.83,9.83,0,0,1,8.58-.1c1.55,6.7-.24,13.76,1.18,20.39,4.55.57,5.57.12,6-2.55a27.55,27.55,0,0,0,.32-4.16c0-7.53.07-15,0-22.58a43.37,43.37,0,0,0-.94-6l-9.55-1.6a16.09,16.09,0,0,1-.55-3.75c.27-3.43,1.4-4.77,4.46-4.91A94.07,94.07,0,0,1,570.82,531.4Z"/><path class="cls-1" d="M456.85,159.71c-1.05-2-1-3.64.72-3.82,8.31-.84,16.64-1.58,25-2.07,10-.59,20.06-.9,30.09-1.33.28,0,.56-.05.84-.06,16.16-.66,32.32-1.23,48.48-2a18.46,18.46,0,0,1,12.49,3.6c2.89,2.12,6.06,3.87,8.9,5.67,0,2.13-1.28,1.91-2.24,1.89-21.48-.33-43-.72-64.45-1-17-.24-34-.39-51.06-.6C462.57,159.89,459.55,159.78,456.85,159.71Zm110.22-3.82c-6.15-.95-12.17-1.71-18.13.29A39,39,0,0,0,567.07,155.89Z"/><path class="cls-1" d="M909.81,585.06c-3.26-17.79-6.36-34.65-9.4-51.53-.08-.43.44-1,1-2.09l6.81-.55c.8,1.26,1.75,2.11,1.91,3.09,1.14,7.11,2.12,14.25,3.14,21.38.26,1.83-.3,4,2.42,5.19.65-1.48,1.65-2.89,1.87-4.42.81-5.76,1.37-11.55,2-17.33.09-.83,0-1.67.14-2.5.53-4,2-5.31,6-5.34a12.09,12.09,0,0,1,2.48.19,2.56,2.56,0,0,1,2.3,2.94c-.44,3.57-1,7.11-1.68,10.65-2.17,12-4.39,23.92-6.57,35.89-.72,3.91-2,5.11-6.2,5.15A51.37,51.37,0,0,1,909.81,585.06Z"/><path class="cls-1" d="M205.31,563.41c1.62-11.66,3-21.5,4.31-31,3-2,5.7-1.68,9-.71.08,2,.56,4.21.19,6.25-1.4,7.89-3.16,15.72-4.61,23.61-1.41,7.61-2.6,15.26-3.88,22.92-3.42,2-6.67,1.36-10.41,1a21.92,21.92,0,0,1-1.84-4.37q-4.37-23.31-8.52-46.67a8.9,8.9,0,0,1,.27-2.42c2.7-1.6,5.38-1.23,8.57-.3a15.31,15.31,0,0,1,1.3,3.49c.77,5.78,1.3,11.58,2.08,17.35A25.68,25.68,0,0,0,205.31,563.41Z"/><path class="cls-1" d="M1676.47,347.23c-5.18,0-9.87.09-14.55,0-10.86-.25-21.72-.75-32.58-.86-14.77-.15-29.55.16-44.31-.12-11.14-.21-22.26-1-33.38-1.64-1,0-1.87-.72-3.77-1.49,1.61-1,2.39-2,3.24-2,4.16-.31,8.34-.34,12.51-.56,6.67-.34,13.34-.8,20-1.11,5.56-.26,11.13-.54,16.69-.53a222.07,222.07,0,0,0,27.52-1.56c5-.61,10-.39,15-.52,2.79-.07,5.58,0,8.36-.13,12.69-.63,8.82-1.46,20.12,5.57,1.63,1,3.13,2.24,4.67,3.4C1676.19,345.78,1676.17,346.14,1676.47,347.23Zm-17-5.33c-.36-.28-.69-.74-1.08-.79s-.89.28-1.34.45c.42.38.8.91,1.29,1.07C1658.65,342.72,1659.13,342.17,1659.51,341.9Z"/><path class="cls-1" d="M298.75,555.93c1.39-4.36,2.41-6.88,3-9.48.81-3.78,1.23-7.63,1.94-11.43.54-2.94,1.52-3.87,4.37-4,1.89-.1,3.8.14,6.26.26a38.43,38.43,0,0,1-.55,4.21q-3.69,14.91-7.47,29.79a46.09,46.09,0,0,0-1.77,14,35.24,35.24,0,0,1-.52,5.5c-3.33,1.66-6.32,1-9.71.66-.35-1.64-1.08-3.22-.95-4.73.78-9.08-2.07-17.54-4.16-26.14-1.57-6.46-3.21-12.9-4.79-19.35-.25-1-.33-2.1-.48-3.11,4.54-1.28,4.54-1.3,9.62-.12C295.09,539.14,296.71,546.59,298.75,555.93Z"/><path class="cls-1" d="M776.32,584.84a12.83,12.83,0,0,1-9.31.25c-.32-.77-.93-1.54-.88-2.27.59-9.31-2.2-18.07-4.39-26.91-1.92-7.74-4-15.45-6-23.49,3.69-2.25,7-1.93,10.42-.22,1.55,7.32,1.91,14.83,5.42,23.36,2.13-9.07,3.87-16.5,5.64-24,1.84-.23,3.18-.51,4.53-.54a41.5,41.5,0,0,1,4.18.28c1.15,3.09.06,5.71-.61,8.29-2.1,8-4.33,16-6.45,24.06a50.85,50.85,0,0,0-1.93,15.62A35.86,35.86,0,0,1,776.32,584.84Z"/><path class="cls-1" d="M1678.78,361.67c-7.43,1.1-13.18.49-18.92.31-13.06-.41-26.12-1.07-39.19-1.29-13.91-.23-27.82,0-41.74-.12-4.71,0-9.43-.5-14.14-.87-1.47-.11-2.89-.91-2.63-2.53.12-.77,1.44-1.67,2.37-1.9a22.9,22.9,0,0,1,5-.43c4.72-.11,9.46,0,14.18-.27,5-.26,10-.82,14.93-1.18,3.6-.26,7.21-.53,10.82-.57,9.45-.12,18.87-.16,28.31-1.25,7.7-.89,15.56-.41,23.35-.54a8.09,8.09,0,0,1,5.36,1.83C1670,355.56,1673.63,358,1678.78,361.67Zm-18.14-4.94c-4.59-1.26-9.13-.39-13.68.21C1651.53,357.33,1656.11,358.05,1660.64,356.73Z"/><path class="cls-1" d="M954.58,556.41v6.15l-7.29,1.89c-2,5-2,5-.51,11.52l8.68,1.8c1.64,2.61.57,4.77-1.11,7.32-6,1.38-12.14.91-18.18.23-1.39-7.08-1.51-45.4-.24-53.39a26.59,26.59,0,0,1,4.49-1c3.05-.15,6.11-.11,9.17,0,6.41.2,7.14,1.22,6.24,8.68l-8.77,1.47c-2.48,4.12-1,8.23-1.33,12.62Z"/><path class="cls-1" d="M581.94,175.19c-2.19.1-4.38.3-6.58.29q-26.79-.1-53.58-.29c-2.79,0-5.57-.27-8.36-.36q-18.39-.63-36.79-1.22c-2.73-.09-5.45-.21-9.16-.36,1-1.66,1.33-2.95,2-3.19a20.25,20.25,0,0,1,4.88-.71c5.56-.46,11.11-.9,16.67-1.27,3.34-.22,6.68-.27,10-.43q14.2-.66,28.41-1.36c1.4-.06,2.79-.3,4.18-.27a200,200,0,0,0,30.06-1.6,11.75,11.75,0,0,1,10,2.88c2.65,2.39,5.72,4.31,8.6,6.43C582.22,174.22,582.08,174.71,581.94,175.19Zm-12.25-5.84c-7.19-.89-7.19-.89-11.72.6C561.7,171.75,564.79,172.24,569.69,169.35Z"/><path class="cls-1" d="M163.23,585.19c-1.24-10.12-1-47.14.34-53.63,5.31-1.23,10.86-.63,16.36-.49a4,4,0,0,1,3.89,3.7,29.07,29.07,0,0,1-.1,5l-9.34,1.35c-2.21,4.19-1.57,8.27-.79,12.87l8.2,2.21v6.57l-7.22,1.64a8.11,8.11,0,0,0-1.22,2.15A15.26,15.26,0,0,0,174,576l9.2,1.8c1.29,3.11,0,5.21-1.65,7.51A57,57,0,0,1,163.23,585.19Z"/><path class="cls-1" d="M1086.24,577.85c-.34,2.67-.61,4.77-.9,7.09-6.68,1.57-12.91,1-19.66.4-1.66-9.29-.73-18.19-.81-27-.08-8.61-.49-17.24.38-26.09,6.53-2.39,12.86-1.09,19-1.06,2.34,2.44,2.51,5.12,2.07,8.4l-9.65,1.56c-1.88,4.23-1.31,8.3-.66,12.82l8,2.26v6.23l-7.47,2.25c-1.21,5.64-1.21,5.64,0,11.31Z"/><path class="cls-1" d="M242.7,562.75l-6.55,1.56c-2,2.29-2.1,4.48-.47,11.78l8.68,1.55c1.39,2.57.49,4.87-.3,7.38-6.41,1.52-12.65.93-19.26.28a44.44,44.44,0,0,1-1-5.28c-.83-15.88-.31-41.3,1-47.91,6-2.28,12.3-1,18.44-.92,2.28,2.42,2.56,5.08,2.27,8.41L235.88,541c-2.26,4.06-1.25,8.18-1,12.73l7.85,2.6Z"/><path class="cls-1" d="M1030.44,531c2.9,2.6,3.33,5.17,2.32,8.49l-8.79,1.7c-2.13,5.79-.91,11.66-1.09,17.38-.17,5.53.09,11.07.17,17l9.64,2.31a25.91,25.91,0,0,1,.31,4.48,3.31,3.31,0,0,1-3.23,3.25c-4.16.11-8.34.15-12.48-.12-2.94-.19-4.55-1.86-5-4.65a24.88,24.88,0,0,1-.26-4.15c0-12.23-.08-24.47,0-36.7.06-6.67,2.26-8.82,9.07-9.06C1024.36,530.82,1027.68,531,1030.44,531Z"/><path class="cls-1" d="M675.88,539.83l-10.53,1c-2.46,4.28-1.62,8.57-.92,13.39l8.11,1.83v6.72l-7.41,1.58c-2,3.4-1.2,6.81-1.38,10.09s-.21,6.61-.29,9.5c-3,2.69-5.64,1.63-8.5,1.35-2.28-5.86-.94-11.73-1.15-17.46-.23-6.12-.14-12.25,0-18.38.11-5.77-.61-11.61.55-17.33,3.27-1.8,6.38-1.13,9.36-1.23s6.07,0,8.78,0C675,533.42,675.92,535.89,675.88,539.83Z"/><path class="cls-1" d="M1675.62,375.75c-1.18.1-2.48.33-3.77.32-8.36-.07-16.76.21-25.09-.39-19.5-1.41-39-1.22-58.53-1.27-2.76,0-5.52-.1-8-.15-1.11-2.47-.53-3.9,1.52-4.28a87.46,87.46,0,0,1,9.93-1.37c4.16-.29,8.36-.14,12.54-.36,3.88-.2,7.75-.71,11.64-.94,5.28-.31,10.57-.4,15.84-.72,5.55-.34,11.1-.83,16.64-1.26,1.39-.11,2.77-.32,4.16-.39,12.58-.62,14.31.09,23.26,9.54C1675.86,374.61,1675.71,375,1675.62,375.75ZM1664,370.53c-4.66-1.67-8-1.52-13.08.16C1656,371.84,1659.41,372.1,1664,370.53Z"/><path class="cls-1" d="M486.29,184.06c2.44-.15,4.64-.25,6.84-.41q7.47-.56,14.93-1.16a21.31,21.31,0,0,1,2.48-.32c13.94.53,27.73-1.75,41.62-2.11a76.27,76.27,0,0,0,11.63-.81,13.6,13.6,0,0,1,12.9,3.91c1.91,1.88,3.93,3.65,5.92,5.49-.84.75-1.22,1.38-1.59,1.37-20-.19-40-.32-60.07-.73-10.56-.22-21.11-.92-31.66-1.47C487.64,187.74,485.89,187.43,486.29,184.06Zm81.55-.61-1.31.9c.39.31.89,1,1.14.88a5.76,5.76,0,0,0,1.56-1.15Z"/><path class="cls-1" d="M340.14,531.46c.89,2.37,1.75,4.63,2.44,6.47-.21.81-.2,1.25-.36,1.32-1.73.75-3.49,1.45-5.76,2.38-1,14.21.29,28.61-.72,42.93-3.26,1.74-6.15,1.48-9.67.37a60.68,60.68,0,0,1-.7-6.3c-.08-8.88,0-17.77,0-26.66,0-1.39,0-2.78,0-4.17-.15-5.75-.16-5.75-5.87-8.54-.54-3.23.31-6,3.55-8.32,4.23,0,8.94,0,13.65,0A27.84,27.84,0,0,1,340.14,531.46Z"/><path class="cls-1" d="M1049.73,576.1l9.64,1.6a31,31,0,0,1,.06,4.89,3.45,3.45,0,0,1-3.42,3c-2.22.15-4.45.24-6.67.23-3,0-6-.16-9.33-.26-.48-1.65-1.17-2.92-1.18-4.18-.06-15.57,0-31.14,0-46.71a12.2,12.2,0,0,1,.61-2.59c2.78-1.73,5.7-1.38,9.17-.48a36.79,36.79,0,0,1,.85,5.45c.09,10,0,20,.06,30C1049.53,569.88,1049.65,572.64,1049.73,576.1Z"/><path class="cls-1" d="M380.91,532.06c3.06-1.55,5.67-1.46,8.89-.06,1.32,5.53.53,11.35.65,17.08.13,6.11.12,12.23,0,18.34-.1,5.77.55,11.59-.57,17.23a9.45,9.45,0,0,1-8.33.34C380.2,579.08,379.79,546.62,380.91,532.06Z"/><path class="cls-1" d="M1005.13,585.27a38.43,38.43,0,0,1-4.55.47,15.69,15.69,0,0,1-3.05-.59c-1.28-6.22-1.64-40.67-.59-52.72,2.3-2.28,5-1.59,8-.72a9.64,9.64,0,0,1,1,2.89q.09,23.79,0,47.56A16.14,16.14,0,0,1,1005.13,585.27Z"/></g></g></svg>