<svg width="45" height="45" viewBox="0 0 45 45" fill="none" xmlns="http://www.w3.org/2000/svg">
<path d="M22.5 45C34.9264 45 45 34.9264 45 22.5C45 10.0736 34.9264 0 22.5 0C10.0736 0 0 10.0736 0 22.5C0 34.9264 10.0736 45 22.5 45Z" fill="#F0AC3F"/>
<path d="M31.9561 27.178L29.1651 24.3869C28.1683 23.3901 26.4737 23.7889 26.075 25.0847C25.7759 25.9819 24.7791 26.4803 23.882 26.2809C21.8884 25.7825 19.197 23.1908 18.6986 21.0975C18.3996 20.2003 18.9976 19.2035 19.8948 18.9045C21.1906 18.5058 21.5893 16.8112 20.5925 15.8144L17.8015 13.0233C17.004 12.3256 15.8079 12.3256 15.1101 13.0233L13.2162 14.9173C11.3222 16.9109 13.4155 22.1939 18.1005 26.8789C22.7855 31.5639 28.0686 33.7569 30.0622 31.7633L31.9561 29.8694C32.6539 29.0719 32.6539 27.8757 31.9561 27.178Z" fill="white"/>
</svg>
