<svg xmlns="http://www.w3.org/2000/svg" viewBox="0 0 596.17 321.8"><title>Us-MAP</title><g id="Layer_2" data-name="Layer 2"><g id="comp_United-States-Of-America_South" data-name="comp_United-States-Of-America South"><path d="M34.27,5.22a2.61,2.61,0,1,0-2.61-2.61A2.61,2.61,0,0,0,34.27,5.22Z"/><path d="M44.82,5.22a2.61,2.61,0,1,0-2.61-2.61A2.61,2.61,0,0,0,44.82,5.22Z"/><path d="M55.38,5.22a2.61,2.61,0,1,0-2.62-2.61A2.61,2.61,0,0,0,55.38,5.22Z"/><path d="M65.93,5.22a2.61,2.61,0,1,0-2.61-2.61A2.61,2.61,0,0,0,65.93,5.22Z"/><path d="M76.48,5.22a2.61,2.61,0,1,0-2.61-2.61A2.61,2.61,0,0,0,76.48,5.22Z"/><path d="M87,5.22a2.61,2.61,0,1,0-2.61-2.61A2.61,2.61,0,0,0,87,5.22Z"/><path d="M97.59,5.22A2.61,2.61,0,1,0,95,2.61,2.61,2.61,0,0,0,97.59,5.22Z"/><path d="M108.14,5.22a2.61,2.61,0,1,0-2.61-2.61A2.61,2.61,0,0,0,108.14,5.22Z"/><path d="M118.69,5.22a2.61,2.61,0,1,0-2.61-2.61A2.61,2.61,0,0,0,118.69,5.22Z"/><path d="M129.24,5.22a2.61,2.61,0,1,0-2.61-2.61A2.61,2.61,0,0,0,129.24,5.22Z"/><path d="M139.8,5.22a2.61,2.61,0,1,0-2.62-2.61A2.61,2.61,0,0,0,139.8,5.22Z"/><path d="M150.35,5.22a2.61,2.61,0,1,0-2.61-2.61A2.61,2.61,0,0,0,150.35,5.22Z"/><path d="M160.9,5.22a2.61,2.61,0,1,0-2.61-2.61A2.61,2.61,0,0,0,160.9,5.22Z"/><path d="M171.45,5.22a2.61,2.61,0,1,0-2.61-2.61A2.61,2.61,0,0,0,171.45,5.22Z"/><path d="M34.27,15.78a2.62,2.62,0,1,0-2.61-2.62A2.61,2.61,0,0,0,34.27,15.78Z"/><path d="M44.82,15.78a2.62,2.62,0,1,0-2.61-2.62A2.61,2.61,0,0,0,44.82,15.78Z"/><path d="M55.38,15.78a2.62,2.62,0,1,0-2.62-2.62A2.61,2.61,0,0,0,55.38,15.78Z"/><path d="M65.93,15.78a2.62,2.62,0,1,0-2.61-2.62A2.61,2.61,0,0,0,65.93,15.78Z"/><path d="M76.48,15.78a2.62,2.62,0,1,0-2.61-2.62A2.61,2.61,0,0,0,76.48,15.78Z"/><path d="M87,15.78a2.62,2.62,0,1,0-2.61-2.62A2.61,2.61,0,0,0,87,15.78Z"/><path d="M97.59,15.78A2.62,2.62,0,1,0,95,13.16,2.61,2.61,0,0,0,97.59,15.78Z"/><path d="M108.14,15.78a2.62,2.62,0,1,0-2.61-2.62A2.61,2.61,0,0,0,108.14,15.78Z"/><path d="M118.69,15.78a2.62,2.62,0,1,0-2.61-2.62A2.61,2.61,0,0,0,118.69,15.78Z"/><path d="M129.24,15.78a2.62,2.62,0,1,0-2.61-2.62A2.62,2.62,0,0,0,129.24,15.78Z"/><path d="M139.8,15.78a2.62,2.62,0,1,0-2.62-2.62A2.61,2.61,0,0,0,139.8,15.78Z"/><path d="M150.35,15.78a2.62,2.62,0,1,0-2.61-2.62A2.61,2.61,0,0,0,150.35,15.78Z"/><path d="M160.9,15.78a2.62,2.62,0,1,0-2.61-2.62A2.61,2.61,0,0,0,160.9,15.78Z"/><path d="M171.45,15.78a2.62,2.62,0,1,0-2.61-2.62A2.62,2.62,0,0,0,171.45,15.78Z"/><path d="M34.27,26.33a2.62,2.62,0,1,0-2.61-2.61A2.61,2.61,0,0,0,34.27,26.33Z"/><path d="M44.82,26.33a2.62,2.62,0,1,0-2.61-2.61A2.61,2.61,0,0,0,44.82,26.33Z"/><circle cx="55.37" cy="23.72" r="2.61"/><path d="M65.93,26.33a2.62,2.62,0,1,0-2.61-2.61A2.61,2.61,0,0,0,65.93,26.33Z"/><path d="M76.48,26.33a2.62,2.62,0,1,0-2.61-2.61A2.61,2.61,0,0,0,76.48,26.33Z"/><path d="M87,26.33a2.62,2.62,0,1,0-2.61-2.61A2.61,2.61,0,0,0,87,26.33Z"/><path d="M97.59,26.33A2.62,2.62,0,1,0,95,23.72,2.61,2.61,0,0,0,97.59,26.33Z"/><path d="M108.14,26.33a2.62,2.62,0,1,0-2.61-2.61A2.61,2.61,0,0,0,108.14,26.33Z"/><circle cx="118.69" cy="23.72" r="2.61"/><path d="M129.24,26.33a2.62,2.62,0,1,0-2.61-2.61A2.61,2.61,0,0,0,129.24,26.33Z"/><circle cx="139.8" cy="23.72" r="2.61"/><circle cx="150.35" cy="23.72" r="2.61"/><path d="M160.9,26.33a2.62,2.62,0,1,0-2.61-2.61A2.61,2.61,0,0,0,160.9,26.33Z"/><path d="M171.45,26.33a2.62,2.62,0,1,0-2.61-2.61A2.61,2.61,0,0,0,171.45,26.33Z"/><path d="M182,26.33a2.62,2.62,0,1,0-2.61-2.61A2.61,2.61,0,0,0,182,26.33Z"/><circle cx="192.56" cy="23.72" r="2.61"/><circle cx="203.11" cy="23.72" r="2.61"/><path d="M213.66,26.33a2.62,2.62,0,1,0-2.61-2.61A2.61,2.61,0,0,0,213.66,26.33Z"/><path d="M224.22,26.33a2.62,2.62,0,1,0-2.61-2.61A2.61,2.61,0,0,0,224.22,26.33Z"/><path d="M234.77,26.33a2.62,2.62,0,1,0-2.61-2.61A2.61,2.61,0,0,0,234.77,26.33Z"/><path d="M245.32,26.33a2.62,2.62,0,1,0-2.61-2.61A2.61,2.61,0,0,0,245.32,26.33Z"/><path d="M255.88,26.33a2.62,2.62,0,1,0-2.62-2.61A2.61,2.61,0,0,0,255.88,26.33Z"/><path d="M266.43,26.33a2.62,2.62,0,1,0-2.61-2.61A2.61,2.61,0,0,0,266.43,26.33Z"/><path d="M277,26.33a2.62,2.62,0,1,0-2.61-2.61A2.61,2.61,0,0,0,277,26.33Z"/><path d="M287.53,26.33a2.62,2.62,0,1,0-2.61-2.61A2.61,2.61,0,0,0,287.53,26.33Z"/><path d="M298.09,26.33a2.62,2.62,0,1,0-2.61-2.61A2.61,2.61,0,0,0,298.09,26.33Z"/><path d="M34.27,36.88a2.61,2.61,0,1,0-2.61-2.61A2.61,2.61,0,0,0,34.27,36.88Z"/><path d="M44.82,36.88a2.61,2.61,0,1,0-2.61-2.61A2.61,2.61,0,0,0,44.82,36.88Z"/><path d="M55.38,36.88a2.61,2.61,0,1,0-2.62-2.61A2.61,2.61,0,0,0,55.38,36.88Z"/><path d="M65.93,36.88a2.61,2.61,0,1,0-2.61-2.61A2.61,2.61,0,0,0,65.93,36.88Z"/><path d="M76.48,36.88a2.61,2.61,0,1,0-2.61-2.61A2.61,2.61,0,0,0,76.48,36.88Z"/><path d="M87,36.88a2.61,2.61,0,1,0-2.61-2.61A2.61,2.61,0,0,0,87,36.88Z"/><path d="M97.59,36.88A2.61,2.61,0,1,0,95,34.27,2.61,2.61,0,0,0,97.59,36.88Z"/><path d="M108.14,36.88a2.61,2.61,0,1,0-2.61-2.61A2.61,2.61,0,0,0,108.14,36.88Z"/><path d="M118.69,36.88a2.61,2.61,0,1,0-2.61-2.61A2.61,2.61,0,0,0,118.69,36.88Z"/><path d="M129.24,36.88a2.61,2.61,0,1,0-2.61-2.61A2.61,2.61,0,0,0,129.24,36.88Z"/><path d="M139.8,36.88a2.61,2.61,0,1,0-2.62-2.61A2.61,2.61,0,0,0,139.8,36.88Z"/><path d="M150.35,36.88a2.61,2.61,0,1,0-2.61-2.61A2.61,2.61,0,0,0,150.35,36.88Z"/><path d="M160.9,36.88a2.61,2.61,0,1,0-2.61-2.61A2.61,2.61,0,0,0,160.9,36.88Z"/><path d="M171.45,36.88a2.61,2.61,0,1,0-2.61-2.61A2.61,2.61,0,0,0,171.45,36.88Z"/><path d="M182,36.88a2.61,2.61,0,1,0-2.61-2.61A2.61,2.61,0,0,0,182,36.88Z"/><path d="M192.56,36.88A2.61,2.61,0,1,0,190,34.27,2.61,2.61,0,0,0,192.56,36.88Z"/><path d="M203.11,36.88a2.61,2.61,0,1,0-2.61-2.61A2.61,2.61,0,0,0,203.11,36.88Z"/><path d="M213.66,36.88a2.61,2.61,0,1,0-2.61-2.61A2.61,2.61,0,0,0,213.66,36.88Z"/><path d="M224.22,36.88a2.61,2.61,0,1,0-2.61-2.61A2.61,2.61,0,0,0,224.22,36.88Z"/><path d="M234.77,36.88a2.61,2.61,0,1,0-2.61-2.61A2.61,2.61,0,0,0,234.77,36.88Z"/><path d="M245.32,36.88a2.61,2.61,0,1,0-2.61-2.61A2.61,2.61,0,0,0,245.32,36.88Z"/><path d="M255.88,36.88a2.61,2.61,0,1,0-2.62-2.61A2.61,2.61,0,0,0,255.88,36.88Z"/><path d="M266.43,36.88a2.61,2.61,0,1,0-2.61-2.61A2.61,2.61,0,0,0,266.43,36.88Z"/><path d="M277,36.88a2.61,2.61,0,1,0-2.61-2.61A2.61,2.61,0,0,0,277,36.88Z"/><path d="M287.53,36.88a2.61,2.61,0,1,0-2.61-2.61A2.61,2.61,0,0,0,287.53,36.88Z"/><path d="M298.09,36.88a2.61,2.61,0,1,0-2.61-2.61A2.61,2.61,0,0,0,298.09,36.88Z"/><path d="M308.64,36.88A2.61,2.61,0,1,0,306,34.27,2.61,2.61,0,0,0,308.64,36.88Z"/><path d="M319.19,36.88a2.61,2.61,0,1,0-2.61-2.61A2.61,2.61,0,0,0,319.19,36.88Z"/><path d="M329.74,36.88a2.61,2.61,0,1,0-2.61-2.61A2.61,2.61,0,0,0,329.74,36.88Z"/><path d="M340.3,36.88a2.61,2.61,0,1,0-2.61-2.61A2.61,2.61,0,0,0,340.3,36.88Z"/><path d="M350.85,36.88a2.61,2.61,0,1,0-2.61-2.61A2.61,2.61,0,0,0,350.85,36.88Z"/><path d="M34.27,47.43a2.61,2.61,0,1,0-2.61-2.61A2.61,2.61,0,0,0,34.27,47.43Z"/><path d="M44.82,47.43a2.61,2.61,0,1,0-2.61-2.61A2.61,2.61,0,0,0,44.82,47.43Z"/><circle cx="55.37" cy="44.82" r="2.61"/><path d="M65.93,47.43a2.61,2.61,0,1,0-2.61-2.61A2.61,2.61,0,0,0,65.93,47.43Z"/><path d="M76.48,47.43a2.61,2.61,0,1,0-2.61-2.61A2.61,2.61,0,0,0,76.48,47.43Z"/><path d="M87,47.43a2.61,2.61,0,1,0-2.61-2.61A2.61,2.61,0,0,0,87,47.43Z"/><path d="M97.59,47.43A2.61,2.61,0,1,0,95,44.82,2.61,2.61,0,0,0,97.59,47.43Z"/><path d="M108.14,47.43a2.61,2.61,0,1,0-2.61-2.61A2.61,2.61,0,0,0,108.14,47.43Z"/><circle cx="118.69" cy="44.82" r="2.61"/><path d="M129.24,47.43a2.61,2.61,0,1,0-2.61-2.61A2.61,2.61,0,0,0,129.24,47.43Z"/><circle cx="139.8" cy="44.82" r="2.61"/><circle cx="150.35" cy="44.82" r="2.61"/><path d="M160.9,47.43a2.61,2.61,0,1,0-2.61-2.61A2.61,2.61,0,0,0,160.9,47.43Z"/><path d="M171.45,47.43a2.61,2.61,0,1,0-2.61-2.61A2.61,2.61,0,0,0,171.45,47.43Z"/><path d="M182,47.43a2.61,2.61,0,1,0-2.61-2.61A2.61,2.61,0,0,0,182,47.43Z"/><circle cx="192.56" cy="44.82" r="2.61"/><circle cx="203.11" cy="44.82" r="2.61"/><path d="M213.66,47.43a2.61,2.61,0,1,0-2.61-2.61A2.61,2.61,0,0,0,213.66,47.43Z"/><path d="M224.22,47.43a2.61,2.61,0,1,0-2.61-2.61A2.61,2.61,0,0,0,224.22,47.43Z"/><path d="M234.77,47.43a2.61,2.61,0,1,0-2.61-2.61A2.61,2.61,0,0,0,234.77,47.43Z"/><path d="M245.32,47.43a2.61,2.61,0,1,0-2.61-2.61A2.61,2.61,0,0,0,245.32,47.43Z"/><path d="M255.88,47.43a2.61,2.61,0,1,0-2.62-2.61A2.61,2.61,0,0,0,255.88,47.43Z"/><path d="M266.43,47.43a2.61,2.61,0,1,0-2.61-2.61A2.61,2.61,0,0,0,266.43,47.43Z"/><path d="M277,47.43a2.61,2.61,0,1,0-2.61-2.61A2.61,2.61,0,0,0,277,47.43Z"/><path d="M287.53,47.43a2.61,2.61,0,1,0-2.61-2.61A2.61,2.61,0,0,0,287.53,47.43Z"/><path d="M298.09,47.43a2.61,2.61,0,1,0-2.61-2.61A2.61,2.61,0,0,0,298.09,47.43Z"/><path d="M308.64,47.43A2.61,2.61,0,1,0,306,44.82,2.61,2.61,0,0,0,308.64,47.43Z"/><path d="M319.19,47.43a2.61,2.61,0,1,0-2.61-2.61A2.61,2.61,0,0,0,319.19,47.43Z"/><path d="M329.74,47.43a2.61,2.61,0,1,0-2.61-2.61A2.61,2.61,0,0,0,329.74,47.43Z"/><path d="M340.3,47.43a2.61,2.61,0,1,0-2.61-2.61A2.61,2.61,0,0,0,340.3,47.43Z"/><path d="M350.85,47.43a2.61,2.61,0,1,0-2.61-2.61A2.61,2.61,0,0,0,350.85,47.43Z"/><path d="M361.4,47.43a2.61,2.61,0,1,0-2.61-2.61A2.61,2.61,0,0,0,361.4,47.43Z"/><path d="M372,47.43a2.61,2.61,0,1,0-2.61-2.61A2.61,2.61,0,0,0,372,47.43Z"/><path d="M382.51,47.43a2.61,2.61,0,1,0-2.62-2.61A2.61,2.61,0,0,0,382.51,47.43Z"/><path d="M34.27,58a2.62,2.62,0,1,0-2.61-2.61A2.61,2.61,0,0,0,34.27,58Z"/><path d="M44.82,58a2.62,2.62,0,1,0-2.61-2.61A2.61,2.61,0,0,0,44.82,58Z"/><path d="M55.38,58a2.62,2.62,0,1,0-2.62-2.61A2.61,2.61,0,0,0,55.38,58Z"/><path d="M65.93,58a2.62,2.62,0,1,0-2.61-2.61A2.61,2.61,0,0,0,65.93,58Z"/><path d="M76.48,58a2.62,2.62,0,1,0-2.61-2.61A2.61,2.61,0,0,0,76.48,58Z"/><path d="M87,58a2.62,2.62,0,1,0-2.61-2.61A2.61,2.61,0,0,0,87,58Z"/><path d="M97.59,58A2.62,2.62,0,1,0,95,55.38,2.61,2.61,0,0,0,97.59,58Z"/><path d="M108.14,58a2.62,2.62,0,1,0-2.61-2.61A2.61,2.61,0,0,0,108.14,58Z"/><path d="M118.69,58a2.62,2.62,0,1,0-2.61-2.61A2.61,2.61,0,0,0,118.69,58Z"/><path d="M129.24,58a2.62,2.62,0,1,0-2.61-2.61A2.61,2.61,0,0,0,129.24,58Z"/><path d="M139.8,58a2.62,2.62,0,1,0-2.62-2.61A2.61,2.61,0,0,0,139.8,58Z"/><path d="M150.35,58a2.62,2.62,0,1,0-2.61-2.61A2.61,2.61,0,0,0,150.35,58Z"/><path d="M160.9,58a2.62,2.62,0,1,0-2.61-2.61A2.61,2.61,0,0,0,160.9,58Z"/><path d="M171.45,58a2.62,2.62,0,1,0-2.61-2.61A2.61,2.61,0,0,0,171.45,58Z"/><path d="M182,58a2.62,2.62,0,1,0-2.61-2.61A2.61,2.61,0,0,0,182,58Z"/><path d="M192.56,58A2.62,2.62,0,1,0,190,55.38,2.61,2.61,0,0,0,192.56,58Z"/><path d="M203.11,58a2.62,2.62,0,1,0-2.61-2.61A2.61,2.61,0,0,0,203.11,58Z"/><path d="M213.66,58a2.62,2.62,0,1,0-2.61-2.61A2.61,2.61,0,0,0,213.66,58Z"/><path d="M224.22,58a2.62,2.62,0,1,0-2.61-2.61A2.61,2.61,0,0,0,224.22,58Z"/><path d="M234.77,58a2.62,2.62,0,1,0-2.61-2.61A2.61,2.61,0,0,0,234.77,58Z"/><path d="M245.32,58a2.62,2.62,0,1,0-2.61-2.61A2.61,2.61,0,0,0,245.32,58Z"/><path d="M255.88,58a2.62,2.62,0,1,0-2.62-2.61A2.61,2.61,0,0,0,255.88,58Z"/><path d="M266.43,58a2.62,2.62,0,1,0-2.61-2.61A2.61,2.61,0,0,0,266.43,58Z"/><path d="M277,58a2.62,2.62,0,1,0-2.61-2.61A2.61,2.61,0,0,0,277,58Z"/><path d="M287.53,58a2.62,2.62,0,1,0-2.61-2.61A2.61,2.61,0,0,0,287.53,58Z"/><path d="M298.09,58a2.62,2.62,0,1,0-2.61-2.61A2.61,2.61,0,0,0,298.09,58Z"/><path d="M308.64,58A2.62,2.62,0,1,0,306,55.38,2.61,2.61,0,0,0,308.64,58Z"/><path d="M319.19,58a2.62,2.62,0,1,0-2.61-2.61A2.61,2.61,0,0,0,319.19,58Z"/><path d="M329.74,58a2.62,2.62,0,1,0-2.61-2.61A2.61,2.61,0,0,0,329.74,58Z"/><path d="M340.3,58a2.62,2.62,0,1,0-2.61-2.61A2.61,2.61,0,0,0,340.3,58Z"/><path d="M350.85,58a2.62,2.62,0,1,0-2.61-2.61A2.61,2.61,0,0,0,350.85,58Z"/><path d="M361.4,58a2.62,2.62,0,1,0-2.61-2.61A2.61,2.61,0,0,0,361.4,58Z"/><path d="M372,58a2.62,2.62,0,1,0-2.61-2.61A2.61,2.61,0,0,0,372,58Z"/><path d="M382.51,58a2.62,2.62,0,1,0-2.62-2.61A2.61,2.61,0,0,0,382.51,58Z"/><path d="M393.06,58a2.62,2.62,0,1,0-2.61-2.61A2.61,2.61,0,0,0,393.06,58Z"/><path d="M403.61,58A2.62,2.62,0,1,0,401,55.38,2.61,2.61,0,0,0,403.61,58Z"/><path d="M23.72,68.54a2.61,2.61,0,1,0-2.61-2.61A2.61,2.61,0,0,0,23.72,68.54Z"/><path d="M34.27,68.54a2.61,2.61,0,1,0-2.61-2.61A2.61,2.61,0,0,0,34.27,68.54Z"/><path d="M44.82,68.54a2.61,2.61,0,1,0-2.61-2.61A2.61,2.61,0,0,0,44.82,68.54Z"/><path d="M55.38,68.54a2.61,2.61,0,1,0-2.62-2.61A2.61,2.61,0,0,0,55.38,68.54Z"/><path d="M65.93,68.54a2.61,2.61,0,1,0-2.61-2.61A2.61,2.61,0,0,0,65.93,68.54Z"/><path d="M76.48,68.54a2.61,2.61,0,1,0-2.61-2.61A2.61,2.61,0,0,0,76.48,68.54Z"/><path d="M87,68.54a2.61,2.61,0,1,0-2.61-2.61A2.61,2.61,0,0,0,87,68.54Z"/><path d="M97.59,68.54A2.61,2.61,0,1,0,95,65.93,2.61,2.61,0,0,0,97.59,68.54Z"/><path d="M108.14,68.54a2.61,2.61,0,1,0-2.61-2.61A2.61,2.61,0,0,0,108.14,68.54Z"/><path d="M118.69,68.54a2.61,2.61,0,1,0-2.61-2.61A2.61,2.61,0,0,0,118.69,68.54Z"/><path d="M129.24,68.54a2.61,2.61,0,1,0-2.61-2.61A2.61,2.61,0,0,0,129.24,68.54Z"/><path d="M139.8,68.54a2.61,2.61,0,1,0-2.62-2.61A2.61,2.61,0,0,0,139.8,68.54Z"/><path d="M150.35,68.54a2.61,2.61,0,1,0-2.61-2.61A2.61,2.61,0,0,0,150.35,68.54Z"/><path d="M160.9,68.54a2.61,2.61,0,1,0-2.61-2.61A2.61,2.61,0,0,0,160.9,68.54Z"/><path d="M171.45,68.54a2.61,2.61,0,1,0-2.61-2.61A2.61,2.61,0,0,0,171.45,68.54Z"/><path d="M182,68.54a2.61,2.61,0,1,0-2.61-2.61A2.61,2.61,0,0,0,182,68.54Z"/><path d="M192.56,68.54A2.61,2.61,0,1,0,190,65.93,2.61,2.61,0,0,0,192.56,68.54Z"/><path d="M203.11,68.54a2.61,2.61,0,1,0-2.61-2.61A2.61,2.61,0,0,0,203.11,68.54Z"/><path d="M213.66,68.54a2.61,2.61,0,1,0-2.61-2.61A2.61,2.61,0,0,0,213.66,68.54Z"/><path d="M224.22,68.54a2.61,2.61,0,1,0-2.61-2.61A2.61,2.61,0,0,0,224.22,68.54Z"/><path d="M234.77,68.54a2.61,2.61,0,1,0-2.61-2.61A2.61,2.61,0,0,0,234.77,68.54Z"/><path d="M245.32,68.54a2.61,2.61,0,1,0-2.61-2.61A2.61,2.61,0,0,0,245.32,68.54Z"/><path d="M255.88,68.54a2.61,2.61,0,1,0-2.62-2.61A2.61,2.61,0,0,0,255.88,68.54Z"/><path d="M266.43,68.54a2.61,2.61,0,1,0-2.61-2.61A2.61,2.61,0,0,0,266.43,68.54Z"/><path d="M277,68.54a2.61,2.61,0,1,0-2.61-2.61A2.61,2.61,0,0,0,277,68.54Z"/><path d="M287.53,68.54a2.61,2.61,0,1,0-2.61-2.61A2.61,2.61,0,0,0,287.53,68.54Z"/><path d="M298.09,68.54a2.61,2.61,0,1,0-2.61-2.61A2.61,2.61,0,0,0,298.09,68.54Z"/><path d="M308.64,68.54A2.61,2.61,0,1,0,306,65.93,2.61,2.61,0,0,0,308.64,68.54Z"/><path d="M319.19,68.54a2.61,2.61,0,1,0-2.61-2.61A2.61,2.61,0,0,0,319.19,68.54Z"/><path d="M329.74,68.54a2.61,2.61,0,1,0-2.61-2.61A2.61,2.61,0,0,0,329.74,68.54Z"/><path d="M340.3,68.54a2.61,2.61,0,1,0-2.61-2.61A2.61,2.61,0,0,0,340.3,68.54Z"/><path d="M350.85,68.54a2.61,2.61,0,1,0-2.61-2.61A2.61,2.61,0,0,0,350.85,68.54Z"/><path d="M361.4,68.54a2.61,2.61,0,1,0-2.61-2.61A2.61,2.61,0,0,0,361.4,68.54Z"/><path d="M372,68.54a2.61,2.61,0,1,0-2.61-2.61A2.61,2.61,0,0,0,372,68.54Z"/><path d="M382.51,68.54a2.61,2.61,0,1,0-2.62-2.61A2.61,2.61,0,0,0,382.51,68.54Z"/><path d="M393.06,68.54a2.61,2.61,0,1,0-2.61-2.61A2.61,2.61,0,0,0,393.06,68.54Z"/><path d="M403.61,68.54A2.61,2.61,0,1,0,401,65.93,2.61,2.61,0,0,0,403.61,68.54Z"/><path d="M414.16,68.54a2.61,2.61,0,1,0-2.61-2.61A2.61,2.61,0,0,0,414.16,68.54Z"/><path d="M424.72,68.54a2.61,2.61,0,1,0-2.61-2.61A2.61,2.61,0,0,0,424.72,68.54Z"/><path d="M572.46,68.54a2.61,2.61,0,1,0-2.62-2.61A2.61,2.61,0,0,0,572.46,68.54Z"/><path d="M583,68.54a2.61,2.61,0,1,0-2.61-2.61A2.61,2.61,0,0,0,583,68.54Z"/><path d="M593.56,68.54A2.61,2.61,0,1,0,591,65.93,2.61,2.61,0,0,0,593.56,68.54Z"/><path d="M23.72,79.09a2.61,2.61,0,1,0-2.61-2.61A2.61,2.61,0,0,0,23.72,79.09Z"/><path d="M34.27,79.09a2.61,2.61,0,1,0-2.61-2.61A2.61,2.61,0,0,0,34.27,79.09Z"/><path d="M44.82,79.09a2.61,2.61,0,1,0-2.61-2.61A2.61,2.61,0,0,0,44.82,79.09Z"/><path d="M55.38,79.09a2.61,2.61,0,1,0-2.62-2.61A2.61,2.61,0,0,0,55.38,79.09Z"/><path d="M65.93,79.09a2.61,2.61,0,1,0-2.61-2.61A2.61,2.61,0,0,0,65.93,79.09Z"/><path d="M76.48,79.09a2.61,2.61,0,1,0-2.61-2.61A2.61,2.61,0,0,0,76.48,79.09Z"/><path d="M87,79.09a2.61,2.61,0,1,0-2.61-2.61A2.61,2.61,0,0,0,87,79.09Z"/><path d="M97.59,79.09A2.61,2.61,0,1,0,95,76.48,2.61,2.61,0,0,0,97.59,79.09Z"/><path d="M108.14,79.09a2.61,2.61,0,1,0-2.61-2.61A2.61,2.61,0,0,0,108.14,79.09Z"/><path d="M118.69,79.09a2.61,2.61,0,1,0-2.61-2.61A2.61,2.61,0,0,0,118.69,79.09Z"/><path d="M129.24,79.09a2.61,2.61,0,1,0-2.61-2.61A2.61,2.61,0,0,0,129.24,79.09Z"/><path d="M139.8,79.09a2.61,2.61,0,1,0-2.62-2.61A2.61,2.61,0,0,0,139.8,79.09Z"/><path d="M150.35,79.09a2.61,2.61,0,1,0-2.61-2.61A2.61,2.61,0,0,0,150.35,79.09Z"/><path d="M160.9,79.09a2.61,2.61,0,1,0-2.61-2.61A2.61,2.61,0,0,0,160.9,79.09Z"/><path d="M171.45,79.09a2.61,2.61,0,1,0-2.61-2.61A2.61,2.61,0,0,0,171.45,79.09Z"/><path d="M182,79.09a2.61,2.61,0,1,0-2.61-2.61A2.61,2.61,0,0,0,182,79.09Z"/><path d="M192.56,79.09A2.61,2.61,0,1,0,190,76.48,2.61,2.61,0,0,0,192.56,79.09Z"/><path d="M203.11,79.09a2.61,2.61,0,1,0-2.61-2.61A2.61,2.61,0,0,0,203.11,79.09Z"/><path d="M213.66,79.09a2.61,2.61,0,1,0-2.61-2.61A2.61,2.61,0,0,0,213.66,79.09Z"/><path d="M224.22,79.09a2.61,2.61,0,1,0-2.61-2.61A2.61,2.61,0,0,0,224.22,79.09Z"/><path d="M234.77,79.09a2.61,2.61,0,1,0-2.61-2.61A2.61,2.61,0,0,0,234.77,79.09Z"/><path d="M245.32,79.09a2.61,2.61,0,1,0-2.61-2.61A2.61,2.61,0,0,0,245.32,79.09Z"/><path d="M255.88,79.09a2.61,2.61,0,1,0-2.62-2.61A2.61,2.61,0,0,0,255.88,79.09Z"/><path d="M266.43,79.09a2.61,2.61,0,1,0-2.61-2.61A2.61,2.61,0,0,0,266.43,79.09Z"/><path d="M277,79.09a2.61,2.61,0,1,0-2.61-2.61A2.61,2.61,0,0,0,277,79.09Z"/><path d="M287.53,79.09a2.61,2.61,0,1,0-2.61-2.61A2.61,2.61,0,0,0,287.53,79.09Z"/><path d="M298.09,79.09a2.61,2.61,0,1,0-2.61-2.61A2.61,2.61,0,0,0,298.09,79.09Z"/><path d="M308.64,79.09A2.61,2.61,0,1,0,306,76.48,2.61,2.61,0,0,0,308.64,79.09Z"/><path d="M319.19,79.09a2.61,2.61,0,1,0-2.61-2.61A2.61,2.61,0,0,0,319.19,79.09Z"/><path d="M329.74,79.09a2.61,2.61,0,1,0-2.61-2.61A2.61,2.61,0,0,0,329.74,79.09Z"/><path d="M340.3,79.09a2.61,2.61,0,1,0-2.61-2.61A2.61,2.61,0,0,0,340.3,79.09Z"/><path d="M350.85,79.09a2.61,2.61,0,1,0-2.61-2.61A2.61,2.61,0,0,0,350.85,79.09Z"/><path d="M361.4,79.09a2.61,2.61,0,1,0-2.61-2.61A2.61,2.61,0,0,0,361.4,79.09Z"/><path d="M372,79.09a2.61,2.61,0,1,0-2.61-2.61A2.61,2.61,0,0,0,372,79.09Z"/><path d="M382.51,79.09a2.61,2.61,0,1,0-2.62-2.61A2.61,2.61,0,0,0,382.51,79.09Z"/><path d="M393.06,79.09a2.61,2.61,0,1,0-2.61-2.61A2.61,2.61,0,0,0,393.06,79.09Z"/><path d="M403.61,79.09A2.61,2.61,0,1,0,401,76.48,2.61,2.61,0,0,0,403.61,79.09Z"/><path d="M414.16,79.09a2.61,2.61,0,1,0-2.61-2.61A2.61,2.61,0,0,0,414.16,79.09Z"/><path d="M424.72,79.09a2.61,2.61,0,1,0-2.61-2.61A2.61,2.61,0,0,0,424.72,79.09Z"/><path d="M435.27,79.09a2.61,2.61,0,1,0-2.61-2.61A2.61,2.61,0,0,0,435.27,79.09Z"/><path d="M561.9,79.09a2.61,2.61,0,1,0-2.61-2.61A2.61,2.61,0,0,0,561.9,79.09Z"/><path d="M572.46,79.09a2.61,2.61,0,1,0-2.62-2.61A2.61,2.61,0,0,0,572.46,79.09Z"/><path d="M583,79.09a2.61,2.61,0,1,0-2.61-2.61A2.61,2.61,0,0,0,583,79.09Z"/><path d="M593.56,79.09A2.61,2.61,0,1,0,591,76.48,2.61,2.61,0,0,0,593.56,79.09Z"/><path d="M2.61,89.64A2.61,2.61,0,1,0,0,87,2.61,2.61,0,0,0,2.61,89.64Z"/><path d="M13.16,89.64A2.61,2.61,0,1,0,10.55,87,2.61,2.61,0,0,0,13.16,89.64Z"/><path d="M23.72,89.64A2.61,2.61,0,1,0,21.11,87,2.61,2.61,0,0,0,23.72,89.64Z"/><path d="M34.27,89.64A2.61,2.61,0,1,0,31.66,87,2.61,2.61,0,0,0,34.27,89.64Z"/><path d="M44.82,89.64A2.61,2.61,0,1,0,42.21,87,2.61,2.61,0,0,0,44.82,89.64Z"/><path d="M55.38,89.64A2.61,2.61,0,1,0,52.76,87,2.61,2.61,0,0,0,55.38,89.64Z"/><path d="M65.93,89.64A2.61,2.61,0,1,0,63.32,87,2.61,2.61,0,0,0,65.93,89.64Z"/><path d="M76.48,89.64A2.61,2.61,0,1,0,73.87,87,2.61,2.61,0,0,0,76.48,89.64Z"/><path d="M87,89.64A2.61,2.61,0,1,0,84.42,87,2.6,2.6,0,0,0,87,89.64Z"/><path d="M97.59,89.64A2.61,2.61,0,1,0,95,87,2.61,2.61,0,0,0,97.59,89.64Z"/><path d="M108.14,89.64A2.61,2.61,0,1,0,105.53,87,2.61,2.61,0,0,0,108.14,89.64Z"/><path d="M118.69,89.64A2.61,2.61,0,1,0,116.08,87,2.61,2.61,0,0,0,118.69,89.64Z"/><path d="M129.24,89.64A2.61,2.61,0,1,0,126.63,87,2.61,2.61,0,0,0,129.24,89.64Z"/><path d="M139.8,89.64A2.61,2.61,0,1,0,137.18,87,2.61,2.61,0,0,0,139.8,89.64Z"/><path d="M150.35,89.64A2.61,2.61,0,1,0,147.74,87,2.61,2.61,0,0,0,150.35,89.64Z"/><path d="M160.9,89.64A2.61,2.61,0,1,0,158.29,87,2.61,2.61,0,0,0,160.9,89.64Z"/><path d="M171.45,89.64A2.61,2.61,0,1,0,168.84,87,2.61,2.61,0,0,0,171.45,89.64Z"/><path d="M182,89.64A2.61,2.61,0,1,0,179.4,87,2.61,2.61,0,0,0,182,89.64Z"/><path d="M192.56,89.64A2.61,2.61,0,1,0,190,87,2.61,2.61,0,0,0,192.56,89.64Z"/><path d="M203.11,89.64A2.61,2.61,0,1,0,200.5,87,2.61,2.61,0,0,0,203.11,89.64Z"/><path d="M213.66,89.64A2.61,2.61,0,1,0,211.05,87,2.61,2.61,0,0,0,213.66,89.64Z"/><path d="M224.22,89.64A2.61,2.61,0,1,0,221.61,87,2.61,2.61,0,0,0,224.22,89.64Z"/><path d="M234.77,89.64A2.61,2.61,0,1,0,232.16,87,2.61,2.61,0,0,0,234.77,89.64Z"/><path d="M245.32,89.64A2.61,2.61,0,1,0,242.71,87,2.6,2.6,0,0,0,245.32,89.64Z"/><path d="M255.88,89.64A2.61,2.61,0,1,0,253.26,87,2.61,2.61,0,0,0,255.88,89.64Z"/><path d="M266.43,89.64A2.61,2.61,0,1,0,263.82,87,2.61,2.61,0,0,0,266.43,89.64Z"/><path d="M277,89.64A2.61,2.61,0,1,0,274.37,87,2.61,2.61,0,0,0,277,89.64Z"/><path d="M287.53,89.64A2.61,2.61,0,1,0,284.92,87,2.6,2.6,0,0,0,287.53,89.64Z"/><path d="M298.09,89.64A2.61,2.61,0,1,0,295.48,87,2.61,2.61,0,0,0,298.09,89.64Z"/><path d="M308.64,89.64A2.61,2.61,0,1,0,306,87,2.61,2.61,0,0,0,308.64,89.64Z"/><path d="M319.19,89.64A2.61,2.61,0,1,0,316.58,87,2.61,2.61,0,0,0,319.19,89.64Z"/><path d="M329.74,89.64A2.61,2.61,0,1,0,327.13,87,2.61,2.61,0,0,0,329.74,89.64Z"/><path d="M340.3,89.64A2.61,2.61,0,1,0,337.69,87,2.61,2.61,0,0,0,340.3,89.64Z"/><path d="M350.85,89.64A2.61,2.61,0,1,0,348.24,87,2.61,2.61,0,0,0,350.85,89.64Z"/><path d="M361.4,89.64A2.61,2.61,0,1,0,358.79,87,2.61,2.61,0,0,0,361.4,89.64Z"/><path d="M372,89.64A2.61,2.61,0,1,0,369.34,87,2.61,2.61,0,0,0,372,89.64Z"/><path d="M382.51,89.64A2.61,2.61,0,1,0,379.89,87,2.61,2.61,0,0,0,382.51,89.64Z"/><path d="M393.06,89.64A2.61,2.61,0,1,0,390.45,87,2.61,2.61,0,0,0,393.06,89.64Z"/><path d="M403.61,89.64A2.61,2.61,0,1,0,401,87,2.61,2.61,0,0,0,403.61,89.64Z"/><path d="M414.16,89.64A2.61,2.61,0,1,0,411.55,87,2.61,2.61,0,0,0,414.16,89.64Z"/><path d="M424.72,89.64A2.61,2.61,0,1,0,422.11,87,2.61,2.61,0,0,0,424.72,89.64Z"/><path d="M435.27,89.64A2.61,2.61,0,1,0,432.66,87,2.61,2.61,0,0,0,435.27,89.64Z"/><path d="M551.35,89.64A2.61,2.61,0,1,0,548.74,87,2.61,2.61,0,0,0,551.35,89.64Z"/><path d="M561.9,89.64A2.61,2.61,0,1,0,559.29,87,2.61,2.61,0,0,0,561.9,89.64Z"/><path d="M572.46,89.64A2.61,2.61,0,1,0,569.84,87,2.61,2.61,0,0,0,572.46,89.64Z"/><path d="M583,89.64A2.61,2.61,0,1,0,580.4,87,2.61,2.61,0,0,0,583,89.64Z"/><path d="M593.56,89.64A2.61,2.61,0,1,0,591,87,2.61,2.61,0,0,0,593.56,89.64Z"/><path d="M2.61,100.2A2.62,2.62,0,1,0,0,97.59,2.61,2.61,0,0,0,2.61,100.2Z"/><path d="M13.16,100.2a2.62,2.62,0,1,0-2.61-2.61A2.61,2.61,0,0,0,13.16,100.2Z"/><path d="M23.72,100.2a2.62,2.62,0,1,0-2.61-2.61A2.61,2.61,0,0,0,23.72,100.2Z"/><path d="M34.27,100.2a2.62,2.62,0,1,0-2.61-2.61A2.61,2.61,0,0,0,34.27,100.2Z"/><path d="M44.82,100.2a2.62,2.62,0,1,0-2.61-2.61A2.61,2.61,0,0,0,44.82,100.2Z"/><path d="M55.38,100.2a2.62,2.62,0,1,0-2.62-2.61A2.61,2.61,0,0,0,55.38,100.2Z"/><path d="M65.93,100.2a2.62,2.62,0,1,0-2.61-2.61A2.61,2.61,0,0,0,65.93,100.2Z"/><path d="M76.48,100.2a2.62,2.62,0,1,0-2.61-2.61A2.61,2.61,0,0,0,76.48,100.2Z"/><path d="M87,100.2a2.62,2.62,0,1,0-2.61-2.61A2.61,2.61,0,0,0,87,100.2Z"/><path d="M97.59,100.2A2.62,2.62,0,1,0,95,97.59,2.61,2.61,0,0,0,97.59,100.2Z"/><path d="M108.14,100.2a2.62,2.62,0,1,0-2.61-2.61A2.61,2.61,0,0,0,108.14,100.2Z"/><path d="M118.69,100.2a2.62,2.62,0,1,0-2.61-2.61A2.61,2.61,0,0,0,118.69,100.2Z"/><path d="M129.24,100.2a2.62,2.62,0,1,0-2.61-2.61A2.61,2.61,0,0,0,129.24,100.2Z"/><path d="M139.8,100.2a2.62,2.62,0,1,0-2.62-2.61A2.61,2.61,0,0,0,139.8,100.2Z"/><path d="M150.35,100.2a2.62,2.62,0,1,0-2.61-2.61A2.61,2.61,0,0,0,150.35,100.2Z"/><path d="M160.9,100.2a2.62,2.62,0,1,0-2.61-2.61A2.61,2.61,0,0,0,160.9,100.2Z"/><path d="M171.45,100.2a2.62,2.62,0,1,0-2.61-2.61A2.61,2.61,0,0,0,171.45,100.2Z"/><path d="M182,100.2a2.62,2.62,0,1,0-2.61-2.61A2.61,2.61,0,0,0,182,100.2Z"/><path d="M192.56,100.2A2.62,2.62,0,1,0,190,97.59,2.61,2.61,0,0,0,192.56,100.2Z"/><path d="M203.11,100.2a2.62,2.62,0,1,0-2.61-2.61A2.61,2.61,0,0,0,203.11,100.2Z"/><path d="M213.66,100.2a2.62,2.62,0,1,0-2.61-2.61A2.61,2.61,0,0,0,213.66,100.2Z"/><path d="M224.22,100.2a2.62,2.62,0,1,0-2.61-2.61A2.61,2.61,0,0,0,224.22,100.2Z"/><path d="M234.77,100.2a2.62,2.62,0,1,0-2.61-2.61A2.61,2.61,0,0,0,234.77,100.2Z"/><path d="M245.32,100.2a2.62,2.62,0,1,0-2.61-2.61A2.61,2.61,0,0,0,245.32,100.2Z"/><path d="M255.88,100.2a2.62,2.62,0,1,0-2.62-2.61A2.61,2.61,0,0,0,255.88,100.2Z"/><path d="M266.43,100.2a2.62,2.62,0,1,0-2.61-2.61A2.61,2.61,0,0,0,266.43,100.2Z"/><path d="M277,100.2a2.62,2.62,0,1,0-2.61-2.61A2.61,2.61,0,0,0,277,100.2Z"/><path d="M287.53,100.2a2.62,2.62,0,1,0-2.61-2.61A2.61,2.61,0,0,0,287.53,100.2Z"/><path d="M298.09,100.2a2.62,2.62,0,1,0-2.61-2.61A2.61,2.61,0,0,0,298.09,100.2Z"/><path d="M308.64,100.2A2.62,2.62,0,1,0,306,97.59,2.61,2.61,0,0,0,308.64,100.2Z"/><path d="M319.19,100.2a2.62,2.62,0,1,0-2.61-2.61A2.61,2.61,0,0,0,319.19,100.2Z"/><path d="M329.74,100.2a2.62,2.62,0,1,0-2.61-2.61A2.61,2.61,0,0,0,329.74,100.2Z"/><path d="M340.3,100.2a2.62,2.62,0,1,0-2.61-2.61A2.61,2.61,0,0,0,340.3,100.2Z"/><path d="M350.85,100.2a2.62,2.62,0,1,0-2.61-2.61A2.61,2.61,0,0,0,350.85,100.2Z"/><path d="M361.4,100.2a2.62,2.62,0,1,0-2.61-2.61A2.61,2.61,0,0,0,361.4,100.2Z"/><path d="M372,100.2a2.62,2.62,0,1,0-2.61-2.61A2.61,2.61,0,0,0,372,100.2Z"/><path d="M382.51,100.2a2.62,2.62,0,1,0-2.62-2.61A2.61,2.61,0,0,0,382.51,100.2Z"/><path d="M393.06,100.2a2.62,2.62,0,1,0-2.61-2.61A2.61,2.61,0,0,0,393.06,100.2Z"/><path d="M403.61,100.2A2.62,2.62,0,1,0,401,97.59,2.61,2.61,0,0,0,403.61,100.2Z"/><path d="M414.16,100.2a2.62,2.62,0,1,0-2.61-2.61A2.61,2.61,0,0,0,414.16,100.2Z"/><path d="M424.72,100.2a2.62,2.62,0,1,0-2.61-2.61A2.61,2.61,0,0,0,424.72,100.2Z"/><path d="M435.27,100.2a2.62,2.62,0,1,0-2.61-2.61A2.61,2.61,0,0,0,435.27,100.2Z"/><path d="M509.14,100.2a2.62,2.62,0,1,0-2.61-2.61A2.61,2.61,0,0,0,509.14,100.2Z"/><path d="M519.69,100.2a2.62,2.62,0,1,0-2.61-2.61A2.61,2.61,0,0,0,519.69,100.2Z"/><path d="M530.24,100.2a2.62,2.62,0,1,0-2.61-2.61A2.61,2.61,0,0,0,530.24,100.2Z"/><path d="M540.8,100.2a2.62,2.62,0,1,0-2.61-2.61A2.61,2.61,0,0,0,540.8,100.2Z"/><path d="M551.35,100.2a2.62,2.62,0,1,0-2.61-2.61A2.61,2.61,0,0,0,551.35,100.2Z"/><path d="M561.9,100.2a2.62,2.62,0,1,0-2.61-2.61A2.61,2.61,0,0,0,561.9,100.2Z"/><path d="M572.46,100.2a2.62,2.62,0,1,0-2.62-2.61A2.61,2.61,0,0,0,572.46,100.2Z"/><path d="M583,100.2a2.62,2.62,0,1,0-2.61-2.61A2.61,2.61,0,0,0,583,100.2Z"/><path d="M593.56,100.2A2.62,2.62,0,1,0,591,97.59,2.61,2.61,0,0,0,593.56,100.2Z"/><path d="M2.61,110.75A2.61,2.61,0,1,0,0,108.14,2.61,2.61,0,0,0,2.61,110.75Z"/><path d="M13.16,110.75a2.61,2.61,0,1,0-2.61-2.61A2.61,2.61,0,0,0,13.16,110.75Z"/><path d="M23.72,110.75a2.61,2.61,0,1,0-2.61-2.61A2.61,2.61,0,0,0,23.72,110.75Z"/><path d="M34.27,110.75a2.61,2.61,0,1,0-2.61-2.61A2.61,2.61,0,0,0,34.27,110.75Z"/><path d="M44.82,110.75a2.61,2.61,0,1,0-2.61-2.61A2.61,2.61,0,0,0,44.82,110.75Z"/><circle cx="55.37" cy="108.14" r="2.61"/><path d="M65.93,110.75a2.61,2.61,0,1,0-2.61-2.61A2.61,2.61,0,0,0,65.93,110.75Z"/><path d="M76.48,110.75a2.61,2.61,0,1,0-2.61-2.61A2.61,2.61,0,0,0,76.48,110.75Z"/><path d="M87,110.75a2.61,2.61,0,1,0-2.61-2.61A2.61,2.61,0,0,0,87,110.75Z"/><path d="M97.59,110.75A2.61,2.61,0,1,0,95,108.14,2.61,2.61,0,0,0,97.59,110.75Z"/><path d="M108.14,110.75a2.61,2.61,0,1,0-2.61-2.61A2.61,2.61,0,0,0,108.14,110.75Z"/><circle cx="118.69" cy="108.14" r="2.61"/><path d="M129.24,110.75a2.61,2.61,0,1,0-2.61-2.61A2.61,2.61,0,0,0,129.24,110.75Z"/><circle cx="139.8" cy="108.14" r="2.61"/><circle cx="150.35" cy="108.14" r="2.61"/><path d="M160.9,110.75a2.61,2.61,0,1,0-2.61-2.61A2.61,2.61,0,0,0,160.9,110.75Z"/><path d="M171.45,110.75a2.61,2.61,0,1,0-2.61-2.61A2.61,2.61,0,0,0,171.45,110.75Z"/><path d="M182,110.75a2.61,2.61,0,1,0-2.61-2.61A2.61,2.61,0,0,0,182,110.75Z"/><circle cx="192.56" cy="108.14" r="2.61"/><circle cx="203.11" cy="108.14" r="2.61"/><path d="M213.66,110.75a2.61,2.61,0,1,0-2.61-2.61A2.61,2.61,0,0,0,213.66,110.75Z"/><path d="M224.22,110.75a2.61,2.61,0,1,0-2.61-2.61A2.61,2.61,0,0,0,224.22,110.75Z"/><path d="M234.77,110.75a2.61,2.61,0,1,0-2.61-2.61A2.61,2.61,0,0,0,234.77,110.75Z"/><path d="M245.32,110.75a2.61,2.61,0,1,0-2.61-2.61A2.61,2.61,0,0,0,245.32,110.75Z"/><path d="M255.88,110.75a2.61,2.61,0,1,0-2.62-2.61A2.61,2.61,0,0,0,255.88,110.75Z"/><path d="M266.43,110.75a2.61,2.61,0,1,0-2.61-2.61A2.61,2.61,0,0,0,266.43,110.75Z"/><path d="M277,110.75a2.61,2.61,0,1,0-2.61-2.61A2.61,2.61,0,0,0,277,110.75Z"/><path d="M287.53,110.75a2.61,2.61,0,1,0-2.61-2.61A2.61,2.61,0,0,0,287.53,110.75Z"/><path d="M298.09,110.75a2.61,2.61,0,1,0-2.61-2.61A2.61,2.61,0,0,0,298.09,110.75Z"/><path d="M308.64,110.75a2.61,2.61,0,1,0-2.61-2.61A2.61,2.61,0,0,0,308.64,110.75Z"/><path d="M319.19,110.75a2.61,2.61,0,1,0-2.61-2.61A2.61,2.61,0,0,0,319.19,110.75Z"/><path d="M329.74,110.75a2.61,2.61,0,1,0-2.61-2.61A2.61,2.61,0,0,0,329.74,110.75Z"/><path d="M340.3,110.75a2.61,2.61,0,1,0-2.61-2.61A2.61,2.61,0,0,0,340.3,110.75Z"/><path d="M350.85,110.75a2.61,2.61,0,1,0-2.61-2.61A2.61,2.61,0,0,0,350.85,110.75Z"/><path d="M361.4,110.75a2.61,2.61,0,1,0-2.61-2.61A2.61,2.61,0,0,0,361.4,110.75Z"/><path d="M372,110.75a2.61,2.61,0,1,0-2.61-2.61A2.61,2.61,0,0,0,372,110.75Z"/><path d="M382.51,110.75a2.61,2.61,0,1,0-2.62-2.61A2.61,2.61,0,0,0,382.51,110.75Z"/><path d="M393.06,110.75a2.61,2.61,0,1,0-2.61-2.61A2.61,2.61,0,0,0,393.06,110.75Z"/><path d="M403.61,110.75a2.61,2.61,0,1,0-2.61-2.61A2.61,2.61,0,0,0,403.61,110.75Z"/><path d="M414.16,110.75a2.61,2.61,0,1,0-2.61-2.61A2.61,2.61,0,0,0,414.16,110.75Z"/><circle cx="424.72" cy="108.14" r="2.61"/><circle cx="435.27" cy="108.14" r="2.61" transform="translate(325.91 543.1) rotate(-89.84)"/><path d="M477.48,110.75a2.61,2.61,0,1,0-2.61-2.61A2.61,2.61,0,0,0,477.48,110.75Z"/><path d="M488,110.75a2.61,2.61,0,1,0-2.61-2.61A2.61,2.61,0,0,0,488,110.75Z"/><path d="M498.59,110.75a2.61,2.61,0,1,0-2.61-2.61A2.61,2.61,0,0,0,498.59,110.75Z"/><path d="M509.14,110.75a2.61,2.61,0,1,0-2.61-2.61A2.61,2.61,0,0,0,509.14,110.75Z"/><path d="M519.69,110.75a2.61,2.61,0,1,0-2.61-2.61A2.61,2.61,0,0,0,519.69,110.75Z"/><path d="M530.24,110.75a2.61,2.61,0,1,0-2.61-2.61A2.61,2.61,0,0,0,530.24,110.75Z"/><path d="M540.8,110.75a2.61,2.61,0,1,0-2.61-2.61A2.61,2.61,0,0,0,540.8,110.75Z"/><circle cx="551.35" cy="108.14" r="2.61"/><path d="M561.9,110.75a2.61,2.61,0,1,0-2.61-2.61A2.61,2.61,0,0,0,561.9,110.75Z"/><path d="M572.46,110.75a2.61,2.61,0,1,0-2.62-2.61A2.61,2.61,0,0,0,572.46,110.75Z"/><circle cx="583.01" cy="108.14" r="2.61"/><path d="M593.56,110.75a2.61,2.61,0,1,0-2.61-2.61A2.61,2.61,0,0,0,593.56,110.75Z"/><path d="M2.61,121.3A2.61,2.61,0,1,0,0,118.69,2.61,2.61,0,0,0,2.61,121.3Z"/><path d="M13.16,121.3a2.61,2.61,0,1,0-2.61-2.61A2.61,2.61,0,0,0,13.16,121.3Z"/><path d="M23.72,121.3a2.61,2.61,0,1,0-2.61-2.61A2.61,2.61,0,0,0,23.72,121.3Z"/><path d="M34.27,121.3a2.61,2.61,0,1,0-2.61-2.61A2.61,2.61,0,0,0,34.27,121.3Z"/><path d="M44.82,121.3a2.61,2.61,0,1,0-2.61-2.61A2.61,2.61,0,0,0,44.82,121.3Z"/><path d="M55.38,121.3a2.61,2.61,0,1,0-2.62-2.61A2.61,2.61,0,0,0,55.38,121.3Z"/><path d="M65.93,121.3a2.61,2.61,0,1,0-2.61-2.61A2.61,2.61,0,0,0,65.93,121.3Z"/><path d="M76.48,121.3a2.61,2.61,0,1,0-2.61-2.61A2.61,2.61,0,0,0,76.48,121.3Z"/><path d="M87,121.3a2.61,2.61,0,1,0-2.61-2.61A2.61,2.61,0,0,0,87,121.3Z"/><path d="M97.59,121.3A2.61,2.61,0,1,0,95,118.69,2.61,2.61,0,0,0,97.59,121.3Z"/><path d="M108.14,121.3a2.61,2.61,0,1,0-2.61-2.61A2.61,2.61,0,0,0,108.14,121.3Z"/><path d="M118.69,121.3a2.61,2.61,0,1,0-2.61-2.61A2.61,2.61,0,0,0,118.69,121.3Z"/><path d="M129.24,121.3a2.61,2.61,0,1,0-2.61-2.61A2.61,2.61,0,0,0,129.24,121.3Z"/><path d="M139.8,121.3a2.61,2.61,0,1,0-2.62-2.61A2.61,2.61,0,0,0,139.8,121.3Z"/><path d="M150.35,121.3a2.61,2.61,0,1,0-2.61-2.61A2.61,2.61,0,0,0,150.35,121.3Z"/><path d="M160.9,121.3a2.61,2.61,0,1,0-2.61-2.61A2.61,2.61,0,0,0,160.9,121.3Z"/><path d="M171.45,121.3a2.61,2.61,0,1,0-2.61-2.61A2.61,2.61,0,0,0,171.45,121.3Z"/><path d="M182,121.3a2.61,2.61,0,1,0-2.61-2.61A2.61,2.61,0,0,0,182,121.3Z"/><path d="M192.56,121.3a2.61,2.61,0,1,0-2.61-2.61A2.61,2.61,0,0,0,192.56,121.3Z"/><path d="M203.11,121.3a2.61,2.61,0,1,0-2.61-2.61A2.61,2.61,0,0,0,203.11,121.3Z"/><path d="M213.66,121.3a2.61,2.61,0,1,0-2.61-2.61A2.61,2.61,0,0,0,213.66,121.3Z"/><path d="M224.22,121.3a2.61,2.61,0,1,0-2.61-2.61A2.61,2.61,0,0,0,224.22,121.3Z"/><path d="M234.77,121.3a2.61,2.61,0,1,0-2.61-2.61A2.61,2.61,0,0,0,234.77,121.3Z"/><path d="M245.32,121.3a2.61,2.61,0,1,0-2.61-2.61A2.61,2.61,0,0,0,245.32,121.3Z"/><path d="M255.88,121.3a2.61,2.61,0,1,0-2.62-2.61A2.61,2.61,0,0,0,255.88,121.3Z"/><path d="M266.43,121.3a2.61,2.61,0,1,0-2.61-2.61A2.61,2.61,0,0,0,266.43,121.3Z"/><path d="M277,121.3a2.61,2.61,0,1,0-2.61-2.61A2.61,2.61,0,0,0,277,121.3Z"/><path d="M287.53,121.3a2.61,2.61,0,1,0-2.61-2.61A2.61,2.61,0,0,0,287.53,121.3Z"/><path d="M298.09,121.3a2.61,2.61,0,1,0-2.61-2.61A2.61,2.61,0,0,0,298.09,121.3Z"/><path d="M308.64,121.3a2.61,2.61,0,1,0-2.61-2.61A2.61,2.61,0,0,0,308.64,121.3Z"/><path d="M319.19,121.3a2.61,2.61,0,1,0-2.61-2.61A2.61,2.61,0,0,0,319.19,121.3Z"/><path d="M329.74,121.3a2.61,2.61,0,1,0-2.61-2.61A2.61,2.61,0,0,0,329.74,121.3Z"/><path d="M340.3,121.3a2.61,2.61,0,1,0-2.61-2.61A2.61,2.61,0,0,0,340.3,121.3Z"/><path d="M350.85,121.3a2.61,2.61,0,1,0-2.61-2.61A2.61,2.61,0,0,0,350.85,121.3Z"/><path d="M361.4,121.3a2.61,2.61,0,1,0-2.61-2.61A2.61,2.61,0,0,0,361.4,121.3Z"/><path d="M372,121.3a2.61,2.61,0,1,0-2.61-2.61A2.61,2.61,0,0,0,372,121.3Z"/><path d="M382.51,121.3a2.61,2.61,0,1,0-2.62-2.61A2.61,2.61,0,0,0,382.51,121.3Z"/><path d="M393.06,121.3a2.61,2.61,0,1,0-2.61-2.61A2.61,2.61,0,0,0,393.06,121.3Z"/><path d="M403.61,121.3a2.61,2.61,0,1,0-2.61-2.61A2.61,2.61,0,0,0,403.61,121.3Z"/><path d="M414.16,121.3a2.61,2.61,0,1,0-2.61-2.61A2.61,2.61,0,0,0,414.16,121.3Z"/><path d="M424.72,121.3a2.61,2.61,0,1,0-2.61-2.61A2.61,2.61,0,0,0,424.72,121.3Z"/><path d="M435.27,121.3a2.61,2.61,0,1,0-2.61-2.61A2.61,2.61,0,0,0,435.27,121.3Z"/><path d="M456.38,121.3a2.61,2.61,0,1,0-2.62-2.61A2.61,2.61,0,0,0,456.38,121.3Z"/><path d="M466.93,121.3a2.61,2.61,0,1,0-2.61-2.61A2.61,2.61,0,0,0,466.93,121.3Z"/><path d="M477.48,121.3a2.61,2.61,0,1,0-2.61-2.61A2.61,2.61,0,0,0,477.48,121.3Z"/><path d="M488,121.3a2.61,2.61,0,1,0-2.61-2.61A2.61,2.61,0,0,0,488,121.3Z"/><path d="M498.59,121.3a2.61,2.61,0,1,0-2.61-2.61A2.61,2.61,0,0,0,498.59,121.3Z"/><path d="M509.14,121.3a2.61,2.61,0,1,0-2.61-2.61A2.61,2.61,0,0,0,509.14,121.3Z"/><path d="M519.69,121.3a2.61,2.61,0,1,0-2.61-2.61A2.61,2.61,0,0,0,519.69,121.3Z"/><path d="M530.24,121.3a2.61,2.61,0,1,0-2.61-2.61A2.61,2.61,0,0,0,530.24,121.3Z"/><path d="M540.8,121.3a2.61,2.61,0,1,0-2.61-2.61A2.61,2.61,0,0,0,540.8,121.3Z"/><path d="M551.35,121.3a2.61,2.61,0,1,0-2.61-2.61A2.61,2.61,0,0,0,551.35,121.3Z"/><path d="M561.9,121.3a2.61,2.61,0,1,0-2.61-2.61A2.61,2.61,0,0,0,561.9,121.3Z"/><path d="M2.61,131.85A2.61,2.61,0,1,0,0,129.24,2.61,2.61,0,0,0,2.61,131.85Z"/><path d="M13.16,131.85a2.61,2.61,0,1,0-2.61-2.61A2.61,2.61,0,0,0,13.16,131.85Z"/><path d="M23.72,131.85a2.61,2.61,0,1,0-2.61-2.61A2.61,2.61,0,0,0,23.72,131.85Z"/><path d="M34.27,131.85a2.61,2.61,0,1,0-2.61-2.61A2.61,2.61,0,0,0,34.27,131.85Z"/><path d="M44.82,131.85a2.61,2.61,0,1,0-2.61-2.61A2.61,2.61,0,0,0,44.82,131.85Z"/><path d="M55.38,131.85a2.61,2.61,0,1,0-2.62-2.61A2.61,2.61,0,0,0,55.38,131.85Z"/><path d="M65.93,131.85a2.61,2.61,0,1,0-2.61-2.61A2.61,2.61,0,0,0,65.93,131.85Z"/><path d="M76.48,131.85a2.61,2.61,0,1,0-2.61-2.61A2.61,2.61,0,0,0,76.48,131.85Z"/><path d="M87,131.85a2.61,2.61,0,1,0-2.61-2.61A2.6,2.6,0,0,0,87,131.85Z"/><path d="M97.59,131.85A2.61,2.61,0,1,0,95,129.24,2.61,2.61,0,0,0,97.59,131.85Z"/><path d="M108.14,131.85a2.61,2.61,0,1,0-2.61-2.61A2.61,2.61,0,0,0,108.14,131.85Z"/><path d="M118.69,131.85a2.61,2.61,0,1,0-2.61-2.61A2.61,2.61,0,0,0,118.69,131.85Z"/><path d="M129.24,131.85a2.61,2.61,0,1,0-2.61-2.61A2.61,2.61,0,0,0,129.24,131.85Z"/><path d="M139.8,131.85a2.61,2.61,0,1,0-2.62-2.61A2.61,2.61,0,0,0,139.8,131.85Z"/><path d="M150.35,131.85a2.61,2.61,0,1,0-2.61-2.61A2.61,2.61,0,0,0,150.35,131.85Z"/><path d="M160.9,131.85a2.61,2.61,0,1,0-2.61-2.61A2.61,2.61,0,0,0,160.9,131.85Z"/><path d="M171.45,131.85a2.61,2.61,0,1,0-2.61-2.61A2.61,2.61,0,0,0,171.45,131.85Z"/><path d="M182,131.85a2.61,2.61,0,1,0-2.61-2.61A2.61,2.61,0,0,0,182,131.85Z"/><path d="M192.56,131.85a2.61,2.61,0,1,0-2.61-2.61A2.61,2.61,0,0,0,192.56,131.85Z"/><path d="M203.11,131.85a2.61,2.61,0,1,0-2.61-2.61A2.61,2.61,0,0,0,203.11,131.85Z"/><path d="M213.66,131.85a2.61,2.61,0,1,0-2.61-2.61A2.61,2.61,0,0,0,213.66,131.85Z"/><path d="M224.22,131.85a2.61,2.61,0,1,0-2.61-2.61A2.61,2.61,0,0,0,224.22,131.85Z"/><path d="M234.77,131.85a2.61,2.61,0,1,0-2.61-2.61A2.61,2.61,0,0,0,234.77,131.85Z"/><path d="M245.32,131.85a2.61,2.61,0,1,0-2.61-2.61A2.6,2.6,0,0,0,245.32,131.85Z"/><path d="M255.88,131.85a2.61,2.61,0,1,0-2.62-2.61A2.61,2.61,0,0,0,255.88,131.85Z"/><path d="M266.43,131.85a2.61,2.61,0,1,0-2.61-2.61A2.61,2.61,0,0,0,266.43,131.85Z"/><path d="M277,131.85a2.61,2.61,0,1,0-2.61-2.61A2.61,2.61,0,0,0,277,131.85Z"/><path d="M287.53,131.85a2.61,2.61,0,1,0-2.61-2.61A2.6,2.6,0,0,0,287.53,131.85Z"/><path d="M298.09,131.85a2.61,2.61,0,1,0-2.61-2.61A2.61,2.61,0,0,0,298.09,131.85Z"/><path d="M308.64,131.85a2.61,2.61,0,1,0-2.61-2.61A2.61,2.61,0,0,0,308.64,131.85Z"/><path d="M319.19,131.85a2.61,2.61,0,1,0-2.61-2.61A2.61,2.61,0,0,0,319.19,131.85Z"/><path d="M329.74,131.85a2.61,2.61,0,1,0-2.61-2.61A2.61,2.61,0,0,0,329.74,131.85Z"/><path d="M340.3,131.85a2.61,2.61,0,1,0-2.61-2.61A2.61,2.61,0,0,0,340.3,131.85Z"/><path d="M350.85,131.85a2.61,2.61,0,1,0-2.61-2.61A2.61,2.61,0,0,0,350.85,131.85Z"/><path d="M361.4,131.85a2.61,2.61,0,1,0-2.61-2.61A2.61,2.61,0,0,0,361.4,131.85Z"/><path d="M372,131.85a2.61,2.61,0,1,0-2.61-2.61A2.61,2.61,0,0,0,372,131.85Z"/><path d="M382.51,131.85a2.61,2.61,0,1,0-2.62-2.61A2.61,2.61,0,0,0,382.51,131.85Z"/><path d="M393.06,131.85a2.61,2.61,0,1,0-2.61-2.61A2.61,2.61,0,0,0,393.06,131.85Z"/><path d="M403.61,131.85a2.61,2.61,0,1,0-2.61-2.61A2.61,2.61,0,0,0,403.61,131.85Z"/><path d="M414.16,131.85a2.61,2.61,0,1,0-2.61-2.61A2.61,2.61,0,0,0,414.16,131.85Z"/><path d="M424.72,131.85a2.61,2.61,0,1,0-2.61-2.61A2.61,2.61,0,0,0,424.72,131.85Z"/><path d="M435.27,131.85a2.61,2.61,0,1,0-2.61-2.61A2.61,2.61,0,0,0,435.27,131.85Z"/><path d="M445.82,131.85a2.61,2.61,0,1,0-2.61-2.61A2.61,2.61,0,0,0,445.82,131.85Z"/><path d="M456.38,131.85a2.61,2.61,0,1,0-2.62-2.61A2.61,2.61,0,0,0,456.38,131.85Z"/><path d="M466.93,131.85a2.61,2.61,0,1,0-2.61-2.61A2.61,2.61,0,0,0,466.93,131.85Z"/><path d="M477.48,131.85a2.61,2.61,0,1,0-2.61-2.61A2.61,2.61,0,0,0,477.48,131.85Z"/><path d="M488,131.85a2.61,2.61,0,1,0-2.61-2.61A2.6,2.6,0,0,0,488,131.85Z"/><path d="M498.59,131.85a2.61,2.61,0,1,0-2.61-2.61A2.61,2.61,0,0,0,498.59,131.85Z"/><path d="M509.14,131.85a2.61,2.61,0,1,0-2.61-2.61A2.61,2.61,0,0,0,509.14,131.85Z"/><path d="M519.69,131.85a2.61,2.61,0,1,0-2.61-2.61A2.61,2.61,0,0,0,519.69,131.85Z"/><path d="M530.24,131.85a2.61,2.61,0,1,0-2.61-2.61A2.61,2.61,0,0,0,530.24,131.85Z"/><path d="M540.8,131.85a2.61,2.61,0,1,0-2.61-2.61A2.61,2.61,0,0,0,540.8,131.85Z"/><path d="M551.35,131.85a2.61,2.61,0,1,0-2.61-2.61A2.61,2.61,0,0,0,551.35,131.85Z"/><path d="M561.9,131.85a2.61,2.61,0,1,0-2.61-2.61A2.61,2.61,0,0,0,561.9,131.85Z"/><path d="M2.61,142.41A2.62,2.62,0,1,0,0,139.8,2.61,2.61,0,0,0,2.61,142.41Z"/><path d="M13.16,142.41a2.62,2.62,0,1,0-2.61-2.61A2.61,2.61,0,0,0,13.16,142.41Z"/><path d="M23.72,142.41a2.62,2.62,0,1,0-2.61-2.61A2.61,2.61,0,0,0,23.72,142.41Z"/><path d="M34.27,142.41a2.62,2.62,0,1,0-2.61-2.61A2.61,2.61,0,0,0,34.27,142.41Z"/><path d="M44.82,142.41a2.62,2.62,0,1,0-2.61-2.61A2.61,2.61,0,0,0,44.82,142.41Z"/><path d="M55.38,142.41a2.62,2.62,0,1,0-2.62-2.61A2.61,2.61,0,0,0,55.38,142.41Z"/><path d="M65.93,142.41a2.62,2.62,0,1,0-2.61-2.61A2.61,2.61,0,0,0,65.93,142.41Z"/><path d="M76.48,142.41a2.62,2.62,0,1,0-2.61-2.61A2.61,2.61,0,0,0,76.48,142.41Z"/><path d="M87,142.41a2.62,2.62,0,1,0-2.61-2.61A2.61,2.61,0,0,0,87,142.41Z"/><path d="M97.59,142.41A2.62,2.62,0,1,0,95,139.8,2.61,2.61,0,0,0,97.59,142.41Z"/><path d="M108.14,142.41a2.62,2.62,0,1,0-2.61-2.61A2.61,2.61,0,0,0,108.14,142.41Z"/><path d="M118.69,142.41a2.62,2.62,0,1,0-2.61-2.61A2.61,2.61,0,0,0,118.69,142.41Z"/><path d="M129.24,142.41a2.62,2.62,0,1,0-2.61-2.61A2.61,2.61,0,0,0,129.24,142.41Z"/><path d="M139.8,142.41a2.62,2.62,0,1,0-2.62-2.61A2.61,2.61,0,0,0,139.8,142.41Z"/><path d="M150.35,142.41a2.62,2.62,0,1,0-2.61-2.61A2.61,2.61,0,0,0,150.35,142.41Z"/><path d="M160.9,142.41a2.62,2.62,0,1,0-2.61-2.61A2.61,2.61,0,0,0,160.9,142.41Z"/><path d="M171.45,142.41a2.62,2.62,0,1,0-2.61-2.61A2.61,2.61,0,0,0,171.45,142.41Z"/><path d="M182,142.41a2.62,2.62,0,1,0-2.61-2.61A2.61,2.61,0,0,0,182,142.41Z"/><path d="M192.56,142.41A2.62,2.62,0,1,0,190,139.8,2.61,2.61,0,0,0,192.56,142.41Z"/><path d="M203.11,142.41a2.62,2.62,0,1,0-2.61-2.61A2.61,2.61,0,0,0,203.11,142.41Z"/><path d="M213.66,142.41a2.62,2.62,0,1,0-2.61-2.61A2.61,2.61,0,0,0,213.66,142.41Z"/><path d="M224.22,142.41a2.62,2.62,0,1,0-2.61-2.61A2.61,2.61,0,0,0,224.22,142.41Z"/><path d="M234.77,142.41a2.62,2.62,0,1,0-2.61-2.61A2.61,2.61,0,0,0,234.77,142.41Z"/><path d="M245.32,142.41a2.62,2.62,0,1,0-2.61-2.61A2.61,2.61,0,0,0,245.32,142.41Z"/><path d="M255.88,142.41a2.62,2.62,0,1,0-2.62-2.61A2.61,2.61,0,0,0,255.88,142.41Z"/><path d="M266.43,142.41a2.62,2.62,0,1,0-2.61-2.61A2.61,2.61,0,0,0,266.43,142.41Z"/><path d="M277,142.41a2.62,2.62,0,1,0-2.61-2.61A2.61,2.61,0,0,0,277,142.41Z"/><path d="M287.53,142.41a2.62,2.62,0,1,0-2.61-2.61A2.61,2.61,0,0,0,287.53,142.41Z"/><path d="M298.09,142.41a2.62,2.62,0,1,0-2.61-2.61A2.61,2.61,0,0,0,298.09,142.41Z"/><path d="M308.64,142.41A2.62,2.62,0,1,0,306,139.8,2.61,2.61,0,0,0,308.64,142.41Z"/><path d="M319.19,142.41a2.62,2.62,0,1,0-2.61-2.61A2.61,2.61,0,0,0,319.19,142.41Z"/><path d="M329.74,142.41a2.62,2.62,0,1,0-2.61-2.61A2.61,2.61,0,0,0,329.74,142.41Z"/><path d="M340.3,142.41a2.62,2.62,0,1,0-2.61-2.61A2.61,2.61,0,0,0,340.3,142.41Z"/><path d="M350.85,142.41a2.62,2.62,0,1,0-2.61-2.61A2.61,2.61,0,0,0,350.85,142.41Z"/><path d="M361.4,142.41a2.62,2.62,0,1,0-2.61-2.61A2.61,2.61,0,0,0,361.4,142.41Z"/><path d="M372,142.41a2.62,2.62,0,1,0-2.61-2.61A2.61,2.61,0,0,0,372,142.41Z"/><path d="M382.51,142.41a2.62,2.62,0,1,0-2.62-2.61A2.61,2.61,0,0,0,382.51,142.41Z"/><path d="M393.06,142.41a2.62,2.62,0,1,0-2.61-2.61A2.61,2.61,0,0,0,393.06,142.41Z"/><path d="M403.61,142.41A2.62,2.62,0,1,0,401,139.8,2.61,2.61,0,0,0,403.61,142.41Z"/><path d="M414.16,142.41a2.62,2.62,0,1,0-2.61-2.61A2.61,2.61,0,0,0,414.16,142.41Z"/><path d="M424.72,142.41a2.62,2.62,0,1,0-2.61-2.61A2.61,2.61,0,0,0,424.72,142.41Z"/><path d="M435.27,142.41a2.62,2.62,0,1,0-2.61-2.61A2.61,2.61,0,0,0,435.27,142.41Z"/><path d="M445.82,142.41a2.62,2.62,0,1,0-2.61-2.61A2.61,2.61,0,0,0,445.82,142.41Z"/><path d="M456.38,142.41a2.62,2.62,0,1,0-2.62-2.61A2.61,2.61,0,0,0,456.38,142.41Z"/><path d="M466.93,142.41a2.62,2.62,0,1,0-2.61-2.61A2.61,2.61,0,0,0,466.93,142.41Z"/><path d="M477.48,142.41a2.62,2.62,0,1,0-2.61-2.61A2.61,2.61,0,0,0,477.48,142.41Z"/><path d="M488,142.41a2.62,2.62,0,1,0-2.61-2.61A2.61,2.61,0,0,0,488,142.41Z"/><path d="M498.59,142.41A2.62,2.62,0,1,0,496,139.8,2.61,2.61,0,0,0,498.59,142.41Z"/><path d="M509.14,142.41a2.62,2.62,0,1,0-2.61-2.61A2.61,2.61,0,0,0,509.14,142.41Z"/><path d="M519.69,142.41a2.62,2.62,0,1,0-2.61-2.61A2.61,2.61,0,0,0,519.69,142.41Z"/><path d="M530.24,142.41a2.62,2.62,0,1,0-2.61-2.61A2.61,2.61,0,0,0,530.24,142.41Z"/><path d="M540.8,142.41a2.62,2.62,0,1,0-2.61-2.61A2.61,2.61,0,0,0,540.8,142.41Z"/><path d="M551.35,142.41a2.62,2.62,0,1,0-2.61-2.61A2.61,2.61,0,0,0,551.35,142.41Z"/><path d="M561.9,142.41a2.62,2.62,0,1,0-2.61-2.61A2.61,2.61,0,0,0,561.9,142.41Z"/><path d="M2.61,153A2.61,2.61,0,1,0,0,150.35,2.61,2.61,0,0,0,2.61,153Z"/><path d="M13.16,153a2.61,2.61,0,1,0-2.61-2.61A2.61,2.61,0,0,0,13.16,153Z"/><path d="M23.72,153a2.61,2.61,0,1,0-2.61-2.61A2.61,2.61,0,0,0,23.72,153Z"/><path d="M34.27,153a2.61,2.61,0,1,0-2.61-2.61A2.61,2.61,0,0,0,34.27,153Z"/><path d="M44.82,153a2.61,2.61,0,1,0-2.61-2.61A2.61,2.61,0,0,0,44.82,153Z"/><path d="M55.38,153a2.61,2.61,0,1,0-2.62-2.61A2.61,2.61,0,0,0,55.38,153Z"/><path d="M65.93,153a2.61,2.61,0,1,0-2.61-2.61A2.61,2.61,0,0,0,65.93,153Z"/><path d="M76.48,153a2.61,2.61,0,1,0-2.61-2.61A2.61,2.61,0,0,0,76.48,153Z"/><path d="M87,153a2.61,2.61,0,1,0-2.61-2.61A2.61,2.61,0,0,0,87,153Z"/><path d="M97.59,153A2.61,2.61,0,1,0,95,150.35,2.61,2.61,0,0,0,97.59,153Z"/><path d="M108.14,153a2.61,2.61,0,1,0-2.61-2.61A2.61,2.61,0,0,0,108.14,153Z"/><path d="M118.69,153a2.61,2.61,0,1,0-2.61-2.61A2.61,2.61,0,0,0,118.69,153Z"/><path d="M129.24,153a2.61,2.61,0,1,0-2.61-2.61A2.61,2.61,0,0,0,129.24,153Z"/><path d="M139.8,153a2.61,2.61,0,1,0-2.62-2.61A2.61,2.61,0,0,0,139.8,153Z"/><path d="M150.35,153a2.61,2.61,0,1,0-2.61-2.61A2.61,2.61,0,0,0,150.35,153Z"/><path d="M160.9,153a2.61,2.61,0,1,0-2.61-2.61A2.61,2.61,0,0,0,160.9,153Z"/><path d="M171.45,153a2.61,2.61,0,1,0-2.61-2.61A2.61,2.61,0,0,0,171.45,153Z"/><path d="M182,153a2.61,2.61,0,1,0-2.61-2.61A2.61,2.61,0,0,0,182,153Z"/><path d="M192.56,153a2.61,2.61,0,1,0-2.61-2.61A2.61,2.61,0,0,0,192.56,153Z"/><path d="M203.11,153a2.61,2.61,0,1,0-2.61-2.61A2.61,2.61,0,0,0,203.11,153Z"/><path d="M213.66,153a2.61,2.61,0,1,0-2.61-2.61A2.61,2.61,0,0,0,213.66,153Z"/><path d="M224.22,153a2.61,2.61,0,1,0-2.61-2.61A2.61,2.61,0,0,0,224.22,153Z"/><path d="M234.77,153a2.61,2.61,0,1,0-2.61-2.61A2.61,2.61,0,0,0,234.77,153Z"/><path d="M245.32,153a2.61,2.61,0,1,0-2.61-2.61A2.61,2.61,0,0,0,245.32,153Z"/><path d="M255.88,153a2.61,2.61,0,1,0-2.62-2.61A2.61,2.61,0,0,0,255.88,153Z"/><path d="M266.43,153a2.61,2.61,0,1,0-2.61-2.61A2.61,2.61,0,0,0,266.43,153Z"/><path d="M277,153a2.61,2.61,0,1,0-2.61-2.61A2.61,2.61,0,0,0,277,153Z"/><path d="M287.53,153a2.61,2.61,0,1,0-2.61-2.61A2.61,2.61,0,0,0,287.53,153Z"/><path d="M298.09,153a2.61,2.61,0,1,0-2.61-2.61A2.61,2.61,0,0,0,298.09,153Z"/><path d="M308.64,153a2.61,2.61,0,1,0-2.61-2.61A2.61,2.61,0,0,0,308.64,153Z"/><path d="M319.19,153a2.61,2.61,0,1,0-2.61-2.61A2.61,2.61,0,0,0,319.19,153Z"/><path d="M329.74,153a2.61,2.61,0,1,0-2.61-2.61A2.61,2.61,0,0,0,329.74,153Z"/><path d="M340.3,153a2.61,2.61,0,1,0-2.61-2.61A2.61,2.61,0,0,0,340.3,153Z"/><path d="M350.85,153a2.61,2.61,0,1,0-2.61-2.61A2.61,2.61,0,0,0,350.85,153Z"/><path d="M361.4,153a2.61,2.61,0,1,0-2.61-2.61A2.61,2.61,0,0,0,361.4,153Z"/><path d="M372,153a2.61,2.61,0,1,0-2.61-2.61A2.61,2.61,0,0,0,372,153Z"/><path d="M382.51,153a2.61,2.61,0,1,0-2.62-2.61A2.61,2.61,0,0,0,382.51,153Z"/><path d="M393.06,153a2.61,2.61,0,1,0-2.61-2.61A2.61,2.61,0,0,0,393.06,153Z"/><path d="M403.61,153a2.61,2.61,0,1,0-2.61-2.61A2.61,2.61,0,0,0,403.61,153Z"/><path d="M414.16,153a2.61,2.61,0,1,0-2.61-2.61A2.61,2.61,0,0,0,414.16,153Z"/><path d="M424.72,153a2.61,2.61,0,1,0-2.61-2.61A2.61,2.61,0,0,0,424.72,153Z"/><path d="M435.27,153a2.61,2.61,0,1,0-2.61-2.61A2.61,2.61,0,0,0,435.27,153Z"/><path d="M445.82,153a2.61,2.61,0,1,0-2.61-2.61A2.61,2.61,0,0,0,445.82,153Z"/><path d="M456.38,153a2.61,2.61,0,1,0-2.62-2.61A2.61,2.61,0,0,0,456.38,153Z"/><path d="M466.93,153a2.61,2.61,0,1,0-2.61-2.61A2.61,2.61,0,0,0,466.93,153Z"/><path d="M477.48,153a2.61,2.61,0,1,0-2.61-2.61A2.61,2.61,0,0,0,477.48,153Z"/><path d="M488,153a2.61,2.61,0,1,0-2.61-2.61A2.61,2.61,0,0,0,488,153Z"/><path d="M498.59,153a2.61,2.61,0,1,0-2.61-2.61A2.61,2.61,0,0,0,498.59,153Z"/><path d="M509.14,153a2.61,2.61,0,1,0-2.61-2.61A2.61,2.61,0,0,0,509.14,153Z"/><path d="M519.69,153a2.61,2.61,0,1,0-2.61-2.61A2.61,2.61,0,0,0,519.69,153Z"/><path d="M530.24,153a2.61,2.61,0,1,0-2.61-2.61A2.61,2.61,0,0,0,530.24,153Z"/><path d="M540.8,153a2.61,2.61,0,1,0-2.61-2.61A2.61,2.61,0,0,0,540.8,153Z"/><path d="M2.61,163.51A2.61,2.61,0,1,0,0,160.9,2.61,2.61,0,0,0,2.61,163.51Z"/><path d="M13.16,163.51a2.61,2.61,0,1,0-2.61-2.61A2.61,2.61,0,0,0,13.16,163.51Z"/><path d="M23.72,163.51a2.61,2.61,0,1,0-2.61-2.61A2.61,2.61,0,0,0,23.72,163.51Z"/><path d="M34.27,163.51a2.61,2.61,0,1,0-2.61-2.61A2.61,2.61,0,0,0,34.27,163.51Z"/><path d="M44.82,163.51a2.61,2.61,0,1,0-2.61-2.61A2.61,2.61,0,0,0,44.82,163.51Z"/><path d="M55.38,163.51a2.61,2.61,0,1,0-2.62-2.61A2.61,2.61,0,0,0,55.38,163.51Z"/><path d="M65.93,163.51a2.61,2.61,0,1,0-2.61-2.61A2.61,2.61,0,0,0,65.93,163.51Z"/><path d="M76.48,163.51a2.61,2.61,0,1,0-2.61-2.61A2.61,2.61,0,0,0,76.48,163.51Z"/><path d="M87,163.51a2.61,2.61,0,1,0-2.61-2.61A2.61,2.61,0,0,0,87,163.51Z"/><path d="M97.59,163.51A2.61,2.61,0,1,0,95,160.9,2.61,2.61,0,0,0,97.59,163.51Z"/><path d="M108.14,163.51a2.61,2.61,0,1,0-2.61-2.61A2.61,2.61,0,0,0,108.14,163.51Z"/><path d="M118.69,163.51a2.61,2.61,0,1,0-2.61-2.61A2.61,2.61,0,0,0,118.69,163.51Z"/><path d="M129.24,163.51a2.61,2.61,0,1,0-2.61-2.61A2.61,2.61,0,0,0,129.24,163.51Z"/><path d="M139.8,163.51a2.61,2.61,0,1,0-2.62-2.61A2.61,2.61,0,0,0,139.8,163.51Z"/><path d="M150.35,163.51a2.61,2.61,0,1,0-2.61-2.61A2.61,2.61,0,0,0,150.35,163.51Z"/><path d="M160.9,163.51a2.61,2.61,0,1,0-2.61-2.61A2.61,2.61,0,0,0,160.9,163.51Z"/><path d="M171.45,163.51a2.61,2.61,0,1,0-2.61-2.61A2.61,2.61,0,0,0,171.45,163.51Z"/><path d="M182,163.51a2.61,2.61,0,1,0-2.61-2.61A2.61,2.61,0,0,0,182,163.51Z"/><path d="M192.56,163.51A2.61,2.61,0,1,0,190,160.9,2.61,2.61,0,0,0,192.56,163.51Z"/><path d="M203.11,163.51a2.61,2.61,0,1,0-2.61-2.61A2.61,2.61,0,0,0,203.11,163.51Z"/><path d="M213.66,163.51a2.61,2.61,0,1,0-2.61-2.61A2.61,2.61,0,0,0,213.66,163.51Z"/><path d="M224.22,163.51a2.61,2.61,0,1,0-2.61-2.61A2.61,2.61,0,0,0,224.22,163.51Z"/><path d="M234.77,163.51a2.61,2.61,0,1,0-2.61-2.61A2.61,2.61,0,0,0,234.77,163.51Z"/><path d="M245.32,163.51a2.61,2.61,0,1,0-2.61-2.61A2.61,2.61,0,0,0,245.32,163.51Z"/><path d="M255.88,163.51a2.61,2.61,0,1,0-2.62-2.61A2.61,2.61,0,0,0,255.88,163.51Z"/><path d="M266.43,163.51a2.61,2.61,0,1,0-2.61-2.61A2.61,2.61,0,0,0,266.43,163.51Z"/><path d="M277,163.51a2.61,2.61,0,1,0-2.61-2.61A2.61,2.61,0,0,0,277,163.51Z"/><path d="M287.53,163.51a2.61,2.61,0,1,0-2.61-2.61A2.61,2.61,0,0,0,287.53,163.51Z"/><path d="M298.09,163.51a2.61,2.61,0,1,0-2.61-2.61A2.61,2.61,0,0,0,298.09,163.51Z"/><path d="M308.64,163.51A2.61,2.61,0,1,0,306,160.9,2.61,2.61,0,0,0,308.64,163.51Z"/><path d="M319.19,163.51a2.61,2.61,0,1,0-2.61-2.61A2.61,2.61,0,0,0,319.19,163.51Z"/><path d="M329.74,163.51a2.61,2.61,0,1,0-2.61-2.61A2.61,2.61,0,0,0,329.74,163.51Z"/><path d="M340.3,163.51a2.61,2.61,0,1,0-2.61-2.61A2.61,2.61,0,0,0,340.3,163.51Z"/><path d="M350.85,163.51a2.61,2.61,0,1,0-2.61-2.61A2.61,2.61,0,0,0,350.85,163.51Z"/><path d="M361.4,163.51a2.61,2.61,0,1,0-2.61-2.61A2.61,2.61,0,0,0,361.4,163.51Z"/><path d="M372,163.51a2.61,2.61,0,1,0-2.61-2.61A2.61,2.61,0,0,0,372,163.51Z"/><path d="M382.51,163.51a2.61,2.61,0,1,0-2.62-2.61A2.61,2.61,0,0,0,382.51,163.51Z"/><path d="M393.06,163.51a2.61,2.61,0,1,0-2.61-2.61A2.61,2.61,0,0,0,393.06,163.51Z"/><path d="M403.61,163.51A2.61,2.61,0,1,0,401,160.9,2.61,2.61,0,0,0,403.61,163.51Z"/><path d="M414.16,163.51a2.61,2.61,0,1,0-2.61-2.61A2.61,2.61,0,0,0,414.16,163.51Z"/><path d="M424.72,163.51a2.61,2.61,0,1,0-2.61-2.61A2.61,2.61,0,0,0,424.72,163.51Z"/><path d="M435.27,163.51a2.61,2.61,0,1,0-2.61-2.61A2.61,2.61,0,0,0,435.27,163.51Z"/><path d="M445.82,163.51a2.61,2.61,0,1,0-2.61-2.61A2.61,2.61,0,0,0,445.82,163.51Z"/><path d="M456.38,163.51a2.61,2.61,0,1,0-2.62-2.61A2.61,2.61,0,0,0,456.38,163.51Z"/><path d="M466.93,163.51a2.61,2.61,0,1,0-2.61-2.61A2.61,2.61,0,0,0,466.93,163.51Z"/><path d="M477.48,163.51a2.61,2.61,0,1,0-2.61-2.61A2.61,2.61,0,0,0,477.48,163.51Z"/><path d="M488,163.51a2.61,2.61,0,1,0-2.61-2.61A2.61,2.61,0,0,0,488,163.51Z"/><path d="M498.59,163.51A2.61,2.61,0,1,0,496,160.9,2.61,2.61,0,0,0,498.59,163.51Z"/><path d="M509.14,163.51a2.61,2.61,0,1,0-2.61-2.61A2.61,2.61,0,0,0,509.14,163.51Z"/><path d="M2.61,174.07A2.62,2.62,0,1,0,0,171.45,2.61,2.61,0,0,0,2.61,174.07Z"/><path d="M13.16,174.07a2.62,2.62,0,1,0-2.61-2.62A2.62,2.62,0,0,0,13.16,174.07Z"/><path d="M23.72,174.07a2.62,2.62,0,1,0-2.61-2.62A2.61,2.61,0,0,0,23.72,174.07Z"/><path d="M34.27,174.07a2.62,2.62,0,1,0-2.61-2.62A2.61,2.61,0,0,0,34.27,174.07Z"/><path d="M44.82,174.07a2.62,2.62,0,1,0-2.61-2.62A2.61,2.61,0,0,0,44.82,174.07Z"/><path d="M55.38,174.07a2.62,2.62,0,1,0-2.62-2.62A2.61,2.61,0,0,0,55.38,174.07Z"/><path d="M65.93,174.07a2.62,2.62,0,1,0-2.61-2.62A2.61,2.61,0,0,0,65.93,174.07Z"/><path d="M76.48,174.07a2.62,2.62,0,1,0-2.61-2.62A2.61,2.61,0,0,0,76.48,174.07Z"/><path d="M87,174.07a2.62,2.62,0,1,0-2.61-2.62A2.61,2.61,0,0,0,87,174.07Z"/><path d="M97.59,174.07A2.62,2.62,0,1,0,95,171.45,2.61,2.61,0,0,0,97.59,174.07Z"/><path d="M108.14,174.07a2.62,2.62,0,1,0-2.61-2.62A2.61,2.61,0,0,0,108.14,174.07Z"/><path d="M118.69,174.07a2.62,2.62,0,1,0-2.61-2.62A2.61,2.61,0,0,0,118.69,174.07Z"/><path d="M129.24,174.07a2.62,2.62,0,1,0-2.61-2.62A2.62,2.62,0,0,0,129.24,174.07Z"/><path d="M139.8,174.07a2.62,2.62,0,1,0-2.62-2.62A2.61,2.61,0,0,0,139.8,174.07Z"/><path d="M150.35,174.07a2.62,2.62,0,1,0-2.61-2.62A2.61,2.61,0,0,0,150.35,174.07Z"/><path d="M160.9,174.07a2.62,2.62,0,1,0-2.61-2.62A2.61,2.61,0,0,0,160.9,174.07Z"/><path d="M171.45,174.07a2.62,2.62,0,1,0-2.61-2.62A2.62,2.62,0,0,0,171.45,174.07Z"/><path d="M182,174.07a2.62,2.62,0,1,0-2.61-2.62A2.61,2.61,0,0,0,182,174.07Z"/><path d="M192.56,174.07a2.62,2.62,0,1,0-2.61-2.62A2.61,2.61,0,0,0,192.56,174.07Z"/><path d="M203.11,174.07a2.62,2.62,0,1,0-2.61-2.62A2.61,2.61,0,0,0,203.11,174.07Z"/><path d="M213.66,174.07a2.62,2.62,0,1,0-2.61-2.62A2.62,2.62,0,0,0,213.66,174.07Z"/><path d="M224.22,174.07a2.62,2.62,0,1,0-2.61-2.62A2.61,2.61,0,0,0,224.22,174.07Z"/><path d="M234.77,174.07a2.62,2.62,0,1,0-2.61-2.62A2.61,2.61,0,0,0,234.77,174.07Z"/><path d="M245.32,174.07a2.62,2.62,0,1,0-2.61-2.62A2.61,2.61,0,0,0,245.32,174.07Z"/><path d="M255.88,174.07a2.62,2.62,0,1,0-2.62-2.62A2.61,2.61,0,0,0,255.88,174.07Z"/><path d="M266.43,174.07a2.62,2.62,0,1,0-2.61-2.62A2.61,2.61,0,0,0,266.43,174.07Z"/><path d="M277,174.07a2.62,2.62,0,1,0-2.61-2.62A2.61,2.61,0,0,0,277,174.07Z"/><path d="M287.53,174.07a2.62,2.62,0,1,0-2.61-2.62A2.61,2.61,0,0,0,287.53,174.07Z"/><path d="M298.09,174.07a2.62,2.62,0,1,0-2.61-2.62A2.61,2.61,0,0,0,298.09,174.07Z"/><path d="M308.64,174.07a2.62,2.62,0,1,0-2.61-2.62A2.61,2.61,0,0,0,308.64,174.07Z"/><path d="M319.19,174.07a2.62,2.62,0,1,0-2.61-2.62A2.61,2.61,0,0,0,319.19,174.07Z"/><path d="M329.74,174.07a2.62,2.62,0,1,0-2.61-2.62A2.62,2.62,0,0,0,329.74,174.07Z"/><path d="M340.3,174.07a2.62,2.62,0,1,0-2.61-2.62A2.61,2.61,0,0,0,340.3,174.07Z"/><path d="M350.85,174.07a2.62,2.62,0,1,0-2.61-2.62A2.61,2.61,0,0,0,350.85,174.07Z"/><path d="M361.4,174.07a2.62,2.62,0,1,0-2.61-2.62A2.61,2.61,0,0,0,361.4,174.07Z"/><path d="M372,174.07a2.62,2.62,0,1,0-2.61-2.62A2.62,2.62,0,0,0,372,174.07Z"/><path d="M382.51,174.07a2.62,2.62,0,1,0-2.62-2.62A2.61,2.61,0,0,0,382.51,174.07Z"/><path d="M393.06,174.07a2.62,2.62,0,1,0-2.61-2.62A2.61,2.61,0,0,0,393.06,174.07Z"/><path d="M403.61,174.07a2.62,2.62,0,1,0-2.61-2.62A2.62,2.62,0,0,0,403.61,174.07Z"/><path d="M414.16,174.07a2.62,2.62,0,1,0-2.61-2.62A2.62,2.62,0,0,0,414.16,174.07Z"/><path d="M424.72,174.07a2.62,2.62,0,1,0-2.61-2.62A2.61,2.61,0,0,0,424.72,174.07Z"/><path d="M435.27,174.07a2.62,2.62,0,1,0-2.61-2.62A2.61,2.61,0,0,0,435.27,174.07Z"/><path d="M445.82,174.07a2.62,2.62,0,1,0-2.61-2.62A2.62,2.62,0,0,0,445.82,174.07Z"/><path d="M456.38,174.07a2.62,2.62,0,1,0-2.62-2.62A2.61,2.61,0,0,0,456.38,174.07Z"/><path d="M466.93,174.07a2.62,2.62,0,1,0-2.61-2.62A2.61,2.61,0,0,0,466.93,174.07Z"/><path d="M477.48,174.07a2.62,2.62,0,1,0-2.61-2.62A2.61,2.61,0,0,0,477.48,174.07Z"/><path d="M488,174.07a2.62,2.62,0,1,0-2.61-2.62A2.61,2.61,0,0,0,488,174.07Z"/><path d="M498.59,174.07a2.62,2.62,0,1,0-2.61-2.62A2.61,2.61,0,0,0,498.59,174.07Z"/><path d="M509.14,174.07a2.62,2.62,0,1,0-2.61-2.62A2.61,2.61,0,0,0,509.14,174.07Z"/><path d="M23.72,184.62A2.62,2.62,0,1,0,21.11,182,2.61,2.61,0,0,0,23.72,184.62Z"/><path d="M34.27,184.62A2.62,2.62,0,1,0,31.66,182,2.61,2.61,0,0,0,34.27,184.62Z"/><path d="M44.82,184.62A2.62,2.62,0,1,0,42.21,182,2.61,2.61,0,0,0,44.82,184.62Z"/><path d="M55.38,184.62A2.62,2.62,0,1,0,52.76,182,2.61,2.61,0,0,0,55.38,184.62Z"/><path d="M65.93,184.62A2.62,2.62,0,1,0,63.32,182,2.61,2.61,0,0,0,65.93,184.62Z"/><path d="M76.48,184.62A2.62,2.62,0,1,0,73.87,182,2.61,2.61,0,0,0,76.48,184.62Z"/><path d="M87,184.62A2.62,2.62,0,1,0,84.42,182,2.61,2.61,0,0,0,87,184.62Z"/><path d="M97.59,184.62A2.62,2.62,0,1,0,95,182,2.61,2.61,0,0,0,97.59,184.62Z"/><path d="M108.14,184.62a2.62,2.62,0,1,0-2.61-2.61A2.61,2.61,0,0,0,108.14,184.62Z"/><path d="M118.69,184.62a2.62,2.62,0,1,0-2.61-2.61A2.61,2.61,0,0,0,118.69,184.62Z"/><path d="M129.24,184.62a2.62,2.62,0,1,0-2.61-2.61A2.61,2.61,0,0,0,129.24,184.62Z"/><path d="M139.8,184.62a2.62,2.62,0,1,0-2.62-2.61A2.61,2.61,0,0,0,139.8,184.62Z"/><path d="M150.35,184.62a2.62,2.62,0,1,0-2.61-2.61A2.61,2.61,0,0,0,150.35,184.62Z"/><path d="M160.9,184.62a2.62,2.62,0,1,0-2.61-2.61A2.61,2.61,0,0,0,160.9,184.62Z"/><path d="M171.45,184.62a2.62,2.62,0,1,0-2.61-2.61A2.61,2.61,0,0,0,171.45,184.62Z"/><path d="M182,184.62A2.62,2.62,0,1,0,179.4,182,2.61,2.61,0,0,0,182,184.62Z"/><path d="M192.56,184.62A2.62,2.62,0,1,0,190,182,2.61,2.61,0,0,0,192.56,184.62Z"/><path d="M203.11,184.62A2.62,2.62,0,1,0,200.5,182,2.61,2.61,0,0,0,203.11,184.62Z"/><path d="M213.66,184.62a2.62,2.62,0,1,0-2.61-2.61A2.61,2.61,0,0,0,213.66,184.62Z"/><path d="M224.22,184.62a2.62,2.62,0,1,0-2.61-2.61A2.61,2.61,0,0,0,224.22,184.62Z"/><path d="M234.77,184.62a2.62,2.62,0,1,0-2.61-2.61A2.61,2.61,0,0,0,234.77,184.62Z"/><path d="M245.32,184.62a2.62,2.62,0,1,0-2.61-2.61A2.61,2.61,0,0,0,245.32,184.62Z"/><path d="M255.88,184.62a2.62,2.62,0,1,0-2.62-2.61A2.61,2.61,0,0,0,255.88,184.62Z"/><path d="M266.43,184.62a2.62,2.62,0,1,0-2.61-2.61A2.61,2.61,0,0,0,266.43,184.62Z"/><path d="M277,184.62a2.62,2.62,0,1,0-2.61-2.61A2.61,2.61,0,0,0,277,184.62Z"/><path d="M287.53,184.62a2.62,2.62,0,1,0-2.61-2.61A2.61,2.61,0,0,0,287.53,184.62Z"/><path d="M298.09,184.62a2.62,2.62,0,1,0-2.61-2.61A2.61,2.61,0,0,0,298.09,184.62Z"/><path d="M308.64,184.62A2.62,2.62,0,1,0,306,182,2.61,2.61,0,0,0,308.64,184.62Z"/><path d="M319.19,184.62a2.62,2.62,0,1,0-2.61-2.61A2.61,2.61,0,0,0,319.19,184.62Z"/><path d="M329.74,184.62a2.62,2.62,0,1,0-2.61-2.61A2.61,2.61,0,0,0,329.74,184.62Z"/><path d="M340.3,184.62a2.62,2.62,0,1,0-2.61-2.61A2.61,2.61,0,0,0,340.3,184.62Z"/><path d="M350.85,184.62a2.62,2.62,0,1,0-2.61-2.61A2.61,2.61,0,0,0,350.85,184.62Z"/><path d="M361.4,184.62a2.62,2.62,0,1,0-2.61-2.61A2.61,2.61,0,0,0,361.4,184.62Z"/><path d="M372,184.62a2.62,2.62,0,1,0-2.61-2.61A2.61,2.61,0,0,0,372,184.62Z"/><path d="M382.51,184.62a2.62,2.62,0,1,0-2.62-2.61A2.61,2.61,0,0,0,382.51,184.62Z"/><path d="M393.06,184.62a2.62,2.62,0,1,0-2.61-2.61A2.61,2.61,0,0,0,393.06,184.62Z"/><path d="M403.61,184.62A2.62,2.62,0,1,0,401,182,2.61,2.61,0,0,0,403.61,184.62Z"/><path d="M414.16,184.62a2.62,2.62,0,1,0-2.61-2.61A2.61,2.61,0,0,0,414.16,184.62Z"/><path d="M424.72,184.62a2.62,2.62,0,1,0-2.61-2.61A2.61,2.61,0,0,0,424.72,184.62Z"/><path d="M435.27,184.62a2.62,2.62,0,1,0-2.61-2.61A2.61,2.61,0,0,0,435.27,184.62Z"/><path d="M445.82,184.62a2.62,2.62,0,1,0-2.61-2.61A2.61,2.61,0,0,0,445.82,184.62Z"/><path d="M456.38,184.62a2.62,2.62,0,1,0-2.62-2.61A2.61,2.61,0,0,0,456.38,184.62Z"/><path d="M466.93,184.62a2.62,2.62,0,1,0-2.61-2.61A2.61,2.61,0,0,0,466.93,184.62Z"/><path d="M477.48,184.62a2.62,2.62,0,1,0-2.61-2.61A2.61,2.61,0,0,0,477.48,184.62Z"/><path d="M488,184.62a2.62,2.62,0,1,0-2.61-2.61A2.61,2.61,0,0,0,488,184.62Z"/><path d="M498.59,184.62A2.62,2.62,0,1,0,496,182,2.61,2.61,0,0,0,498.59,184.62Z"/><path d="M23.72,195.17a2.61,2.61,0,1,0-2.61-2.61A2.61,2.61,0,0,0,23.72,195.17Z"/><path d="M34.27,195.17a2.61,2.61,0,1,0-2.61-2.61A2.61,2.61,0,0,0,34.27,195.17Z"/><path d="M44.82,195.17a2.61,2.61,0,1,0-2.61-2.61A2.61,2.61,0,0,0,44.82,195.17Z"/><path d="M55.38,195.17a2.61,2.61,0,1,0-2.62-2.61A2.61,2.61,0,0,0,55.38,195.17Z"/><path d="M65.93,195.17a2.61,2.61,0,1,0-2.61-2.61A2.61,2.61,0,0,0,65.93,195.17Z"/><path d="M76.48,195.17a2.61,2.61,0,1,0-2.61-2.61A2.61,2.61,0,0,0,76.48,195.17Z"/><path d="M87,195.17a2.61,2.61,0,1,0-2.61-2.61A2.61,2.61,0,0,0,87,195.17Z"/><path d="M97.59,195.17A2.61,2.61,0,1,0,95,192.56,2.61,2.61,0,0,0,97.59,195.17Z"/><path d="M108.14,195.17a2.61,2.61,0,1,0-2.61-2.61A2.61,2.61,0,0,0,108.14,195.17Z"/><path d="M118.69,195.17a2.61,2.61,0,1,0-2.61-2.61A2.61,2.61,0,0,0,118.69,195.17Z"/><path d="M129.24,195.17a2.61,2.61,0,1,0-2.61-2.61A2.61,2.61,0,0,0,129.24,195.17Z"/><path d="M139.8,195.17a2.61,2.61,0,1,0-2.62-2.61A2.61,2.61,0,0,0,139.8,195.17Z"/><path d="M150.35,195.17a2.61,2.61,0,1,0-2.61-2.61A2.61,2.61,0,0,0,150.35,195.17Z"/><path d="M160.9,195.17a2.61,2.61,0,1,0-2.61-2.61A2.61,2.61,0,0,0,160.9,195.17Z"/><path d="M171.45,195.17a2.61,2.61,0,1,0-2.61-2.61A2.61,2.61,0,0,0,171.45,195.17Z"/><path d="M182,195.17a2.61,2.61,0,1,0-2.61-2.61A2.61,2.61,0,0,0,182,195.17Z"/><path d="M192.56,195.17a2.61,2.61,0,1,0-2.61-2.61A2.61,2.61,0,0,0,192.56,195.17Z"/><path d="M203.11,195.17a2.61,2.61,0,1,0-2.61-2.61A2.61,2.61,0,0,0,203.11,195.17Z"/><path d="M213.66,195.17a2.61,2.61,0,1,0-2.61-2.61A2.61,2.61,0,0,0,213.66,195.17Z"/><path d="M224.22,195.17a2.61,2.61,0,1,0-2.61-2.61A2.61,2.61,0,0,0,224.22,195.17Z"/><path d="M234.77,195.17a2.61,2.61,0,1,0-2.61-2.61A2.61,2.61,0,0,0,234.77,195.17Z"/><path d="M245.32,195.17a2.61,2.61,0,1,0-2.61-2.61A2.61,2.61,0,0,0,245.32,195.17Z"/><path d="M255.88,195.17a2.61,2.61,0,1,0-2.62-2.61A2.61,2.61,0,0,0,255.88,195.17Z"/><path d="M266.43,195.17a2.61,2.61,0,1,0-2.61-2.61A2.61,2.61,0,0,0,266.43,195.17Z"/><path d="M277,195.17a2.61,2.61,0,1,0-2.61-2.61A2.61,2.61,0,0,0,277,195.17Z"/><path d="M287.53,195.17a2.61,2.61,0,1,0-2.61-2.61A2.61,2.61,0,0,0,287.53,195.17Z"/><path d="M298.09,195.17a2.61,2.61,0,1,0-2.61-2.61A2.61,2.61,0,0,0,298.09,195.17Z"/><path d="M308.64,195.17a2.61,2.61,0,1,0-2.61-2.61A2.61,2.61,0,0,0,308.64,195.17Z"/><path d="M319.19,195.17a2.61,2.61,0,1,0-2.61-2.61A2.61,2.61,0,0,0,319.19,195.17Z"/><path d="M329.74,195.17a2.61,2.61,0,1,0-2.61-2.61A2.61,2.61,0,0,0,329.74,195.17Z"/><path d="M340.3,195.17a2.61,2.61,0,1,0-2.61-2.61A2.61,2.61,0,0,0,340.3,195.17Z"/><path d="M350.85,195.17a2.61,2.61,0,1,0-2.61-2.61A2.61,2.61,0,0,0,350.85,195.17Z"/><path d="M361.4,195.17a2.61,2.61,0,1,0-2.61-2.61A2.61,2.61,0,0,0,361.4,195.17Z"/><path d="M372,195.17a2.61,2.61,0,1,0-2.61-2.61A2.61,2.61,0,0,0,372,195.17Z"/><path d="M382.51,195.17a2.61,2.61,0,1,0-2.62-2.61A2.61,2.61,0,0,0,382.51,195.17Z"/><path d="M393.06,195.17a2.61,2.61,0,1,0-2.61-2.61A2.61,2.61,0,0,0,393.06,195.17Z"/><path d="M403.61,195.17a2.61,2.61,0,1,0-2.61-2.61A2.61,2.61,0,0,0,403.61,195.17Z"/><path d="M414.16,195.17a2.61,2.61,0,1,0-2.61-2.61A2.61,2.61,0,0,0,414.16,195.17Z"/><path d="M424.72,195.17a2.61,2.61,0,1,0-2.61-2.61A2.61,2.61,0,0,0,424.72,195.17Z"/><path d="M435.27,195.17a2.61,2.61,0,1,0-2.61-2.61A2.61,2.61,0,0,0,435.27,195.17Z"/><path d="M445.82,195.17a2.61,2.61,0,1,0-2.61-2.61A2.61,2.61,0,0,0,445.82,195.17Z"/><path d="M456.38,195.17a2.61,2.61,0,1,0-2.62-2.61A2.61,2.61,0,0,0,456.38,195.17Z"/><path d="M466.93,195.17a2.61,2.61,0,1,0-2.61-2.61A2.61,2.61,0,0,0,466.93,195.17Z"/><path d="M477.48,195.17a2.61,2.61,0,1,0-2.61-2.61A2.61,2.61,0,0,0,477.48,195.17Z"/><path d="M488,195.17a2.61,2.61,0,1,0-2.61-2.61A2.61,2.61,0,0,0,488,195.17Z"/><path d="M23.72,205.72a2.61,2.61,0,1,0-2.61-2.61A2.61,2.61,0,0,0,23.72,205.72Z"/><path d="M34.27,205.72a2.61,2.61,0,1,0-2.61-2.61A2.61,2.61,0,0,0,34.27,205.72Z"/><path d="M44.82,205.72a2.61,2.61,0,1,0-2.61-2.61A2.61,2.61,0,0,0,44.82,205.72Z"/><path d="M55.38,205.72a2.61,2.61,0,1,0-2.62-2.61A2.61,2.61,0,0,0,55.38,205.72Z"/><path d="M65.93,205.72a2.61,2.61,0,1,0-2.61-2.61A2.61,2.61,0,0,0,65.93,205.72Z"/><path d="M76.48,205.72a2.61,2.61,0,1,0-2.61-2.61A2.61,2.61,0,0,0,76.48,205.72Z"/><path d="M87,205.72a2.61,2.61,0,1,0-2.61-2.61A2.61,2.61,0,0,0,87,205.72Z"/><path d="M97.59,205.72A2.61,2.61,0,1,0,95,203.11,2.61,2.61,0,0,0,97.59,205.72Z"/><path d="M108.14,205.72a2.61,2.61,0,1,0-2.61-2.61A2.61,2.61,0,0,0,108.14,205.72Z"/><path d="M118.69,205.72a2.61,2.61,0,1,0-2.61-2.61A2.61,2.61,0,0,0,118.69,205.72Z"/><path d="M129.24,205.72a2.61,2.61,0,1,0-2.61-2.61A2.61,2.61,0,0,0,129.24,205.72Z"/><path d="M139.8,205.72a2.61,2.61,0,1,0-2.62-2.61A2.61,2.61,0,0,0,139.8,205.72Z"/><path d="M150.35,205.72a2.61,2.61,0,1,0-2.61-2.61A2.61,2.61,0,0,0,150.35,205.72Z"/><path d="M160.9,205.72a2.61,2.61,0,1,0-2.61-2.61A2.61,2.61,0,0,0,160.9,205.72Z"/><path d="M171.45,205.72a2.61,2.61,0,1,0-2.61-2.61A2.61,2.61,0,0,0,171.45,205.72Z"/><path d="M182,205.72a2.61,2.61,0,1,0-2.61-2.61A2.61,2.61,0,0,0,182,205.72Z"/><path d="M192.56,205.72a2.61,2.61,0,1,0-2.61-2.61A2.61,2.61,0,0,0,192.56,205.72Z"/><path d="M203.11,205.72a2.61,2.61,0,1,0-2.61-2.61A2.61,2.61,0,0,0,203.11,205.72Z"/><path d="M213.66,205.72a2.61,2.61,0,1,0-2.61-2.61A2.61,2.61,0,0,0,213.66,205.72Z"/><path d="M224.22,205.72a2.61,2.61,0,1,0-2.61-2.61A2.61,2.61,0,0,0,224.22,205.72Z"/><path d="M234.77,205.72a2.61,2.61,0,1,0-2.61-2.61A2.61,2.61,0,0,0,234.77,205.72Z"/><path d="M245.32,205.72a2.61,2.61,0,1,0-2.61-2.61A2.61,2.61,0,0,0,245.32,205.72Z"/><path d="M255.88,205.72a2.61,2.61,0,1,0-2.62-2.61A2.61,2.61,0,0,0,255.88,205.72Z"/><path d="M266.43,205.72a2.61,2.61,0,1,0-2.61-2.61A2.61,2.61,0,0,0,266.43,205.72Z"/><path d="M277,205.72a2.61,2.61,0,1,0-2.61-2.61A2.61,2.61,0,0,0,277,205.72Z"/><path d="M287.53,205.72a2.61,2.61,0,1,0-2.61-2.61A2.61,2.61,0,0,0,287.53,205.72Z"/><path d="M298.09,205.72a2.61,2.61,0,1,0-2.61-2.61A2.61,2.61,0,0,0,298.09,205.72Z"/><path d="M308.64,205.72a2.61,2.61,0,1,0-2.61-2.61A2.61,2.61,0,0,0,308.64,205.72Z"/><path d="M319.19,205.72a2.61,2.61,0,1,0-2.61-2.61A2.61,2.61,0,0,0,319.19,205.72Z"/><path d="M329.74,205.72a2.61,2.61,0,1,0-2.61-2.61A2.61,2.61,0,0,0,329.74,205.72Z"/><path d="M340.3,205.72a2.61,2.61,0,1,0-2.61-2.61A2.61,2.61,0,0,0,340.3,205.72Z"/><path d="M350.85,205.72a2.61,2.61,0,1,0-2.61-2.61A2.61,2.61,0,0,0,350.85,205.72Z"/><path d="M361.4,205.72a2.61,2.61,0,1,0-2.61-2.61A2.61,2.61,0,0,0,361.4,205.72Z"/><path d="M372,205.72a2.61,2.61,0,1,0-2.61-2.61A2.61,2.61,0,0,0,372,205.72Z"/><path d="M382.51,205.72a2.61,2.61,0,1,0-2.62-2.61A2.61,2.61,0,0,0,382.51,205.72Z"/><path d="M393.06,205.72a2.61,2.61,0,1,0-2.61-2.61A2.61,2.61,0,0,0,393.06,205.72Z"/><path d="M403.61,205.72a2.61,2.61,0,1,0-2.61-2.61A2.61,2.61,0,0,0,403.61,205.72Z"/><path d="M414.16,205.72a2.61,2.61,0,1,0-2.61-2.61A2.61,2.61,0,0,0,414.16,205.72Z"/><path d="M424.72,205.72a2.61,2.61,0,1,0-2.61-2.61A2.61,2.61,0,0,0,424.72,205.72Z"/><path d="M435.27,205.72a2.61,2.61,0,1,0-2.61-2.61A2.61,2.61,0,0,0,435.27,205.72Z"/><path d="M445.82,205.72a2.61,2.61,0,1,0-2.61-2.61A2.61,2.61,0,0,0,445.82,205.72Z"/><path d="M456.38,205.72a2.61,2.61,0,1,0-2.62-2.61A2.61,2.61,0,0,0,456.38,205.72Z"/><path d="M466.93,205.72a2.61,2.61,0,1,0-2.61-2.61A2.61,2.61,0,0,0,466.93,205.72Z"/><path d="M477.48,205.72a2.61,2.61,0,1,0-2.61-2.61A2.61,2.61,0,0,0,477.48,205.72Z"/><path d="M488,205.72a2.61,2.61,0,1,0-2.61-2.61A2.61,2.61,0,0,0,488,205.72Z"/><path d="M34.27,216.28a2.62,2.62,0,1,0-2.61-2.62A2.61,2.61,0,0,0,34.27,216.28Z"/><path d="M44.82,216.28a2.62,2.62,0,1,0-2.61-2.62A2.61,2.61,0,0,0,44.82,216.28Z"/><path d="M55.38,216.28a2.62,2.62,0,1,0-2.62-2.62A2.61,2.61,0,0,0,55.38,216.28Z"/><path d="M65.93,216.28a2.62,2.62,0,1,0-2.61-2.62A2.61,2.61,0,0,0,65.93,216.28Z"/><path d="M76.48,216.28a2.62,2.62,0,1,0-2.61-2.62A2.61,2.61,0,0,0,76.48,216.28Z"/><path d="M87,216.28a2.62,2.62,0,1,0-2.61-2.62A2.61,2.61,0,0,0,87,216.28Z"/><path d="M97.59,216.28A2.62,2.62,0,1,0,95,213.66,2.61,2.61,0,0,0,97.59,216.28Z"/><path d="M108.14,216.28a2.62,2.62,0,1,0-2.61-2.62A2.61,2.61,0,0,0,108.14,216.28Z"/><path d="M118.69,216.28a2.62,2.62,0,1,0-2.61-2.62A2.61,2.61,0,0,0,118.69,216.28Z"/><path d="M129.24,216.28a2.62,2.62,0,1,0-2.61-2.62A2.62,2.62,0,0,0,129.24,216.28Z"/><path d="M139.8,216.28a2.62,2.62,0,1,0-2.62-2.62A2.61,2.61,0,0,0,139.8,216.28Z"/><path d="M150.35,216.28a2.62,2.62,0,1,0-2.61-2.62A2.61,2.61,0,0,0,150.35,216.28Z"/><path d="M160.9,216.28a2.62,2.62,0,1,0-2.61-2.62A2.61,2.61,0,0,0,160.9,216.28Z"/><path d="M171.45,216.28a2.62,2.62,0,1,0-2.61-2.62A2.62,2.62,0,0,0,171.45,216.28Z"/><path d="M182,216.28a2.62,2.62,0,1,0-2.61-2.62A2.61,2.61,0,0,0,182,216.28Z"/><path d="M192.56,216.28a2.62,2.62,0,1,0-2.61-2.62A2.61,2.61,0,0,0,192.56,216.28Z"/><path d="M203.11,216.28a2.62,2.62,0,1,0-2.61-2.62A2.61,2.61,0,0,0,203.11,216.28Z"/><path d="M213.66,216.28a2.62,2.62,0,1,0-2.61-2.62A2.62,2.62,0,0,0,213.66,216.28Z"/><path d="M224.22,216.28a2.62,2.62,0,1,0-2.61-2.62A2.61,2.61,0,0,0,224.22,216.28Z"/><path d="M234.77,216.28a2.62,2.62,0,1,0-2.61-2.62A2.61,2.61,0,0,0,234.77,216.28Z"/><path d="M245.32,216.28a2.62,2.62,0,1,0-2.61-2.62A2.61,2.61,0,0,0,245.32,216.28Z"/><path d="M255.88,216.28a2.62,2.62,0,1,0-2.62-2.62A2.61,2.61,0,0,0,255.88,216.28Z"/><path d="M266.43,216.28a2.62,2.62,0,1,0-2.61-2.62A2.61,2.61,0,0,0,266.43,216.28Z"/><path d="M277,216.28a2.62,2.62,0,1,0-2.61-2.62A2.61,2.61,0,0,0,277,216.28Z"/><path d="M287.53,216.28a2.62,2.62,0,1,0-2.61-2.62A2.61,2.61,0,0,0,287.53,216.28Z"/><path d="M298.09,216.28a2.62,2.62,0,1,0-2.61-2.62A2.61,2.61,0,0,0,298.09,216.28Z"/><path d="M308.64,216.28a2.62,2.62,0,1,0-2.61-2.62A2.61,2.61,0,0,0,308.64,216.28Z"/><path d="M319.19,216.28a2.62,2.62,0,1,0-2.61-2.62A2.61,2.61,0,0,0,319.19,216.28Z"/><path d="M329.74,216.28a2.62,2.62,0,1,0-2.61-2.62A2.62,2.62,0,0,0,329.74,216.28Z"/><path d="M340.3,216.28a2.62,2.62,0,1,0-2.61-2.62A2.61,2.61,0,0,0,340.3,216.28Z"/><path d="M350.85,216.28a2.62,2.62,0,1,0-2.61-2.62A2.61,2.61,0,0,0,350.85,216.28Z"/><path d="M361.4,216.28a2.62,2.62,0,1,0-2.61-2.62A2.61,2.61,0,0,0,361.4,216.28Z"/><path d="M372,216.28a2.62,2.62,0,1,0-2.61-2.62A2.62,2.62,0,0,0,372,216.28Z"/><path d="M382.51,216.28a2.62,2.62,0,1,0-2.62-2.62A2.61,2.61,0,0,0,382.51,216.28Z"/><path d="M393.06,216.28a2.62,2.62,0,1,0-2.61-2.62A2.61,2.61,0,0,0,393.06,216.28Z"/><path d="M403.61,216.28a2.62,2.62,0,1,0-2.61-2.62A2.62,2.62,0,0,0,403.61,216.28Z"/><path d="M414.16,216.28a2.62,2.62,0,1,0-2.61-2.62A2.62,2.62,0,0,0,414.16,216.28Z"/><path d="M424.72,216.28a2.62,2.62,0,1,0-2.61-2.62A2.61,2.61,0,0,0,424.72,216.28Z"/><path d="M435.27,216.28a2.62,2.62,0,1,0-2.61-2.62A2.61,2.61,0,0,0,435.27,216.28Z"/><path d="M445.82,216.28a2.62,2.62,0,1,0-2.61-2.62A2.62,2.62,0,0,0,445.82,216.28Z"/><path d="M456.38,216.28a2.62,2.62,0,1,0-2.62-2.62A2.61,2.61,0,0,0,456.38,216.28Z"/><path d="M466.93,216.28a2.62,2.62,0,1,0-2.61-2.62A2.61,2.61,0,0,0,466.93,216.28Z"/><path d="M477.48,216.28a2.62,2.62,0,1,0-2.61-2.62A2.61,2.61,0,0,0,477.48,216.28Z"/><path d="M488,216.28a2.62,2.62,0,1,0-2.61-2.62A2.61,2.61,0,0,0,488,216.28Z"/><path d="M55.38,226.83a2.61,2.61,0,1,0-2.62-2.61A2.61,2.61,0,0,0,55.38,226.83Z"/><path d="M65.93,226.83a2.61,2.61,0,1,0-2.61-2.61A2.61,2.61,0,0,0,65.93,226.83Z"/><path d="M76.48,226.83a2.61,2.61,0,1,0-2.61-2.61A2.61,2.61,0,0,0,76.48,226.83Z"/><path d="M87,226.83a2.61,2.61,0,1,0-2.61-2.61A2.61,2.61,0,0,0,87,226.83Z"/><path d="M97.59,226.83A2.61,2.61,0,1,0,95,224.22,2.61,2.61,0,0,0,97.59,226.83Z"/><path d="M108.14,226.83a2.61,2.61,0,1,0-2.61-2.61A2.61,2.61,0,0,0,108.14,226.83Z"/><path d="M118.69,226.83a2.61,2.61,0,1,0-2.61-2.61A2.61,2.61,0,0,0,118.69,226.83Z"/><path d="M129.24,226.83a2.61,2.61,0,1,0-2.61-2.61A2.61,2.61,0,0,0,129.24,226.83Z"/><path d="M139.8,226.83a2.61,2.61,0,1,0-2.62-2.61A2.61,2.61,0,0,0,139.8,226.83Z"/><path d="M150.35,226.83a2.61,2.61,0,1,0-2.61-2.61A2.61,2.61,0,0,0,150.35,226.83Z"/><path d="M160.9,226.83a2.61,2.61,0,1,0-2.61-2.61A2.61,2.61,0,0,0,160.9,226.83Z"/><path d="M171.45,226.83a2.61,2.61,0,1,0-2.61-2.61A2.61,2.61,0,0,0,171.45,226.83Z"/><path d="M182,226.83a2.61,2.61,0,1,0-2.61-2.61A2.61,2.61,0,0,0,182,226.83Z"/><path d="M192.56,226.83a2.61,2.61,0,1,0-2.61-2.61A2.61,2.61,0,0,0,192.56,226.83Z"/><path d="M203.11,226.83a2.61,2.61,0,1,0-2.61-2.61A2.61,2.61,0,0,0,203.11,226.83Z"/><path d="M213.66,226.83a2.61,2.61,0,1,0-2.61-2.61A2.61,2.61,0,0,0,213.66,226.83Z"/><path d="M224.22,226.83a2.61,2.61,0,1,0-2.61-2.61A2.61,2.61,0,0,0,224.22,226.83Z"/><path d="M234.77,226.83a2.61,2.61,0,1,0-2.61-2.61A2.61,2.61,0,0,0,234.77,226.83Z"/><path d="M245.32,226.83a2.61,2.61,0,1,0-2.61-2.61A2.61,2.61,0,0,0,245.32,226.83Z"/><path d="M255.88,226.83a2.61,2.61,0,1,0-2.62-2.61A2.61,2.61,0,0,0,255.88,226.83Z"/><path d="M266.43,226.83a2.61,2.61,0,1,0-2.61-2.61A2.61,2.61,0,0,0,266.43,226.83Z"/><path d="M277,226.83a2.61,2.61,0,1,0-2.61-2.61A2.61,2.61,0,0,0,277,226.83Z"/><path d="M287.53,226.83a2.61,2.61,0,1,0-2.61-2.61A2.61,2.61,0,0,0,287.53,226.83Z"/><path d="M298.09,226.83a2.61,2.61,0,1,0-2.61-2.61A2.61,2.61,0,0,0,298.09,226.83Z"/><path d="M308.64,226.83a2.61,2.61,0,1,0-2.61-2.61A2.61,2.61,0,0,0,308.64,226.83Z"/><path d="M319.19,226.83a2.61,2.61,0,1,0-2.61-2.61A2.61,2.61,0,0,0,319.19,226.83Z"/><path d="M329.74,226.83a2.61,2.61,0,1,0-2.61-2.61A2.61,2.61,0,0,0,329.74,226.83Z"/><path d="M340.3,226.83a2.61,2.61,0,1,0-2.61-2.61A2.61,2.61,0,0,0,340.3,226.83Z"/><path d="M350.85,226.83a2.61,2.61,0,1,0-2.61-2.61A2.61,2.61,0,0,0,350.85,226.83Z"/><path d="M361.4,226.83a2.61,2.61,0,1,0-2.61-2.61A2.61,2.61,0,0,0,361.4,226.83Z"/><path d="M372,226.83a2.61,2.61,0,1,0-2.61-2.61A2.61,2.61,0,0,0,372,226.83Z"/><path d="M382.51,226.83a2.61,2.61,0,1,0-2.62-2.61A2.61,2.61,0,0,0,382.51,226.83Z"/><path d="M393.06,226.83a2.61,2.61,0,1,0-2.61-2.61A2.61,2.61,0,0,0,393.06,226.83Z"/><path d="M403.61,226.83a2.61,2.61,0,1,0-2.61-2.61A2.61,2.61,0,0,0,403.61,226.83Z"/><path d="M414.16,226.83a2.61,2.61,0,1,0-2.61-2.61A2.61,2.61,0,0,0,414.16,226.83Z"/><path d="M424.72,226.83a2.61,2.61,0,1,0-2.61-2.61A2.61,2.61,0,0,0,424.72,226.83Z"/><path d="M435.27,226.83a2.61,2.61,0,1,0-2.61-2.61A2.61,2.61,0,0,0,435.27,226.83Z"/><path d="M445.82,226.83a2.61,2.61,0,1,0-2.61-2.61A2.61,2.61,0,0,0,445.82,226.83Z"/><path d="M456.38,226.83a2.61,2.61,0,1,0-2.62-2.61A2.61,2.61,0,0,0,456.38,226.83Z"/><path d="M466.93,226.83a2.61,2.61,0,1,0-2.61-2.61A2.61,2.61,0,0,0,466.93,226.83Z"/><path d="M477.48,226.83a2.61,2.61,0,1,0-2.61-2.61A2.61,2.61,0,0,0,477.48,226.83Z"/><path d="M55.38,237.38a2.61,2.61,0,1,0-2.62-2.61A2.61,2.61,0,0,0,55.38,237.38Z"/><path d="M65.93,237.38a2.61,2.61,0,1,0-2.61-2.61A2.61,2.61,0,0,0,65.93,237.38Z"/><path d="M76.48,237.38a2.61,2.61,0,1,0-2.61-2.61A2.61,2.61,0,0,0,76.48,237.38Z"/><path d="M87,237.38a2.61,2.61,0,1,0-2.61-2.61A2.61,2.61,0,0,0,87,237.38Z"/><path d="M97.59,237.38A2.61,2.61,0,1,0,95,234.77,2.61,2.61,0,0,0,97.59,237.38Z"/><path d="M108.14,237.38a2.61,2.61,0,1,0-2.61-2.61A2.61,2.61,0,0,0,108.14,237.38Z"/><path d="M118.69,237.38a2.61,2.61,0,1,0-2.61-2.61A2.61,2.61,0,0,0,118.69,237.38Z"/><path d="M129.24,237.38a2.61,2.61,0,1,0-2.61-2.61A2.61,2.61,0,0,0,129.24,237.38Z"/><path d="M139.8,237.38a2.61,2.61,0,1,0-2.62-2.61A2.61,2.61,0,0,0,139.8,237.38Z"/><path d="M150.35,237.38a2.61,2.61,0,1,0-2.61-2.61A2.61,2.61,0,0,0,150.35,237.38Z"/><path d="M160.9,237.38a2.61,2.61,0,1,0-2.61-2.61A2.61,2.61,0,0,0,160.9,237.38Z"/><path d="M171.45,237.38a2.61,2.61,0,1,0-2.61-2.61A2.61,2.61,0,0,0,171.45,237.38Z"/><path d="M182,237.38a2.61,2.61,0,1,0-2.61-2.61A2.61,2.61,0,0,0,182,237.38Z"/><path d="M192.56,237.38a2.61,2.61,0,1,0-2.61-2.61A2.61,2.61,0,0,0,192.56,237.38Z"/><path d="M203.11,237.38a2.61,2.61,0,1,0-2.61-2.61A2.61,2.61,0,0,0,203.11,237.38Z"/><path d="M213.66,237.38a2.61,2.61,0,1,0-2.61-2.61A2.61,2.61,0,0,0,213.66,237.38Z"/><path d="M224.22,237.38a2.61,2.61,0,1,0-2.61-2.61A2.61,2.61,0,0,0,224.22,237.38Z"/><path d="M234.77,237.38a2.61,2.61,0,1,0-2.61-2.61A2.61,2.61,0,0,0,234.77,237.38Z"/><path d="M245.32,237.38a2.61,2.61,0,1,0-2.61-2.61A2.61,2.61,0,0,0,245.32,237.38Z"/><path d="M255.88,237.38a2.61,2.61,0,1,0-2.62-2.61A2.61,2.61,0,0,0,255.88,237.38Z"/><path d="M266.43,237.38a2.61,2.61,0,1,0-2.61-2.61A2.61,2.61,0,0,0,266.43,237.38Z"/><path d="M277,237.38a2.61,2.61,0,1,0-2.61-2.61A2.61,2.61,0,0,0,277,237.38Z"/><path d="M287.53,237.38a2.61,2.61,0,1,0-2.61-2.61A2.61,2.61,0,0,0,287.53,237.38Z"/><path d="M298.09,237.38a2.61,2.61,0,1,0-2.61-2.61A2.61,2.61,0,0,0,298.09,237.38Z"/><path d="M308.64,237.38a2.61,2.61,0,1,0-2.61-2.61A2.61,2.61,0,0,0,308.64,237.38Z"/><path d="M319.19,237.38a2.61,2.61,0,1,0-2.61-2.61A2.61,2.61,0,0,0,319.19,237.38Z"/><path d="M329.74,237.38a2.61,2.61,0,1,0-2.61-2.61A2.61,2.61,0,0,0,329.74,237.38Z"/><path d="M340.3,237.38a2.61,2.61,0,1,0-2.61-2.61A2.61,2.61,0,0,0,340.3,237.38Z"/><path d="M350.85,237.38a2.61,2.61,0,1,0-2.61-2.61A2.61,2.61,0,0,0,350.85,237.38Z"/><path d="M361.4,237.38a2.61,2.61,0,1,0-2.61-2.61A2.61,2.61,0,0,0,361.4,237.38Z"/><path d="M372,237.38a2.61,2.61,0,1,0-2.61-2.61A2.61,2.61,0,0,0,372,237.38Z"/><path d="M382.51,237.38a2.61,2.61,0,1,0-2.62-2.61A2.61,2.61,0,0,0,382.51,237.38Z"/><path d="M393.06,237.38a2.61,2.61,0,1,0-2.61-2.61A2.61,2.61,0,0,0,393.06,237.38Z"/><path d="M403.61,237.38a2.61,2.61,0,1,0-2.61-2.61A2.61,2.61,0,0,0,403.61,237.38Z"/><path d="M414.16,237.38a2.61,2.61,0,1,0-2.61-2.61A2.61,2.61,0,0,0,414.16,237.38Z"/><path d="M424.72,237.38a2.61,2.61,0,1,0-2.61-2.61A2.61,2.61,0,0,0,424.72,237.38Z"/><path d="M435.27,237.38a2.61,2.61,0,1,0-2.61-2.61A2.61,2.61,0,0,0,435.27,237.38Z"/><path d="M445.82,237.38a2.61,2.61,0,1,0-2.61-2.61A2.61,2.61,0,0,0,445.82,237.38Z"/><path d="M456.38,237.38a2.61,2.61,0,1,0-2.62-2.61A2.61,2.61,0,0,0,456.38,237.38Z"/><path d="M97.59,247.93A2.61,2.61,0,1,0,95,245.32,2.61,2.61,0,0,0,97.59,247.93Z"/><path d="M108.14,247.93a2.61,2.61,0,1,0-2.61-2.61A2.61,2.61,0,0,0,108.14,247.93Z"/><circle cx="118.69" cy="245.32" r="2.61"/><path d="M129.24,247.93a2.61,2.61,0,1,0-2.61-2.61A2.61,2.61,0,0,0,129.24,247.93Z"/><circle cx="139.8" cy="245.32" r="2.61"/><circle cx="150.35" cy="245.32" r="2.61"/><path d="M160.9,247.93a2.61,2.61,0,1,0-2.61-2.61A2.61,2.61,0,0,0,160.9,247.93Z"/><path d="M171.45,247.93a2.61,2.61,0,1,0-2.61-2.61A2.61,2.61,0,0,0,171.45,247.93Z"/><path d="M182,247.93a2.61,2.61,0,1,0-2.61-2.61A2.61,2.61,0,0,0,182,247.93Z"/><circle cx="192.56" cy="245.32" r="2.61"/><circle cx="203.11" cy="245.32" r="2.61"/><path d="M213.66,247.93a2.61,2.61,0,1,0-2.61-2.61A2.61,2.61,0,0,0,213.66,247.93Z"/><path d="M224.22,247.93a2.61,2.61,0,1,0-2.61-2.61A2.61,2.61,0,0,0,224.22,247.93Z"/><path d="M234.77,247.93a2.61,2.61,0,1,0-2.61-2.61A2.61,2.61,0,0,0,234.77,247.93Z"/><path d="M245.32,247.93a2.61,2.61,0,1,0-2.61-2.61A2.6,2.6,0,0,0,245.32,247.93Z"/><path d="M255.88,247.93a2.61,2.61,0,1,0-2.62-2.61A2.61,2.61,0,0,0,255.88,247.93Z"/><path d="M266.43,247.93a2.61,2.61,0,1,0-2.61-2.61A2.61,2.61,0,0,0,266.43,247.93Z"/><path d="M277,247.93a2.61,2.61,0,1,0-2.61-2.61A2.61,2.61,0,0,0,277,247.93Z"/><path d="M287.53,247.93a2.61,2.61,0,1,0-2.61-2.61A2.6,2.6,0,0,0,287.53,247.93Z"/><path d="M298.09,247.93a2.61,2.61,0,1,0-2.61-2.61A2.61,2.61,0,0,0,298.09,247.93Z"/><path d="M308.64,247.93a2.61,2.61,0,1,0-2.61-2.61A2.61,2.61,0,0,0,308.64,247.93Z"/><path d="M319.19,247.93a2.61,2.61,0,1,0-2.61-2.61A2.61,2.61,0,0,0,319.19,247.93Z"/><path d="M329.74,247.93a2.61,2.61,0,1,0-2.61-2.61A2.61,2.61,0,0,0,329.74,247.93Z"/><path d="M340.3,247.93a2.61,2.61,0,1,0-2.61-2.61A2.61,2.61,0,0,0,340.3,247.93Z"/><path d="M350.85,247.93a2.61,2.61,0,1,0-2.61-2.61A2.61,2.61,0,0,0,350.85,247.93Z"/><path d="M361.4,247.93a2.61,2.61,0,1,0-2.61-2.61A2.61,2.61,0,0,0,361.4,247.93Z"/><path d="M372,247.93a2.61,2.61,0,1,0-2.61-2.61A2.61,2.61,0,0,0,372,247.93Z"/><path d="M382.51,247.93a2.61,2.61,0,1,0-2.62-2.61A2.61,2.61,0,0,0,382.51,247.93Z"/><path d="M393.06,247.93a2.61,2.61,0,1,0-2.61-2.61A2.61,2.61,0,0,0,393.06,247.93Z"/><path d="M403.61,247.93a2.61,2.61,0,1,0-2.61-2.61A2.61,2.61,0,0,0,403.61,247.93Z"/><path d="M414.16,247.93a2.61,2.61,0,1,0-2.61-2.61A2.61,2.61,0,0,0,414.16,247.93Z"/><circle cx="424.72" cy="245.32" r="2.61"/><circle cx="435.27" cy="245.32" r="2.61"/><path d="M445.82,247.93a2.61,2.61,0,1,0-2.61-2.61A2.61,2.61,0,0,0,445.82,247.93Z"/><path d="M171.45,258.49a2.62,2.62,0,1,0-2.61-2.61A2.61,2.61,0,0,0,171.45,258.49Z"/><path d="M182,258.49a2.62,2.62,0,1,0-2.61-2.61A2.61,2.61,0,0,0,182,258.49Z"/><circle cx="192.56" cy="255.88" r="2.61"/><circle cx="203.11" cy="255.88" r="2.61"/><path d="M213.66,258.49a2.62,2.62,0,1,0-2.61-2.61A2.61,2.61,0,0,0,213.66,258.49Z"/><path d="M224.22,258.49a2.62,2.62,0,1,0-2.61-2.61A2.61,2.61,0,0,0,224.22,258.49Z"/><path d="M234.77,258.49a2.62,2.62,0,1,0-2.61-2.61A2.61,2.61,0,0,0,234.77,258.49Z"/><path d="M245.32,258.49a2.62,2.62,0,1,0-2.61-2.61A2.61,2.61,0,0,0,245.32,258.49Z"/><path d="M255.88,258.49a2.62,2.62,0,1,0-2.62-2.61A2.61,2.61,0,0,0,255.88,258.49Z"/><path d="M266.43,258.49a2.62,2.62,0,1,0-2.61-2.61A2.61,2.61,0,0,0,266.43,258.49Z"/><path d="M277,258.49a2.62,2.62,0,1,0-2.61-2.61A2.61,2.61,0,0,0,277,258.49Z"/><path d="M287.53,258.49a2.62,2.62,0,1,0-2.61-2.61A2.61,2.61,0,0,0,287.53,258.49Z"/><path d="M298.09,258.49a2.62,2.62,0,1,0-2.61-2.61A2.61,2.61,0,0,0,298.09,258.49Z"/><path d="M308.64,258.49a2.62,2.62,0,1,0-2.61-2.61A2.61,2.61,0,0,0,308.64,258.49Z"/><path d="M319.19,258.49a2.62,2.62,0,1,0-2.61-2.61A2.61,2.61,0,0,0,319.19,258.49Z"/><path d="M329.74,258.49a2.62,2.62,0,1,0-2.61-2.61A2.61,2.61,0,0,0,329.74,258.49Z"/><path d="M340.3,258.49a2.62,2.62,0,1,0-2.61-2.61A2.61,2.61,0,0,0,340.3,258.49Z"/><path d="M350.85,258.49a2.62,2.62,0,1,0-2.61-2.61A2.61,2.61,0,0,0,350.85,258.49Z"/><path d="M361.4,258.49a2.62,2.62,0,1,0-2.61-2.61A2.61,2.61,0,0,0,361.4,258.49Z"/><path d="M372,258.49a2.62,2.62,0,1,0-2.61-2.61A2.61,2.61,0,0,0,372,258.49Z"/><path d="M382.51,258.49a2.62,2.62,0,1,0-2.62-2.61A2.61,2.61,0,0,0,382.51,258.49Z"/><path d="M393.06,258.49a2.62,2.62,0,1,0-2.61-2.61A2.61,2.61,0,0,0,393.06,258.49Z"/><path d="M403.61,258.49a2.62,2.62,0,1,0-2.61-2.61A2.61,2.61,0,0,0,403.61,258.49Z"/><path d="M414.16,258.49a2.62,2.62,0,1,0-2.61-2.61A2.61,2.61,0,0,0,414.16,258.49Z"/><circle cx="424.72" cy="255.88" r="2.61"/><path d="M182,269a2.61,2.61,0,1,0-2.61-2.61A2.61,2.61,0,0,0,182,269Z"/><path d="M192.56,269a2.61,2.61,0,1,0-2.61-2.61A2.61,2.61,0,0,0,192.56,269Z"/><path d="M203.11,269a2.61,2.61,0,1,0-2.61-2.61A2.61,2.61,0,0,0,203.11,269Z"/><path d="M213.66,269a2.61,2.61,0,1,0-2.61-2.61A2.61,2.61,0,0,0,213.66,269Z"/><path d="M224.22,269a2.61,2.61,0,1,0-2.61-2.61A2.61,2.61,0,0,0,224.22,269Z"/><path d="M234.77,269a2.61,2.61,0,1,0-2.61-2.61A2.61,2.61,0,0,0,234.77,269Z"/><path d="M245.32,269a2.61,2.61,0,1,0-2.61-2.61A2.61,2.61,0,0,0,245.32,269Z"/><path d="M255.88,269a2.61,2.61,0,1,0-2.62-2.61A2.61,2.61,0,0,0,255.88,269Z"/><path d="M266.43,269a2.61,2.61,0,1,0-2.61-2.61A2.61,2.61,0,0,0,266.43,269Z"/><path d="M277,269a2.61,2.61,0,1,0-2.61-2.61A2.61,2.61,0,0,0,277,269Z"/><path d="M287.53,269a2.61,2.61,0,1,0-2.61-2.61A2.61,2.61,0,0,0,287.53,269Z"/><path d="M298.09,269a2.61,2.61,0,1,0-2.61-2.61A2.61,2.61,0,0,0,298.09,269Z"/><path d="M308.64,269a2.61,2.61,0,1,0-2.61-2.61A2.61,2.61,0,0,0,308.64,269Z"/><path d="M319.19,269a2.61,2.61,0,1,0-2.61-2.61A2.61,2.61,0,0,0,319.19,269Z"/><path d="M329.74,269a2.61,2.61,0,1,0-2.61-2.61A2.61,2.61,0,0,0,329.74,269Z"/><path d="M340.3,269a2.61,2.61,0,1,0-2.61-2.61A2.61,2.61,0,0,0,340.3,269Z"/><path d="M350.85,269a2.61,2.61,0,1,0-2.61-2.61A2.61,2.61,0,0,0,350.85,269Z"/><path d="M361.4,269a2.61,2.61,0,1,0-2.61-2.61A2.61,2.61,0,0,0,361.4,269Z"/><path d="M372,269a2.61,2.61,0,1,0-2.61-2.61A2.61,2.61,0,0,0,372,269Z"/><path d="M382.51,269a2.61,2.61,0,1,0-2.62-2.61A2.61,2.61,0,0,0,382.51,269Z"/><path d="M393.06,269a2.61,2.61,0,1,0-2.61-2.61A2.61,2.61,0,0,0,393.06,269Z"/><path d="M403.61,269a2.61,2.61,0,1,0-2.61-2.61A2.61,2.61,0,0,0,403.61,269Z"/><path d="M414.16,269a2.61,2.61,0,1,0-2.61-2.61A2.61,2.61,0,0,0,414.16,269Z"/><path d="M424.72,269a2.61,2.61,0,1,0-2.61-2.61A2.61,2.61,0,0,0,424.72,269Z"/><path d="M182,279.59A2.61,2.61,0,1,0,179.4,277,2.61,2.61,0,0,0,182,279.59Z"/><circle cx="192.56" cy="276.98" r="2.61"/><circle cx="203.11" cy="276.98" r="2.61"/><path d="M213.66,279.59a2.61,2.61,0,1,0-2.61-2.61A2.61,2.61,0,0,0,213.66,279.59Z"/><path d="M224.22,279.59a2.61,2.61,0,1,0-2.61-2.61A2.61,2.61,0,0,0,224.22,279.59Z"/><path d="M234.77,279.59a2.61,2.61,0,1,0-2.61-2.61A2.61,2.61,0,0,0,234.77,279.59Z"/><path d="M245.32,279.59a2.61,2.61,0,1,0-2.61-2.61A2.61,2.61,0,0,0,245.32,279.59Z"/><path d="M255.88,279.59a2.61,2.61,0,1,0-2.62-2.61A2.61,2.61,0,0,0,255.88,279.59Z"/><path d="M266.43,279.59a2.61,2.61,0,1,0-2.61-2.61A2.61,2.61,0,0,0,266.43,279.59Z"/><path d="M277,279.59a2.61,2.61,0,1,0-2.61-2.61A2.61,2.61,0,0,0,277,279.59Z"/><path d="M287.53,279.59a2.61,2.61,0,1,0-2.61-2.61A2.61,2.61,0,0,0,287.53,279.59Z"/><path d="M298.09,279.59a2.61,2.61,0,1,0-2.61-2.61A2.61,2.61,0,0,0,298.09,279.59Z"/><path d="M308.64,279.59A2.61,2.61,0,1,0,306,277,2.61,2.61,0,0,0,308.64,279.59Z"/><path d="M319.19,279.59a2.61,2.61,0,1,0-2.61-2.61A2.61,2.61,0,0,0,319.19,279.59Z"/><path d="M329.74,279.59a2.61,2.61,0,1,0-2.61-2.61A2.61,2.61,0,0,0,329.74,279.59Z"/><path d="M340.3,279.59a2.61,2.61,0,1,0-2.61-2.61A2.61,2.61,0,0,0,340.3,279.59Z"/><path d="M382.51,279.59a2.61,2.61,0,1,0-2.62-2.61A2.61,2.61,0,0,0,382.51,279.59Z"/><path d="M393.06,279.59a2.61,2.61,0,1,0-2.61-2.61A2.61,2.61,0,0,0,393.06,279.59Z"/><path d="M403.61,279.59A2.61,2.61,0,1,0,401,277,2.61,2.61,0,0,0,403.61,279.59Z"/><path d="M414.16,279.59a2.61,2.61,0,1,0-2.61-2.61A2.61,2.61,0,0,0,414.16,279.59Z"/><circle cx="424.72" cy="276.98" r="2.61"/><path d="M224.22,290.14a2.61,2.61,0,1,0-2.61-2.61A2.61,2.61,0,0,0,224.22,290.14Z"/><path d="M234.77,290.14a2.61,2.61,0,1,0-2.61-2.61A2.61,2.61,0,0,0,234.77,290.14Z"/><path d="M245.32,290.14a2.61,2.61,0,1,0-2.61-2.61A2.6,2.6,0,0,0,245.32,290.14Z"/><path d="M255.88,290.14a2.61,2.61,0,1,0-2.62-2.61A2.61,2.61,0,0,0,255.88,290.14Z"/><path d="M266.43,290.14a2.61,2.61,0,1,0-2.61-2.61A2.61,2.61,0,0,0,266.43,290.14Z"/><path d="M277,290.14a2.61,2.61,0,1,0-2.61-2.61A2.61,2.61,0,0,0,277,290.14Z"/><path d="M403.61,290.14a2.61,2.61,0,1,0-2.61-2.61A2.61,2.61,0,0,0,403.61,290.14Z"/><path d="M414.16,290.14a2.61,2.61,0,1,0-2.61-2.61A2.61,2.61,0,0,0,414.16,290.14Z"/><circle cx="424.72" cy="287.53" r="2.61"/><path d="M234.77,300.7a2.62,2.62,0,1,0-2.61-2.61A2.61,2.61,0,0,0,234.77,300.7Z"/><path d="M245.32,300.7a2.62,2.62,0,1,0-2.61-2.61A2.61,2.61,0,0,0,245.32,300.7Z"/><path d="M255.88,300.7a2.62,2.62,0,1,0-2.62-2.61A2.61,2.61,0,0,0,255.88,300.7Z"/><path d="M403.61,300.7a2.62,2.62,0,1,0-2.61-2.61A2.61,2.61,0,0,0,403.61,300.7Z"/><path d="M414.16,300.7a2.62,2.62,0,1,0-2.61-2.61A2.61,2.61,0,0,0,414.16,300.7Z"/><path d="M424.72,300.7a2.62,2.62,0,1,0-2.61-2.61A2.61,2.61,0,0,0,424.72,300.7Z"/><path d="M435.27,300.7a2.62,2.62,0,1,0-2.61-2.61A2.61,2.61,0,0,0,435.27,300.7Z"/><path d="M234.77,311.25a2.61,2.61,0,1,0-2.61-2.61A2.61,2.61,0,0,0,234.77,311.25Z"/><path d="M245.32,311.25a2.61,2.61,0,1,0-2.61-2.61A2.61,2.61,0,0,0,245.32,311.25Z"/><path d="M255.88,311.25a2.61,2.61,0,1,0-2.62-2.61A2.61,2.61,0,0,0,255.88,311.25Z"/><path d="M403.61,311.25a2.61,2.61,0,1,0-2.61-2.61A2.61,2.61,0,0,0,403.61,311.25Z"/><path d="M414.16,311.25a2.61,2.61,0,1,0-2.61-2.61A2.61,2.61,0,0,0,414.16,311.25Z"/><path d="M424.72,311.25a2.61,2.61,0,1,0-2.61-2.61A2.61,2.61,0,0,0,424.72,311.25Z"/><path d="M435.27,311.25a2.61,2.61,0,1,0-2.61-2.61A2.61,2.61,0,0,0,435.27,311.25Z"/><path d="M245.32,321.8a2.61,2.61,0,1,0-2.61-2.61A2.61,2.61,0,0,0,245.32,321.8Z"/><path d="M414.16,321.8a2.61,2.61,0,1,0-2.61-2.61A2.61,2.61,0,0,0,414.16,321.8Z"/><path d="M424.72,321.8a2.61,2.61,0,1,0-2.61-2.61A2.61,2.61,0,0,0,424.72,321.8Z"/></g></g></svg>